<ttFont>
    <TTGlyph name=".ttfautohint" xMin="0" yMin="0" xMax="0" yMax="0">
      <contour>
        <pt x="0" y="0" on="1"/>
      </contour>
    </TTGlyph>
    <TTGlyph name="A" xMin="2" yMin="-2" xMax="434" yMax="702">
      <contour>
        <pt x="436" y="8" on="0"/>
        <pt x="416" y="-2" on="0"/>
        <pt x="384" y="-2" on="1"/>
        <pt x="349" y="-2" on="0"/>
        <pt x="320" y="0" on="1"/>
        <pt x="287" y="160" on="1"/>
        <pt x="152" y="160" on="1"/>
        <pt x="123" y="19" on="1"/>
        <pt x="120" y="7" on="0"/>
        <pt x="103" y="-2" on="0"/>
        <pt x="72" y="-2" on="1"/>
        <pt x="37" y="-2" on="0"/>
        <pt x="2" y="2" on="1"/>
        <pt x="169" y="681" on="1"/>
        <pt x="173" y="702" on="0"/>
        <pt x="214" y="702" on="1"/>
        <pt x="248" y="702" on="0"/>
        <pt x="267" y="698" on="1"/>
        <pt x="434" y="18" on="1"/>
      </contour>
      <contour>
        <pt x="246" y="354" on="1"/>
        <pt x="231" y="426" on="0"/>
        <pt x="220" y="543" on="1"/>
        <pt x="206" y="416" on="0"/>
        <pt x="193" y="354" on="1"/>
        <pt x="173" y="260" on="1"/>
        <pt x="266" y="260" on="1"/>
      </contour>
    </TTGlyph>
    <TTGlyph name="AE" xMin="16" yMin="-2" xMax="573" yMax="700">
      <contour>
        <pt x="566" y="99" on="1"/>
        <pt x="566" y="59" on="0"/>
        <pt x="564" y="11" on="0"/>
        <pt x="557" y="0" on="0"/>
        <pt x="546" y="0" on="1"/>
        <pt x="313" y="0" on="1"/>
        <pt x="313" y="160" on="1"/>
        <pt x="185" y="160" on="1"/>
        <pt x="137" y="19" on="1"/>
        <pt x="133" y="7" on="0"/>
        <pt x="113" y="-2" on="0"/>
        <pt x="86" y="-2" on="1"/>
        <pt x="51" y="-2" on="0"/>
        <pt x="16" y="2" on="1"/>
        <pt x="269" y="681" on="1"/>
        <pt x="275" y="700" on="0"/>
        <pt x="305" y="700" on="1"/>
        <pt x="573" y="700" on="1"/>
        <pt x="573" y="662" on="0"/>
        <pt x="571" y="614" on="0"/>
        <pt x="563" y="601" on="0"/>
        <pt x="553" y="601" on="1"/>
        <pt x="424" y="601" on="1"/>
        <pt x="424" y="430" on="1"/>
        <pt x="546" y="430" on="1"/>
        <pt x="546" y="393" on="0"/>
        <pt x="544" y="344" on="0"/>
        <pt x="537" y="328" on="0"/>
        <pt x="527" y="328" on="1"/>
        <pt x="424" y="328" on="1"/>
        <pt x="424" y="99" on="1"/>
      </contour>
      <contour>
        <pt x="313" y="583" on="1"/>
        <pt x="285" y="456" on="0"/>
        <pt x="249" y="351" on="1"/>
        <pt x="218" y="260" on="1"/>
        <pt x="313" y="260" on="1"/>
      </contour>
    </TTGlyph>
    <TTGlyph name="Aacute" xMin="2" yMin="-2" xMax="434" yMax="928">
      <component glyphName=".ttfautohint" x="2" y="0" flags="0x0"/>
      <component glyphName="A" x="0" y="0" flags="0x1000"/>
      <component glyphName="acute" x="89" y="200" flags="0x1000"/>
    </TTGlyph>
    <TTGlyph name="Abreve" xMin="2" yMin="-2" xMax="434" yMax="917">
      <component glyphName=".ttfautohint" x="2" y="0" flags="0x0"/>
      <component glyphName="A" x="0" y="0" flags="0x1000"/>
      <component glyphName="breve" x="79" y="200" flags="0x1000"/>
    </TTGlyph>
    <TTGlyph name="Acircumflex" xMin="2" yMin="-2" xMax="434" yMax="917">
      <component glyphName=".ttfautohint" x="2" y="0" flags="0x0"/>
      <component glyphName="A" x="0" y="0" flags="0x1000"/>
      <component glyphName="circumflex" x="79" y="200" flags="0x1000"/>
    </TTGlyph>
    <TTGlyph name="Adieresis" xMin="2" yMin="-2" xMax="434" yMax="900">
      <component glyphName=".ttfautohint" x="2" y="0" flags="0x0"/>
      <component glyphName="A" x="0" y="0" flags="0x1000"/>
      <component glyphName="dieresis" x="79" y="200" flags="0x1000"/>
    </TTGlyph>
    <TTGlyph name="Agrave" xMin="2" yMin="-2" xMax="434" yMax="918">
      <component glyphName=".ttfautohint" x="2" y="0" flags="0x0"/>
      <component glyphName="A" x="0" y="0" flags="0x1000"/>
      <component glyphName="grave" x="89" y="200" flags="0x1000"/>
    </TTGlyph>
    <TTGlyph name="Amacron" xMin="2" yMin="-2" xMax="434" yMax="872">
      <component glyphName=".ttfautohint" x="2" y="0" flags="0x0"/>
      <component glyphName="A" x="0" y="0" flags="0x1000"/>
      <component glyphName="macron" x="79" y="200" flags="0x1000"/>
    </TTGlyph>
    <TTGlyph name="Aogonek" xMin="2" yMin="-195" xMax="433" yMax="702">
      <contour>
        <pt x="173" y="702" on="0"/>
        <pt x="214" y="702" on="1"/>
        <pt x="248" y="702" on="0"/>
        <pt x="267" y="698" on="1"/>
        <pt x="431" y="31" on="1"/>
        <pt x="433" y="21" on="0"/>
        <pt x="433" y="19" on="1"/>
        <pt x="433" y="9" on="0"/>
        <pt x="420" y="-3" on="1"/>
        <pt x="370" y="-49" on="0"/>
        <pt x="370" y="-90" on="1"/>
        <pt x="370" y="-118" on="0"/>
        <pt x="395" y="-118" on="1"/>
        <pt x="410" y="-118" on="0"/>
        <pt x="420" y="-111" on="1"/>
        <pt x="431" y="-133" on="0"/>
        <pt x="431" y="-154" on="1"/>
        <pt x="431" y="-195" on="0"/>
        <pt x="360" y="-195" on="1"/>
        <pt x="271" y="-195" on="0"/>
        <pt x="271" y="-106" on="1"/>
        <pt x="271" y="-44" on="0"/>
        <pt x="320" y="1" on="1"/>
        <pt x="287" y="160" on="1"/>
        <pt x="152" y="160" on="1"/>
        <pt x="123" y="19" on="1"/>
        <pt x="120" y="7" on="0"/>
        <pt x="103" y="-2" on="0"/>
        <pt x="72" y="-2" on="1"/>
        <pt x="37" y="-2" on="0"/>
        <pt x="2" y="2" on="1"/>
        <pt x="169" y="681" on="1"/>
      </contour>
      <contour>
        <pt x="231" y="426" on="0"/>
        <pt x="220" y="543" on="1"/>
        <pt x="206" y="416" on="0"/>
        <pt x="193" y="354" on="1"/>
        <pt x="173" y="260" on="1"/>
        <pt x="266" y="260" on="1"/>
        <pt x="246" y="354" on="1"/>
      </contour>
    </TTGlyph>
    <TTGlyph name="Aring" xMin="2" yMin="-2" xMax="434" yMax="938">
      <component glyphName=".ttfautohint" x="2" y="0" flags="0x0"/>
      <component glyphName="A" x="0" y="0" flags="0x1000"/>
      <component glyphName="ring" x="79" y="200" flags="0x1000"/>
    </TTGlyph>
    <TTGlyph name="Atilde" xMin="2" yMin="-2" xMax="434" yMax="894">
      <component glyphName=".ttfautohint" x="2" y="0" flags="0x0"/>
      <component glyphName="A" x="0" y="0" flags="0x1000"/>
      <component glyphName="tilde" x="79" y="200" flags="0x1000"/>
    </TTGlyph>
    <TTGlyph name="B" xMin="30" yMin="0" xMax="348" yMax="700">
      <contour>
        <pt x="30" y="700" on="0"/>
        <pt x="58" y="700" on="1"/>
        <pt x="156" y="700" on="1"/>
        <pt x="325" y="700" on="0"/>
        <pt x="325" y="543" on="1"/>
        <pt x="325" y="472" on="0"/>
        <pt x="270" y="388" on="0"/>
        <pt x="233" y="383" on="1"/>
        <pt x="348" y="371" on="0"/>
        <pt x="348" y="238" on="1"/>
        <pt x="348" y="131" on="0"/>
        <pt x="256" y="0" on="0"/>
        <pt x="161" y="0" on="1"/>
        <pt x="30" y="0" on="1"/>
        <pt x="30" y="680" on="1"/>
      </contour>
      <contour>
        <pt x="182" y="424" on="0"/>
        <pt x="203" y="476" on="0"/>
        <pt x="203" y="519" on="1"/>
        <pt x="203" y="603" on="0"/>
        <pt x="167" y="603" on="1"/>
        <pt x="143" y="603" on="1"/>
        <pt x="143" y="424" on="1"/>
        <pt x="163" y="424" on="1"/>
      </contour>
      <contour>
        <pt x="188" y="96" on="0"/>
        <pt x="216" y="166" on="0"/>
        <pt x="216" y="228" on="1"/>
        <pt x="216" y="272" on="0"/>
        <pt x="205" y="316" on="0"/>
        <pt x="184" y="330" on="0"/>
        <pt x="166" y="330" on="1"/>
        <pt x="143" y="330" on="1"/>
        <pt x="143" y="96" on="1"/>
        <pt x="164" y="96" on="1"/>
      </contour>
    </TTGlyph>
    <TTGlyph name="C" xMin="20" yMin="-10" xMax="315" yMax="710">
      <contour>
        <pt x="278" y="710" on="0"/>
        <pt x="315" y="679" on="0"/>
        <pt x="315" y="651" on="1"/>
        <pt x="315" y="618" on="0"/>
        <pt x="299" y="584" on="1"/>
        <pt x="276" y="601" on="0"/>
        <pt x="247" y="601" on="1"/>
        <pt x="197" y="601" on="0"/>
        <pt x="137" y="486" on="0"/>
        <pt x="137" y="336" on="1"/>
        <pt x="137" y="249" on="0"/>
        <pt x="153" y="153" on="0"/>
        <pt x="187" y="114" on="0"/>
        <pt x="216" y="114" on="1"/>
        <pt x="266" y="114" on="0"/>
        <pt x="294" y="129" on="1"/>
        <pt x="309" y="99" on="0"/>
        <pt x="309" y="64" on="1"/>
        <pt x="309" y="29" on="0"/>
        <pt x="244" y="-10" on="0"/>
        <pt x="187" y="-10" on="1"/>
        <pt x="127" y="-10" on="0"/>
        <pt x="56" y="44" on="0"/>
        <pt x="20" y="189" on="0"/>
        <pt x="20" y="327" on="1"/>
        <pt x="20" y="710" on="0"/>
        <pt x="220" y="710" on="1"/>
      </contour>
    </TTGlyph>
    <TTGlyph name="Cacute" xMin="20" yMin="-10" xMax="315" yMax="928">
      <component glyphName=".ttfautohint" x="20" y="0" flags="0x0"/>
      <component glyphName="C" x="0" y="0" flags="0x1000"/>
      <component glyphName="acute" x="63" y="200" flags="0x1000"/>
    </TTGlyph>
    <TTGlyph name="Ccaron" xMin="20" yMin="-10" xMax="315" yMax="920">
      <component glyphName=".ttfautohint" x="20" y="0" flags="0x0"/>
      <component glyphName="C" x="0" y="0" flags="0x1000"/>
      <component glyphName="caron" x="53" y="200" flags="0x1000"/>
    </TTGlyph>
    <TTGlyph name="Ccedilla" xMin="20" yMin="-221" xMax="315" yMax="710">
      <contour>
        <pt x="109" y="-3" on="0"/>
        <pt x="50" y="59" on="0"/>
        <pt x="20" y="202" on="0"/>
        <pt x="20" y="327" on="1"/>
        <pt x="20" y="710" on="0"/>
        <pt x="220" y="710" on="1"/>
        <pt x="278" y="710" on="0"/>
        <pt x="315" y="679" on="0"/>
        <pt x="315" y="651" on="1"/>
        <pt x="315" y="618" on="0"/>
        <pt x="299" y="584" on="1"/>
        <pt x="276" y="601" on="0"/>
        <pt x="247" y="601" on="1"/>
        <pt x="197" y="601" on="0"/>
        <pt x="137" y="486" on="0"/>
        <pt x="137" y="336" on="1"/>
        <pt x="137" y="249" on="0"/>
        <pt x="153" y="153" on="0"/>
        <pt x="187" y="114" on="0"/>
        <pt x="216" y="114" on="1"/>
        <pt x="266" y="114" on="0"/>
        <pt x="294" y="129" on="1"/>
        <pt x="309" y="99" on="0"/>
        <pt x="309" y="64" on="1"/>
        <pt x="309" y="33" on="0"/>
        <pt x="259" y="-4" on="0"/>
        <pt x="213" y="-9" on="1"/>
        <pt x="204" y="-57" on="1"/>
        <pt x="220" y="-57" on="1"/>
        <pt x="241" y="-57" on="0"/>
        <pt x="271" y="-93" on="0"/>
        <pt x="271" y="-128" on="1"/>
        <pt x="271" y="-167" on="0"/>
        <pt x="222" y="-221" on="0"/>
        <pt x="181" y="-221" on="1"/>
        <pt x="166" y="-221" on="0"/>
        <pt x="140" y="-214" on="0"/>
        <pt x="124" y="-207" on="0"/>
        <pt x="122" y="-206" on="1"/>
        <pt x="123" y="-199" on="0"/>
        <pt x="134" y="-159" on="0"/>
        <pt x="138" y="-155" on="1"/>
        <pt x="141" y="-152" on="0"/>
        <pt x="158" y="-161" on="0"/>
        <pt x="174" y="-168" on="0"/>
        <pt x="183" y="-168" on="1"/>
        <pt x="212" y="-168" on="0"/>
        <pt x="212" y="-136" on="1"/>
        <pt x="212" y="-104" on="0"/>
        <pt x="185" y="-104" on="1"/>
        <pt x="166" y="-104" on="0"/>
        <pt x="144" y="-109" on="0"/>
        <pt x="141" y="-110" on="1"/>
        <pt x="158" y="-8" on="1"/>
      </contour>
    </TTGlyph>
    <TTGlyph name="D" xMin="30" yMin="0" xMax="350" yMax="700">
      <contour>
        <pt x="225" y="700" on="0"/>
        <pt x="308" y="648" on="0"/>
        <pt x="350" y="511" on="0"/>
        <pt x="350" y="385" on="1"/>
        <pt x="350" y="183" on="0"/>
        <pt x="260" y="0" on="0"/>
        <pt x="159" y="0" on="1"/>
        <pt x="30" y="0" on="1"/>
        <pt x="30" y="680" on="1"/>
        <pt x="30" y="700" on="0"/>
        <pt x="58" y="700" on="1"/>
        <pt x="154" y="700" on="1"/>
      </contour>
      <contour>
        <pt x="181" y="105" on="0"/>
        <pt x="207" y="148" on="0"/>
        <pt x="223" y="277" on="0"/>
        <pt x="223" y="397" on="1"/>
        <pt x="223" y="483" on="0"/>
        <pt x="208" y="570" on="0"/>
        <pt x="182" y="599" on="0"/>
        <pt x="161" y="599" on="1"/>
        <pt x="141" y="599" on="1"/>
        <pt x="141" y="105" on="1"/>
        <pt x="162" y="105" on="1"/>
      </contour>
    </TTGlyph>
    <TTGlyph name="Dcaron" xMin="30" yMin="0" xMax="350" yMax="920">
      <component glyphName=".ttfautohint" x="30" y="0" flags="0x0"/>
      <component glyphName="D" x="0" y="0" flags="0x1000"/>
      <component glyphName="caron" x="32" y="200" flags="0x1000"/>
    </TTGlyph>
    <TTGlyph name="Dcroat" xMin="30" yMin="0" xMax="350" yMax="872">
      <component glyphName=".ttfautohint" x="30" y="0" flags="0x0"/>
      <component glyphName="D" x="0" y="0" flags="0x1000"/>
      <component glyphName="macron" x="32" y="200" flags="0x1000"/>
    </TTGlyph>
    <TTGlyph name="Delta" xMin="19" yMin="0" xMax="393" yMax="704">
      <contour>
        <pt x="152" y="704" on="0"/>
        <pt x="214" y="704" on="1"/>
        <pt x="252" y="704" on="0"/>
        <pt x="274" y="686" on="1"/>
        <pt x="393" y="0" on="1"/>
        <pt x="19" y="0" on="1"/>
        <pt x="140" y="636" on="1"/>
      </contour>
      <contour>
        <pt x="212" y="557" on="1"/>
        <pt x="207" y="557" on="1"/>
        <pt x="142" y="104" on="1"/>
        <pt x="274" y="104" on="1"/>
      </contour>
    </TTGlyph>
    <TTGlyph name="E" xMin="30" yMin="0" xMax="290" yMax="700">
      <contour>
        <pt x="283" y="99" on="1"/>
        <pt x="283" y="59" on="0"/>
        <pt x="281" y="11" on="0"/>
        <pt x="274" y="0" on="0"/>
        <pt x="264" y="0" on="1"/>
        <pt x="30" y="0" on="1"/>
        <pt x="30" y="680" on="1"/>
        <pt x="30" y="685" on="0"/>
        <pt x="38" y="700" on="0"/>
        <pt x="50" y="700" on="1"/>
        <pt x="290" y="700" on="1"/>
        <pt x="290" y="662" on="0"/>
        <pt x="288" y="614" on="0"/>
        <pt x="280" y="601" on="0"/>
        <pt x="270" y="601" on="1"/>
        <pt x="141" y="601" on="1"/>
        <pt x="141" y="430" on="1"/>
        <pt x="263" y="430" on="1"/>
        <pt x="263" y="393" on="0"/>
        <pt x="261" y="344" on="0"/>
        <pt x="254" y="328" on="0"/>
        <pt x="245" y="328" on="1"/>
        <pt x="141" y="328" on="1"/>
        <pt x="141" y="99" on="1"/>
      </contour>
    </TTGlyph>
    <TTGlyph name="Eacute" xMin="30" yMin="0" xMax="290" yMax="928">
      <component glyphName=".ttfautohint" x="30" y="0" flags="0x0"/>
      <component glyphName="E" x="0" y="0" flags="0x1000"/>
      <component glyphName="acute" x="26" y="200" flags="0x1000"/>
    </TTGlyph>
    <TTGlyph name="Ecaron" xMin="30" yMin="0" xMax="290" yMax="920">
      <component glyphName=".ttfautohint" x="30" y="0" flags="0x0"/>
      <component glyphName="E" x="0" y="0" flags="0x1000"/>
      <component glyphName="caron" x="15" y="200" flags="0x1000"/>
    </TTGlyph>
    <TTGlyph name="Ecircumflex" xMin="22" yMin="0" xMax="290" yMax="917">
      <component glyphName=".ttfautohint" x="22" y="0" flags="0x0"/>
      <component glyphName="E" x="0" y="0" flags="0x1000"/>
      <component glyphName="circumflex" x="16" y="200" flags="0x1000"/>
    </TTGlyph>
    <TTGlyph name="Edieresis" xMin="30" yMin="0" xMax="290" yMax="900">
      <component glyphName=".ttfautohint" x="30" y="0" flags="0x0"/>
      <component glyphName="E" x="0" y="0" flags="0x1000"/>
      <component glyphName="dieresis" x="16" y="200" flags="0x1000"/>
    </TTGlyph>
    <TTGlyph name="Edotaccent" xMin="30" yMin="0" xMax="290" yMax="904">
      <component glyphName=".ttfautohint" x="30" y="0" flags="0x0"/>
      <component glyphName="E" x="0" y="0" flags="0x1000"/>
      <component glyphName="dotaccent" x="16" y="200" flags="0x1000"/>
    </TTGlyph>
    <TTGlyph name="Egrave" xMin="30" yMin="0" xMax="290" yMax="918">
      <component glyphName=".ttfautohint" x="30" y="0" flags="0x0"/>
      <component glyphName="E" x="0" y="0" flags="0x1000"/>
      <component glyphName="grave" x="26" y="200" flags="0x1000"/>
    </TTGlyph>
    <TTGlyph name="Emacron" xMin="15" yMin="0" xMax="297" yMax="872">
      <component glyphName=".ttfautohint" x="15" y="0" flags="0x0"/>
      <component glyphName="E" x="0" y="0" flags="0x1000"/>
      <component glyphName="macron" x="16" y="200" flags="0x1000"/>
    </TTGlyph>
    <TTGlyph name="Eogonek" xMin="30" yMin="-195" xMax="290" yMax="700">
      <contour>
        <pt x="283" y="61" on="0"/>
        <pt x="281" y="15" on="0"/>
        <pt x="275" y="2" on="0"/>
        <pt x="267" y="-5" on="1"/>
        <pt x="247" y="-21" on="0"/>
        <pt x="215" y="-67" on="0"/>
        <pt x="215" y="-90" on="1"/>
        <pt x="215" y="-118" on="0"/>
        <pt x="240" y="-118" on="1"/>
        <pt x="255" y="-118" on="0"/>
        <pt x="266" y="-111" on="1"/>
        <pt x="276" y="-131" on="0"/>
        <pt x="276" y="-154" on="1"/>
        <pt x="276" y="-195" on="0"/>
        <pt x="206" y="-195" on="1"/>
        <pt x="117" y="-195" on="0"/>
        <pt x="117" y="-106" on="1"/>
        <pt x="117" y="-47" on="0"/>
        <pt x="164" y="0" on="1"/>
        <pt x="30" y="0" on="1"/>
        <pt x="30" y="680" on="1"/>
        <pt x="30" y="685" on="0"/>
        <pt x="38" y="700" on="0"/>
        <pt x="50" y="700" on="1"/>
        <pt x="290" y="700" on="1"/>
        <pt x="290" y="662" on="0"/>
        <pt x="288" y="614" on="0"/>
        <pt x="280" y="601" on="0"/>
        <pt x="270" y="601" on="1"/>
        <pt x="141" y="601" on="1"/>
        <pt x="141" y="430" on="1"/>
        <pt x="263" y="430" on="1"/>
        <pt x="263" y="393" on="0"/>
        <pt x="261" y="344" on="0"/>
        <pt x="254" y="328" on="0"/>
        <pt x="245" y="328" on="1"/>
        <pt x="141" y="328" on="1"/>
        <pt x="141" y="99" on="1"/>
        <pt x="283" y="99" on="1"/>
      </contour>
    </TTGlyph>
    <TTGlyph name="Eth" xMin="-4" yMin="0" xMax="350" yMax="700">
      <contour>
        <pt x="224" y="700" on="0"/>
        <pt x="308" y="649" on="0"/>
        <pt x="350" y="518" on="0"/>
        <pt x="350" y="397" on="1"/>
        <pt x="350" y="256" on="0"/>
        <pt x="311" y="82" on="0"/>
        <pt x="227" y="0" on="0"/>
        <pt x="159" y="0" on="1"/>
        <pt x="30" y="0" on="1"/>
        <pt x="30" y="315" on="1"/>
        <pt x="-4" y="315" on="1"/>
        <pt x="-4" y="372" on="0"/>
        <pt x="2" y="411" on="0"/>
        <pt x="16" y="411" on="1"/>
        <pt x="30" y="411" on="1"/>
        <pt x="30" y="680" on="1"/>
        <pt x="30" y="700" on="0"/>
        <pt x="58" y="700" on="1"/>
        <pt x="154" y="700" on="1"/>
      </contour>
      <contour>
        <pt x="181" y="105" on="0"/>
        <pt x="207" y="148" on="0"/>
        <pt x="223" y="277" on="0"/>
        <pt x="223" y="397" on="1"/>
        <pt x="223" y="483" on="0"/>
        <pt x="208" y="570" on="0"/>
        <pt x="182" y="599" on="0"/>
        <pt x="161" y="599" on="1"/>
        <pt x="141" y="599" on="1"/>
        <pt x="141" y="411" on="1"/>
        <pt x="192" y="411" on="1"/>
        <pt x="192" y="354" on="0"/>
        <pt x="186" y="315" on="0"/>
        <pt x="173" y="315" on="1"/>
        <pt x="141" y="315" on="1"/>
        <pt x="141" y="105" on="1"/>
        <pt x="162" y="105" on="1"/>
      </contour>
    </TTGlyph>
    <TTGlyph name="Euro" xMin="10" yMin="-9" xMax="391" yMax="607">
      <contour>
        <pt x="221" y="133" on="0"/>
        <pt x="252" y="99" on="0"/>
        <pt x="285" y="99" on="1"/>
        <pt x="336" y="99" on="0"/>
        <pt x="363" y="112" on="1"/>
        <pt x="377" y="84" on="0"/>
        <pt x="377" y="44" on="1"/>
        <pt x="377" y="24" on="0"/>
        <pt x="312" y="-9" on="0"/>
        <pt x="262" y="-9" on="1"/>
        <pt x="210" y="-9" on="0"/>
        <pt x="144" y="22" on="0"/>
        <pt x="103" y="106" on="0"/>
        <pt x="96" y="184" on="1"/>
        <pt x="10" y="184" on="1"/>
        <pt x="10" y="237" on="0"/>
        <pt x="25" y="276" on="0"/>
        <pt x="51" y="276" on="1"/>
        <pt x="92" y="276" on="1"/>
        <pt x="92" y="278" on="1"/>
        <pt x="93" y="324" on="1"/>
        <pt x="10" y="324" on="1"/>
        <pt x="10" y="377" on="0"/>
        <pt x="25" y="416" on="0"/>
        <pt x="51" y="416" on="1"/>
        <pt x="104" y="416" on="1"/>
        <pt x="140" y="607" on="0"/>
        <pt x="289" y="607" on="1"/>
        <pt x="345" y="607" on="0"/>
        <pt x="391" y="581" on="0"/>
        <pt x="391" y="564" on="1"/>
        <pt x="391" y="515" on="0"/>
        <pt x="375" y="491" on="1"/>
        <pt x="367" y="497" on="0"/>
        <pt x="333" y="506" on="0"/>
        <pt x="317" y="506" on="1"/>
        <pt x="253" y="506" on="0"/>
        <pt x="226" y="416" on="1"/>
        <pt x="344" y="416" on="1"/>
        <pt x="344" y="363" on="0"/>
        <pt x="329" y="324" on="0"/>
        <pt x="303" y="324" on="1"/>
        <pt x="212" y="324" on="1"/>
        <pt x="211" y="285" on="1"/>
        <pt x="211" y="276" on="1"/>
        <pt x="316" y="276" on="1"/>
        <pt x="316" y="223" on="0"/>
        <pt x="301" y="184" on="0"/>
        <pt x="275" y="184" on="1"/>
        <pt x="215" y="184" on="1"/>
      </contour>
    </TTGlyph>
    <TTGlyph name="F" xMin="30" yMin="0" xMax="290" yMax="700">
      <contour>
        <pt x="290" y="662" on="0"/>
        <pt x="288" y="616" on="0"/>
        <pt x="281" y="606" on="0"/>
        <pt x="270" y="606" on="1"/>
        <pt x="141" y="606" on="1"/>
        <pt x="141" y="430" on="1"/>
        <pt x="263" y="430" on="1"/>
        <pt x="263" y="393" on="0"/>
        <pt x="261" y="344" on="0"/>
        <pt x="254" y="329" on="0"/>
        <pt x="245" y="329" on="1"/>
        <pt x="141" y="329" on="1"/>
        <pt x="141" y="20" on="1"/>
        <pt x="142" y="18" on="1"/>
        <pt x="142" y="0" on="0"/>
        <pt x="124" y="0" on="1"/>
        <pt x="30" y="0" on="1"/>
        <pt x="30" y="680" on="1"/>
        <pt x="30" y="685" on="0"/>
        <pt x="38" y="700" on="0"/>
        <pt x="50" y="700" on="1"/>
        <pt x="290" y="700" on="1"/>
      </contour>
    </TTGlyph>
    <TTGlyph name="G" xMin="20" yMin="-10" xMax="349" yMax="710">
      <contour>
        <pt x="301" y="-10" on="0"/>
        <pt x="210" y="-10" on="1"/>
        <pt x="133" y="-10" on="0"/>
        <pt x="53" y="47" on="0"/>
        <pt x="20" y="190" on="0"/>
        <pt x="20" y="327" on="1"/>
        <pt x="20" y="483" on="0"/>
        <pt x="70" y="650" on="0"/>
        <pt x="164" y="710" on="0"/>
        <pt x="240" y="710" on="1"/>
        <pt x="291" y="710" on="0"/>
        <pt x="349" y="676" on="0"/>
        <pt x="349" y="652" on="1"/>
        <pt x="349" y="621" on="0"/>
        <pt x="335" y="581" on="1"/>
        <pt x="310" y="601" on="0"/>
        <pt x="264" y="601" on="1"/>
        <pt x="214" y="601" on="0"/>
        <pt x="160" y="549" on="0"/>
        <pt x="140" y="437" on="0"/>
        <pt x="140" y="336" on="1"/>
        <pt x="140" y="234" on="0"/>
        <pt x="153" y="133" on="0"/>
        <pt x="183" y="99" on="0"/>
        <pt x="212" y="99" on="1"/>
        <pt x="237" y="99" on="0"/>
        <pt x="245" y="109" on="1"/>
        <pt x="245" y="333" on="1"/>
        <pt x="198" y="333" on="1"/>
        <pt x="198" y="405" on="1"/>
        <pt x="198" y="425" on="0"/>
        <pt x="222" y="425" on="1"/>
        <pt x="348" y="425" on="1"/>
        <pt x="348" y="21" on="1"/>
      </contour>
    </TTGlyph>
    <TTGlyph name="Gamma" xMin="45" yMin="0" xMax="297" yMax="700">
      <component glyphName=".ttfautohint" x="45" y="0" flags="0x0"/>
      <component glyphName="uni0413" x="0" y="0" flags="0x1000"/>
    </TTGlyph>
    <TTGlyph name="Gbreve" xMin="20" yMin="-10" xMax="355" yMax="917">
      <component glyphName=".ttfautohint" x="20" y="0" flags="0x0"/>
      <component glyphName="G" x="0" y="0" flags="0x1000"/>
      <component glyphName="breve" x="77" y="200" flags="0x1000"/>
    </TTGlyph>
    <TTGlyph name="Gcommaaccent" xMin="20" yMin="-266" xMax="349" yMax="710">
      <component glyphName=".ttfautohint" x="20" y="0" flags="0x0"/>
      <component glyphName="G" x="0" y="0" flags="0x1000"/>
      <component glyphName="commaaccentcomb" x="69" y="0" flags="0x1000"/>
    </TTGlyph>
    <TTGlyph name="H" xMin="31" yMin="0" xMax="351" yMax="700">
      <contour>
        <pt x="351" y="9" on="0"/>
        <pt x="342" y="2" on="0"/>
        <pt x="287" y="0" on="0"/>
        <pt x="240" y="0" on="1"/>
        <pt x="240" y="321" on="1"/>
        <pt x="142" y="321" on="1"/>
        <pt x="142" y="20" on="1"/>
        <pt x="142" y="9" on="0"/>
        <pt x="133" y="2" on="0"/>
        <pt x="78" y="0" on="0"/>
        <pt x="31" y="0" on="1"/>
        <pt x="31" y="680" on="1"/>
        <pt x="31" y="691" on="0"/>
        <pt x="40" y="698" on="0"/>
        <pt x="95" y="700" on="0"/>
        <pt x="142" y="700" on="1"/>
        <pt x="142" y="425" on="1"/>
        <pt x="240" y="425" on="1"/>
        <pt x="240" y="680" on="1"/>
        <pt x="240" y="691" on="0"/>
        <pt x="249" y="698" on="0"/>
        <pt x="304" y="700" on="0"/>
        <pt x="351" y="700" on="1"/>
        <pt x="351" y="20" on="1"/>
      </contour>
    </TTGlyph>
    <TTGlyph name="I" xMin="30" yMin="0" xMax="143" yMax="700">
      <contour>
        <pt x="30" y="678" on="0"/>
        <pt x="41" y="696" on="0"/>
        <pt x="81" y="700" on="0"/>
        <pt x="143" y="700" on="1"/>
        <pt x="143" y="20" on="1"/>
        <pt x="143" y="9" on="0"/>
        <pt x="133" y="2" on="0"/>
        <pt x="77" y="0" on="0"/>
        <pt x="30" y="0" on="1"/>
        <pt x="30" y="651" on="1"/>
      </contour>
    </TTGlyph>
    <TTGlyph name="IJ" xMin="30" yMin="-9" xMax="445" yMax="700">
      <component glyphName=".ttfautohint" x="30" y="0" flags="0x0"/>
      <component glyphName="I" x="0" y="0" flags="0x1000"/>
      <component glyphName="J" x="174" y="0" flags="0x1000"/>
    </TTGlyph>
    <TTGlyph name="Iacute" xMin="6" yMin="0" xMax="188" yMax="928">
      <component glyphName=".ttfautohint" x="6" y="0" flags="0x0"/>
      <component glyphName="I" x="0" y="0" flags="0x1000"/>
      <component glyphName="acute" x="-43" y="200" flags="0x1000"/>
    </TTGlyph>
    <TTGlyph name="Icircumflex" xMin="-47" yMin="0" xMax="221" yMax="917">
      <component glyphName=".ttfautohint" x="0" y="0" flags="0x0"/>
      <component glyphName="I" x="0" y="0" flags="0x1000"/>
      <component glyphName="circumflex" x="-53" y="200" flags="0x1000"/>
    </TTGlyph>
    <TTGlyph name="Idieresis" xMin="-32" yMin="0" xMax="205" yMax="900">
      <component glyphName=".ttfautohint" x="0" y="0" flags="0x0"/>
      <component glyphName="I" x="0" y="0" flags="0x1000"/>
      <component glyphName="dieresis" x="-53" y="200" flags="0x1000"/>
    </TTGlyph>
    <TTGlyph name="Idotaccent" xMin="30" yMin="0" xMax="143" yMax="904">
      <component glyphName=".ttfautohint" x="30" y="0" flags="0x0"/>
      <component glyphName="I" x="0" y="0" flags="0x1000"/>
      <component glyphName="dotaccent" x="-53" y="200" flags="0x1000"/>
    </TTGlyph>
    <TTGlyph name="Igrave" xMin="6" yMin="0" xMax="188" yMax="918">
      <component glyphName=".ttfautohint" x="6" y="0" flags="0x0"/>
      <component glyphName="I" x="0" y="0" flags="0x1000"/>
      <component glyphName="grave" x="-43" y="200" flags="0x1000"/>
    </TTGlyph>
    <TTGlyph name="Imacron" xMin="-54" yMin="0" xMax="228" yMax="872">
      <component glyphName=".ttfautohint" x="0" y="0" flags="0x0"/>
      <component glyphName="I" x="0" y="0" flags="0x1000"/>
      <component glyphName="macron" x="-53" y="200" flags="0x1000"/>
    </TTGlyph>
    <TTGlyph name="Iogonek" xMin="-13" yMin="-195" xMax="147" yMax="700">
      <contour>
        <pt x="143" y="8" on="0"/>
        <pt x="132" y="-3" on="1"/>
        <pt x="85" y="-53" on="0"/>
        <pt x="85" y="-91" on="1"/>
        <pt x="85" y="-118" on="0"/>
        <pt x="111" y="-118" on="1"/>
        <pt x="126" y="-118" on="0"/>
        <pt x="136" y="-111" on="1"/>
        <pt x="147" y="-133" on="0"/>
        <pt x="147" y="-154" on="1"/>
        <pt x="147" y="-195" on="0"/>
        <pt x="79" y="-195" on="1"/>
        <pt x="-13" y="-195" on="0"/>
        <pt x="-13" y="-110" on="1"/>
        <pt x="-13" y="-78" on="0"/>
        <pt x="9" y="-30" on="0"/>
        <pt x="30" y="0" on="1"/>
        <pt x="30" y="651" on="1"/>
        <pt x="30" y="678" on="0"/>
        <pt x="41" y="696" on="0"/>
        <pt x="81" y="700" on="0"/>
        <pt x="143" y="700" on="1"/>
        <pt x="143" y="20" on="1"/>
      </contour>
    </TTGlyph>
    <TTGlyph name="J" xMin="10" yMin="-9" xMax="271" yMax="700">
      <contour>
        <pt x="158" y="678" on="0"/>
        <pt x="168" y="696" on="0"/>
        <pt x="208" y="700" on="0"/>
        <pt x="271" y="700" on="1"/>
        <pt x="271" y="161" on="1"/>
        <pt x="271" y="75" on="0"/>
        <pt x="201" y="-9" on="0"/>
        <pt x="121" y="-9" on="1"/>
        <pt x="56" y="-9" on="0"/>
        <pt x="10" y="27" on="0"/>
        <pt x="10" y="58" on="1"/>
        <pt x="10" y="83" on="0"/>
        <pt x="25" y="118" on="1"/>
        <pt x="64" y="89" on="0"/>
        <pt x="105" y="89" on="1"/>
        <pt x="128" y="89" on="0"/>
        <pt x="150" y="104" on="0"/>
        <pt x="158" y="143" on="0"/>
        <pt x="158" y="183" on="1"/>
        <pt x="158" y="651" on="1"/>
      </contour>
    </TTGlyph>
    <TTGlyph name="K" xMin="28" yMin="-2" xMax="373" yMax="701">
      <contour>
        <pt x="288" y="701" on="0"/>
        <pt x="323" y="701" on="1"/>
        <pt x="373" y="701" on="0"/>
        <pt x="373" y="682" on="1"/>
        <pt x="373" y="679" on="0"/>
        <pt x="371" y="673" on="1"/>
        <pt x="255" y="401" on="1"/>
        <pt x="310" y="351" on="0"/>
        <pt x="365" y="155" on="0"/>
        <pt x="365" y="21" on="1"/>
        <pt x="365" y="7" on="0"/>
        <pt x="348" y="-2" on="0"/>
        <pt x="319" y="-2" on="1"/>
        <pt x="281" y="-2" on="0"/>
        <pt x="239" y="1" on="1"/>
        <pt x="238" y="111" on="0"/>
        <pt x="211" y="262" on="0"/>
        <pt x="172" y="306" on="1"/>
        <pt x="158" y="321" on="0"/>
        <pt x="141" y="329" on="1"/>
        <pt x="141" y="20" on="1"/>
        <pt x="141" y="9" on="0"/>
        <pt x="131" y="2" on="0"/>
        <pt x="76" y="0" on="0"/>
        <pt x="28" y="0" on="1"/>
        <pt x="28" y="680" on="1"/>
        <pt x="28" y="691" on="0"/>
        <pt x="38" y="698" on="0"/>
        <pt x="93" y="700" on="0"/>
        <pt x="141" y="700" on="1"/>
        <pt x="141" y="413" on="1"/>
        <pt x="252" y="693" on="1"/>
      </contour>
    </TTGlyph>
    <TTGlyph name="Kcommaaccent" xMin="28" yMin="-266" xMax="373" yMax="701">
      <component glyphName=".ttfautohint" x="28" y="0" flags="0x0"/>
      <component glyphName="K" x="0" y="0" flags="0x1000"/>
      <component glyphName="commaaccentcomb" x="54" y="0" flags="0x1000"/>
    </TTGlyph>
    <TTGlyph name="L" xMin="30" yMin="0" xMax="283" yMax="700">
      <contour>
        <pt x="283" y="20" on="1"/>
        <pt x="283" y="0" on="0"/>
        <pt x="264" y="0" on="1"/>
        <pt x="30" y="0" on="1"/>
        <pt x="30" y="672" on="1"/>
        <pt x="30" y="687" on="0"/>
        <pt x="41" y="698" on="0"/>
        <pt x="80" y="700" on="0"/>
        <pt x="141" y="700" on="1"/>
        <pt x="141" y="104" on="1"/>
        <pt x="283" y="104" on="1"/>
      </contour>
    </TTGlyph>
    <TTGlyph name="Lacute" xMin="9" yMin="0" xMax="283" yMax="928">
      <component glyphName=".ttfautohint" x="9" y="0" flags="0x0"/>
      <component glyphName="L" x="0" y="0" flags="0x1000"/>
      <component glyphName="acute" x="-40" y="200" flags="0x1000"/>
    </TTGlyph>
    <TTGlyph name="Lcaron" xMin="30" yMin="0" xMax="326" yMax="700">
      <contour>
        <pt x="283" y="20" on="1"/>
        <pt x="283" y="0" on="0"/>
        <pt x="264" y="0" on="1"/>
        <pt x="30" y="0" on="1"/>
        <pt x="30" y="672" on="1"/>
        <pt x="30" y="687" on="0"/>
        <pt x="41" y="698" on="0"/>
        <pt x="80" y="700" on="0"/>
        <pt x="141" y="700" on="1"/>
        <pt x="141" y="104" on="1"/>
        <pt x="283" y="104" on="1"/>
      </contour>
      <contour>
        <pt x="192" y="642" on="0"/>
        <pt x="228" y="680" on="0"/>
        <pt x="255" y="680" on="1"/>
        <pt x="326" y="680" on="0"/>
        <pt x="326" y="607" on="1"/>
        <pt x="326" y="569" on="0"/>
        <pt x="291" y="497" on="0"/>
        <pt x="246" y="451" on="0"/>
        <pt x="234" y="451" on="1"/>
        <pt x="199" y="451" on="0"/>
        <pt x="192" y="480" on="1"/>
        <pt x="208" y="506" on="0"/>
        <pt x="215" y="531" on="0"/>
        <pt x="219" y="556" on="1"/>
        <pt x="192" y="571" on="0"/>
        <pt x="192" y="615" on="1"/>
      </contour>
    </TTGlyph>
    <TTGlyph name="Lcommaaccent" xMin="30" yMin="-266" xMax="283" yMax="700">
      <component glyphName=".ttfautohint" x="30" y="0" flags="0x0"/>
      <component glyphName="L" x="0" y="0" flags="0x1000"/>
      <component glyphName="commaaccentcomb" x="9" y="0" flags="0x1000"/>
    </TTGlyph>
    <TTGlyph name="Ldot" xMin="30" yMin="0" xMax="302" yMax="700">
      <contour>
        <pt x="283" y="20" on="1"/>
        <pt x="283" y="0" on="0"/>
        <pt x="264" y="0" on="1"/>
        <pt x="30" y="0" on="1"/>
        <pt x="30" y="672" on="1"/>
        <pt x="30" y="687" on="0"/>
        <pt x="41" y="698" on="0"/>
        <pt x="80" y="700" on="0"/>
        <pt x="141" y="700" on="1"/>
        <pt x="141" y="104" on="1"/>
        <pt x="283" y="104" on="1"/>
      </contour>
      <contour>
        <pt x="161" y="356" on="0"/>
        <pt x="199" y="398" on="0"/>
        <pt x="232" y="398" on="1"/>
        <pt x="270" y="398" on="0"/>
        <pt x="302" y="361" on="0"/>
        <pt x="302" y="326" on="1"/>
        <pt x="302" y="296" on="0"/>
        <pt x="265" y="255" on="0"/>
        <pt x="232" y="255" on="1"/>
        <pt x="193" y="255" on="0"/>
        <pt x="161" y="290" on="0"/>
        <pt x="161" y="326" on="1"/>
      </contour>
    </TTGlyph>
    <TTGlyph name="Lslash" xMin="0" yMin="0" xMax="303" yMax="700">
      <contour>
        <pt x="303" y="20" on="1"/>
        <pt x="303" y="15" on="0"/>
        <pt x="296" y="0" on="0"/>
        <pt x="283" y="0" on="1"/>
        <pt x="50" y="0" on="1"/>
        <pt x="50" y="298" on="1"/>
        <pt x="13" y="289" on="1"/>
        <pt x="0" y="346" on="0"/>
        <pt x="0" y="364" on="1"/>
        <pt x="0" y="384" on="0"/>
        <pt x="13" y="388" on="1"/>
        <pt x="50" y="396" on="1"/>
        <pt x="50" y="672" on="1"/>
        <pt x="50" y="687" on="0"/>
        <pt x="61" y="698" on="0"/>
        <pt x="100" y="700" on="0"/>
        <pt x="161" y="700" on="1"/>
        <pt x="161" y="419" on="1"/>
        <pt x="243" y="437" on="1"/>
        <pt x="256" y="372" on="0"/>
        <pt x="256" y="361" on="1"/>
        <pt x="256" y="342" on="0"/>
        <pt x="244" y="340" on="1"/>
        <pt x="161" y="322" on="1"/>
        <pt x="161" y="104" on="1"/>
        <pt x="303" y="104" on="1"/>
      </contour>
    </TTGlyph>
    <TTGlyph name="M" xMin="30" yMin="0" xMax="447" yMax="700">
      <contour>
        <pt x="338" y="692" on="0"/>
        <pt x="345" y="700" on="0"/>
        <pt x="354" y="700" on="1"/>
        <pt x="447" y="700" on="1"/>
        <pt x="447" y="20" on="1"/>
        <pt x="447" y="9" on="0"/>
        <pt x="437" y="2" on="0"/>
        <pt x="381" y="0" on="0"/>
        <pt x="333" y="0" on="1"/>
        <pt x="338" y="192" on="1"/>
        <pt x="340" y="263" on="0"/>
        <pt x="353" y="396" on="0"/>
        <pt x="365" y="480" on="0"/>
        <pt x="367" y="491" on="1"/>
        <pt x="364" y="493" on="1"/>
        <pt x="327" y="346" on="0"/>
        <pt x="313" y="307" on="1"/>
        <pt x="265" y="174" on="1"/>
        <pt x="263" y="167" on="0"/>
        <pt x="254" y="167" on="1"/>
        <pt x="208" y="167" on="1"/>
        <pt x="161" y="307" on="1"/>
        <pt x="147" y="349" on="0"/>
        <pt x="112" y="493" on="1"/>
        <pt x="109" y="491" on="1"/>
        <pt x="111" y="480" on="0"/>
        <pt x="124" y="397" on="0"/>
        <pt x="137" y="265" on="0"/>
        <pt x="137" y="193" on="1"/>
        <pt x="140" y="20" on="1"/>
        <pt x="140" y="9" on="0"/>
        <pt x="128" y="2" on="0"/>
        <pt x="74" y="0" on="0"/>
        <pt x="30" y="0" on="1"/>
        <pt x="30" y="680" on="1"/>
        <pt x="30" y="693" on="0"/>
        <pt x="40" y="700" on="0"/>
        <pt x="50" y="700" on="1"/>
        <pt x="134" y="700" on="1"/>
        <pt x="214" y="452" on="1"/>
        <pt x="227" y="414" on="0"/>
        <pt x="240" y="358" on="0"/>
        <pt x="241" y="351" on="1"/>
        <pt x="242" y="358" on="0"/>
        <pt x="254" y="414" on="0"/>
        <pt x="265" y="450" on="1"/>
        <pt x="334" y="680" on="1"/>
      </contour>
    </TTGlyph>
    <TTGlyph name="N" xMin="30" yMin="0" xMax="400" yMax="700">
      <contour>
        <pt x="289" y="691" on="0"/>
        <pt x="300" y="698" on="0"/>
        <pt x="354" y="700" on="0"/>
        <pt x="400" y="700" on="1"/>
        <pt x="400" y="20" on="1"/>
        <pt x="400" y="0" on="0"/>
        <pt x="380" y="0" on="1"/>
        <pt x="294" y="0" on="1"/>
        <pt x="188" y="268" on="1"/>
        <pt x="159" y="341" on="0"/>
        <pt x="127" y="492" on="1"/>
        <pt x="141" y="368" on="0"/>
        <pt x="141" y="260" on="1"/>
        <pt x="141" y="20" on="1"/>
        <pt x="141" y="9" on="0"/>
        <pt x="131" y="2" on="0"/>
        <pt x="76" y="0" on="0"/>
        <pt x="30" y="0" on="1"/>
        <pt x="30" y="680" on="1"/>
        <pt x="30" y="700" on="0"/>
        <pt x="50" y="700" on="1"/>
        <pt x="138" y="700" on="1"/>
        <pt x="243" y="437" on="1"/>
        <pt x="268" y="374" on="0"/>
        <pt x="302" y="225" on="1"/>
        <pt x="289" y="346" on="0"/>
        <pt x="289" y="447" on="1"/>
        <pt x="289" y="680" on="1"/>
      </contour>
    </TTGlyph>
    <TTGlyph name="Nacute" xMin="30" yMin="0" xMax="400" yMax="928">
      <component glyphName=".ttfautohint" x="30" y="0" flags="0x0"/>
      <component glyphName="N" x="0" y="0" flags="0x1000"/>
      <component glyphName="acute" x="85" y="200" flags="0x1000"/>
    </TTGlyph>
    <TTGlyph name="Ncaron" xMin="30" yMin="0" xMax="400" yMax="920">
      <component glyphName=".ttfautohint" x="30" y="0" flags="0x0"/>
      <component glyphName="N" x="0" y="0" flags="0x1000"/>
      <component glyphName="caron" x="75" y="200" flags="0x1000"/>
    </TTGlyph>
    <TTGlyph name="Ncommaaccent" xMin="30" yMin="-266" xMax="400" yMax="700">
      <component glyphName=".ttfautohint" x="30" y="0" flags="0x0"/>
      <component glyphName="N" x="0" y="0" flags="0x1000"/>
      <component glyphName="commaaccentcomb" x="75" y="0" flags="0x1000"/>
    </TTGlyph>
    <TTGlyph name="Ntilde" xMin="30" yMin="0" xMax="400" yMax="894">
      <component glyphName=".ttfautohint" x="30" y="0" flags="0x0"/>
      <component glyphName="N" x="0" y="0" flags="0x1000"/>
      <component glyphName="tilde" x="75" y="200" flags="0x1000"/>
    </TTGlyph>
    <TTGlyph name="O" xMin="20" yMin="-10" xMax="389" yMax="710">
      <contour>
        <pt x="20" y="488" on="0"/>
        <pt x="61" y="644" on="0"/>
        <pt x="144" y="710" on="0"/>
        <pt x="211" y="710" on="1"/>
        <pt x="278" y="710" on="0"/>
        <pt x="354" y="648" on="0"/>
        <pt x="389" y="496" on="0"/>
        <pt x="389" y="358" on="1"/>
        <pt x="389" y="218" on="0"/>
        <pt x="349" y="58" on="0"/>
        <pt x="268" y="-10" on="0"/>
        <pt x="200" y="-10" on="1"/>
        <pt x="131" y="-10" on="0"/>
        <pt x="55" y="50" on="0"/>
        <pt x="20" y="206" on="0"/>
        <pt x="20" y="354" on="1"/>
      </contour>
      <contour>
        <pt x="147" y="244" on="0"/>
        <pt x="156" y="150" on="0"/>
        <pt x="181" y="105" on="0"/>
        <pt x="206" y="105" on="1"/>
        <pt x="231" y="105" on="0"/>
        <pt x="257" y="155" on="0"/>
        <pt x="267" y="260" on="0"/>
        <pt x="267" y="354" on="1"/>
        <pt x="267" y="451" on="0"/>
        <pt x="260" y="549" on="0"/>
        <pt x="235" y="595" on="0"/>
        <pt x="209" y="595" on="1"/>
        <pt x="185" y="595" on="0"/>
        <pt x="158" y="544" on="0"/>
        <pt x="147" y="430" on="0"/>
        <pt x="147" y="329" on="1"/>
      </contour>
    </TTGlyph>
    <TTGlyph name="OE" xMin="15" yMin="-8" xMax="539" yMax="709">
      <contour>
        <pt x="532" y="99" on="1"/>
        <pt x="532" y="59" on="0"/>
        <pt x="530" y="11" on="0"/>
        <pt x="523" y="0" on="0"/>
        <pt x="512" y="0" on="1"/>
        <pt x="299" y="0" on="1"/>
        <pt x="299" y="23" on="1"/>
        <pt x="261" y="-8" on="0"/>
        <pt x="195" y="-8" on="1"/>
        <pt x="127" y="-8" on="0"/>
        <pt x="50" y="53" on="0"/>
        <pt x="15" y="208" on="0"/>
        <pt x="15" y="352" on="1"/>
        <pt x="15" y="485" on="0"/>
        <pt x="55" y="641" on="0"/>
        <pt x="137" y="709" on="0"/>
        <pt x="203" y="709" on="1"/>
        <pt x="264" y="709" on="0"/>
        <pt x="300" y="684" on="1"/>
        <pt x="303" y="700" on="0"/>
        <pt x="319" y="700" on="1"/>
        <pt x="539" y="700" on="1"/>
        <pt x="539" y="662" on="0"/>
        <pt x="537" y="614" on="0"/>
        <pt x="529" y="601" on="0"/>
        <pt x="519" y="601" on="1"/>
        <pt x="390" y="601" on="1"/>
        <pt x="390" y="430" on="1"/>
        <pt x="512" y="430" on="1"/>
        <pt x="512" y="393" on="0"/>
        <pt x="510" y="344" on="0"/>
        <pt x="503" y="328" on="0"/>
        <pt x="493" y="328" on="1"/>
        <pt x="390" y="328" on="1"/>
        <pt x="390" y="99" on="1"/>
      </contour>
      <contour>
        <pt x="226" y="100" on="0"/>
        <pt x="252" y="152" on="0"/>
        <pt x="262" y="260" on="0"/>
        <pt x="262" y="354" on="1"/>
        <pt x="262" y="452" on="0"/>
        <pt x="254" y="554" on="0"/>
        <pt x="229" y="604" on="0"/>
        <pt x="202" y="604" on="1"/>
        <pt x="179" y="604" on="0"/>
        <pt x="153" y="549" on="0"/>
        <pt x="142" y="430" on="0"/>
        <pt x="142" y="329" on="1"/>
        <pt x="142" y="244" on="0"/>
        <pt x="151" y="148" on="0"/>
        <pt x="176" y="100" on="0"/>
        <pt x="201" y="100" on="1"/>
      </contour>
    </TTGlyph>
    <TTGlyph name="Oacute" xMin="20" yMin="-10" xMax="389" yMax="928">
      <component glyphName=".ttfautohint" x="20" y="0" flags="0x0"/>
      <component glyphName="O" x="0" y="0" flags="0x1000"/>
      <component glyphName="acute" x="75" y="200" flags="0x1000"/>
    </TTGlyph>
    <TTGlyph name="Ocircumflex" xMin="20" yMin="-10" xMax="389" yMax="917">
      <component glyphName=".ttfautohint" x="20" y="0" flags="0x0"/>
      <component glyphName="O" x="0" y="0" flags="0x1000"/>
      <component glyphName="circumflex" x="65" y="200" flags="0x1000"/>
    </TTGlyph>
    <TTGlyph name="Odieresis" xMin="20" yMin="-10" xMax="389" yMax="900">
      <component glyphName=".ttfautohint" x="20" y="0" flags="0x0"/>
      <component glyphName="O" x="0" y="0" flags="0x1000"/>
      <component glyphName="dieresis" x="65" y="200" flags="0x1000"/>
    </TTGlyph>
    <TTGlyph name="Ograve" xMin="20" yMin="-10" xMax="389" yMax="918">
      <component glyphName=".ttfautohint" x="20" y="0" flags="0x0"/>
      <component glyphName="O" x="0" y="0" flags="0x1000"/>
      <component glyphName="grave" x="75" y="200" flags="0x1000"/>
    </TTGlyph>
    <TTGlyph name="Ohm" xMin="23" yMin="0" xMax="383" yMax="710">
      <component glyphName=".ttfautohint" x="23" y="0" flags="0x0"/>
      <component glyphName="Omega" x="0" y="0" flags="0x1000"/>
    </TTGlyph>
    <TTGlyph name="Ohungarumlaut" xMin="20" yMin="-10" xMax="389" yMax="920">
      <component glyphName=".ttfautohint" x="20" y="0" flags="0x0"/>
      <component glyphName="O" x="0" y="0" flags="0x1000"/>
      <component glyphName="hungarumlaut" x="81" y="200" flags="0x1000"/>
    </TTGlyph>
    <TTGlyph name="Omacron" xMin="20" yMin="-10" xMax="389" yMax="872">
      <component glyphName=".ttfautohint" x="20" y="0" flags="0x0"/>
      <component glyphName="O" x="0" y="0" flags="0x1000"/>
      <component glyphName="macron" x="65" y="200" flags="0x1000"/>
    </TTGlyph>
    <TTGlyph name="Omega" xMin="23" yMin="0" xMax="383" yMax="710">
      <contour>
        <pt x="245" y="104" on="0"/>
        <pt x="267" y="246" on="0"/>
        <pt x="267" y="343" on="1"/>
        <pt x="267" y="476" on="0"/>
        <pt x="236" y="592" on="0"/>
        <pt x="204" y="592" on="1"/>
        <pt x="183" y="592" on="0"/>
        <pt x="156" y="560" on="0"/>
        <pt x="141" y="469" on="0"/>
        <pt x="141" y="383" on="1"/>
        <pt x="141" y="204" on="0"/>
        <pt x="186" y="0" on="1"/>
        <pt x="32" y="0" on="1"/>
        <pt x="23" y="25" on="0"/>
        <pt x="23" y="51" on="1"/>
        <pt x="23" y="70" on="0"/>
        <pt x="38" y="104" on="0"/>
        <pt x="57" y="104" on="1"/>
        <pt x="93" y="104" on="1"/>
        <pt x="67" y="142" on="0"/>
        <pt x="27" y="293" on="0"/>
        <pt x="27" y="395" on="1"/>
        <pt x="27" y="559" on="0"/>
        <pt x="116" y="710" on="0"/>
        <pt x="218" y="710" on="1"/>
        <pt x="280" y="710" on="0"/>
        <pt x="351" y="645" on="0"/>
        <pt x="381" y="510" on="0"/>
        <pt x="381" y="397" on="1"/>
        <pt x="381" y="290" on="0"/>
        <pt x="341" y="137" on="0"/>
        <pt x="316" y="104" on="1"/>
        <pt x="373" y="104" on="1"/>
        <pt x="383" y="78" on="0"/>
        <pt x="383" y="53" on="1"/>
        <pt x="383" y="33" on="0"/>
        <pt x="365" y="0" on="0"/>
        <pt x="346" y="0" on="1"/>
        <pt x="223" y="0" on="1"/>
      </contour>
    </TTGlyph>
    <TTGlyph name="Oslash" xMin="-3" yMin="-15" xMax="428" yMax="719">
      <contour>
        <pt x="431" y="669" on="0"/>
        <pt x="383" y="535" on="1"/>
        <pt x="394" y="470" on="0"/>
        <pt x="394" y="358" on="1"/>
        <pt x="394" y="218" on="0"/>
        <pt x="354" y="58" on="0"/>
        <pt x="273" y="-10" on="0"/>
        <pt x="205" y="-10" on="1"/>
        <pt x="121" y="-10" on="0"/>
        <pt x="84" y="35" on="1"/>
        <pt x="72" y="3" on="0"/>
        <pt x="63" y="-15" on="1"/>
        <pt x="44" y="-16" on="0"/>
        <pt x="0" y="4" on="0"/>
        <pt x="-3" y="18" on="1"/>
        <pt x="-5" y="26" on="0"/>
        <pt x="41" y="137" on="1"/>
        <pt x="25" y="214" on="0"/>
        <pt x="25" y="354" on="1"/>
        <pt x="25" y="489" on="0"/>
        <pt x="65" y="644" on="0"/>
        <pt x="146" y="710" on="0"/>
        <pt x="213" y="710" on="1"/>
        <pt x="296" y="710" on="0"/>
        <pt x="336" y="662" on="1"/>
        <pt x="352" y="704" on="0"/>
        <pt x="359" y="719" on="1"/>
        <pt x="364" y="719" on="0"/>
        <pt x="395" y="712" on="0"/>
        <pt x="426" y="698" on="0"/>
        <pt x="428" y="686" on="1"/>
      </contour>
      <contour>
        <pt x="238" y="596" on="0"/>
        <pt x="212" y="596" on="1"/>
        <pt x="189" y="596" on="0"/>
        <pt x="163" y="545" on="0"/>
        <pt x="152" y="430" on="0"/>
        <pt x="152" y="329" on="1"/>
        <pt x="152" y="269" on="1"/>
        <pt x="251" y="574" on="1"/>
      </contour>
      <contour>
        <pt x="224" y="105" on="0"/>
        <pt x="254" y="136" on="0"/>
        <pt x="272" y="245" on="0"/>
        <pt x="272" y="354" on="1"/>
        <pt x="272" y="417" on="1"/>
        <pt x="317" y="556" on="0"/>
        <pt x="173" y="117" on="1"/>
        <pt x="182" y="105" on="0"/>
        <pt x="201" y="105" on="1"/>
      </contour>
    </TTGlyph>
    <TTGlyph name="Otilde" xMin="20" yMin="-10" xMax="389" yMax="894">
      <component glyphName=".ttfautohint" x="20" y="0" flags="0x0"/>
      <component glyphName="O" x="0" y="0" flags="0x1000"/>
      <component glyphName="tilde" x="65" y="200" flags="0x1000"/>
    </TTGlyph>
    <TTGlyph name="P" xMin="30" yMin="0" xMax="339" yMax="700">
      <contour>
        <pt x="211" y="700" on="0"/>
        <pt x="295" y="664" on="0"/>
        <pt x="339" y="574" on="0"/>
        <pt x="339" y="494" on="1"/>
        <pt x="339" y="370" on="0"/>
        <pt x="232" y="270" on="0"/>
        <pt x="149" y="270" on="1"/>
        <pt x="141" y="270" on="1"/>
        <pt x="141" y="20" on="1"/>
        <pt x="141" y="9" on="0"/>
        <pt x="131" y="2" on="0"/>
        <pt x="76" y="0" on="0"/>
        <pt x="30" y="0" on="1"/>
        <pt x="30" y="680" on="1"/>
        <pt x="30" y="691" on="0"/>
        <pt x="38" y="700" on="0"/>
        <pt x="50" y="700" on="1"/>
        <pt x="58" y="700" on="1"/>
        <pt x="144" y="700" on="1"/>
      </contour>
      <contour>
        <pt x="188" y="373" on="0"/>
        <pt x="214" y="429" on="0"/>
        <pt x="214" y="508" on="1"/>
        <pt x="214" y="604" on="0"/>
        <pt x="169" y="604" on="1"/>
        <pt x="141" y="604" on="1"/>
        <pt x="141" y="373" on="1"/>
        <pt x="162" y="373" on="1"/>
      </contour>
    </TTGlyph>
    <TTGlyph name="Pi" xMin="45" yMin="0" xMax="356" yMax="700">
      <component glyphName=".ttfautohint" x="45" y="0" flags="0x0"/>
      <component glyphName="uni041F" x="0" y="0" flags="0x1000"/>
    </TTGlyph>
    <TTGlyph name="Q" xMin="20" yMin="-142" xMax="418" yMax="710">
      <contour>
        <pt x="418" y="-58" on="0"/>
        <pt x="418" y="-92" on="1"/>
        <pt x="418" y="-120" on="0"/>
        <pt x="355" y="-142" on="0"/>
        <pt x="320" y="-142" on="1"/>
        <pt x="262" y="-142" on="0"/>
        <pt x="190" y="-78" on="0"/>
        <pt x="170" y="-9" on="1"/>
        <pt x="114" y="-3" on="0"/>
        <pt x="50" y="65" on="0"/>
        <pt x="20" y="218" on="0"/>
        <pt x="20" y="354" on="1"/>
        <pt x="20" y="488" on="0"/>
        <pt x="61" y="644" on="0"/>
        <pt x="144" y="710" on="0"/>
        <pt x="211" y="710" on="1"/>
        <pt x="278" y="710" on="0"/>
        <pt x="354" y="648" on="0"/>
        <pt x="389" y="496" on="0"/>
        <pt x="389" y="358" on="1"/>
        <pt x="389" y="210" on="0"/>
        <pt x="345" y="47" on="0"/>
        <pt x="297" y="15" on="1"/>
        <pt x="302" y="-20" on="0"/>
        <pt x="322" y="-51" on="0"/>
        <pt x="343" y="-51" on="1"/>
        <pt x="376" y="-51" on="0"/>
        <pt x="403" y="-34" on="1"/>
      </contour>
      <contour>
        <pt x="185" y="595" on="0"/>
        <pt x="158" y="544" on="0"/>
        <pt x="147" y="430" on="0"/>
        <pt x="147" y="329" on="1"/>
        <pt x="147" y="244" on="0"/>
        <pt x="156" y="150" on="0"/>
        <pt x="181" y="105" on="0"/>
        <pt x="206" y="105" on="1"/>
        <pt x="231" y="105" on="0"/>
        <pt x="257" y="155" on="0"/>
        <pt x="267" y="260" on="0"/>
        <pt x="267" y="354" on="1"/>
        <pt x="267" y="451" on="0"/>
        <pt x="260" y="549" on="0"/>
        <pt x="235" y="595" on="0"/>
        <pt x="209" y="595" on="1"/>
      </contour>
    </TTGlyph>
    <TTGlyph name="R" xMin="30" yMin="-3" xMax="355" yMax="700">
      <contour>
        <pt x="211" y="700" on="0"/>
        <pt x="295" y="664" on="0"/>
        <pt x="339" y="574" on="0"/>
        <pt x="339" y="494" on="1"/>
        <pt x="339" y="361" on="0"/>
        <pt x="269" y="306" on="1"/>
        <pt x="349" y="199" on="0"/>
        <pt x="355" y="22" on="1"/>
        <pt x="355" y="11" on="0"/>
        <pt x="348" y="1" on="0"/>
        <pt x="324" y="-3" on="0"/>
        <pt x="297" y="-3" on="1"/>
        <pt x="270" y="-3" on="0"/>
        <pt x="232" y="0" on="1"/>
        <pt x="227" y="183" on="0"/>
        <pt x="167" y="271" on="1"/>
        <pt x="149" y="270" on="1"/>
        <pt x="141" y="270" on="1"/>
        <pt x="141" y="20" on="1"/>
        <pt x="141" y="9" on="0"/>
        <pt x="130" y="2" on="0"/>
        <pt x="76" y="0" on="0"/>
        <pt x="30" y="0" on="1"/>
        <pt x="30" y="680" on="1"/>
        <pt x="30" y="685" on="0"/>
        <pt x="38" y="700" on="0"/>
        <pt x="50" y="700" on="1"/>
        <pt x="144" y="700" on="1"/>
      </contour>
      <contour>
        <pt x="162" y="373" on="1"/>
        <pt x="188" y="373" on="0"/>
        <pt x="214" y="427" on="0"/>
        <pt x="214" y="500" on="1"/>
        <pt x="214" y="554" on="0"/>
        <pt x="193" y="604" on="0"/>
        <pt x="169" y="604" on="1"/>
        <pt x="141" y="604" on="1"/>
        <pt x="141" y="373" on="1"/>
      </contour>
    </TTGlyph>
    <TTGlyph name="Racute" xMin="30" yMin="-3" xMax="355" yMax="928">
      <component glyphName=".ttfautohint" x="30" y="0" flags="0x0"/>
      <component glyphName="R" x="0" y="0" flags="0x1000"/>
      <component glyphName="acute" x="33" y="200" flags="0x1000"/>
    </TTGlyph>
    <TTGlyph name="Rcaron" xMin="30" yMin="-3" xMax="355" yMax="920">
      <component glyphName=".ttfautohint" x="30" y="0" flags="0x0"/>
      <component glyphName="R" x="0" y="0" flags="0x1000"/>
      <component glyphName="caron" x="23" y="200" flags="0x1000"/>
    </TTGlyph>
    <TTGlyph name="Rcommaaccent" xMin="30" yMin="-266" xMax="355" yMax="700">
      <component glyphName=".ttfautohint" x="30" y="0" flags="0x0"/>
      <component glyphName="R" x="0" y="0" flags="0x1000"/>
      <component glyphName="commaaccentcomb" x="43" y="0" flags="0x1000"/>
    </TTGlyph>
    <TTGlyph name="S" xMin="15" yMin="-10" xMax="329" yMax="710">
      <contour>
        <pt x="39" y="453" on="0"/>
        <pt x="15" y="521" on="0"/>
        <pt x="15" y="557" on="1"/>
        <pt x="15" y="627" on="0"/>
        <pt x="107" y="710" on="0"/>
        <pt x="193" y="710" on="1"/>
        <pt x="329" y="710" on="0"/>
        <pt x="329" y="654" on="1"/>
        <pt x="329" y="621" on="0"/>
        <pt x="303" y="592" on="1"/>
        <pt x="294" y="599" on="0"/>
        <pt x="242" y="612" on="0"/>
        <pt x="216" y="612" on="1"/>
        <pt x="136" y="612" on="0"/>
        <pt x="136" y="560" on="1"/>
        <pt x="136" y="537" on="0"/>
        <pt x="152" y="499" on="0"/>
        <pt x="173" y="471" on="1"/>
        <pt x="269" y="348" on="1"/>
        <pt x="304" y="303" on="0"/>
        <pt x="329" y="230" on="0"/>
        <pt x="329" y="185" on="1"/>
        <pt x="329" y="-10" on="0"/>
        <pt x="147" y="-10" on="1"/>
        <pt x="83" y="-10" on="0"/>
        <pt x="16" y="29" on="0"/>
        <pt x="16" y="57" on="1"/>
        <pt x="16" y="99" on="0"/>
        <pt x="41" y="137" on="1"/>
        <pt x="57" y="122" on="0"/>
        <pt x="108" y="104" on="0"/>
        <pt x="134" y="104" on="1"/>
        <pt x="174" y="104" on="0"/>
        <pt x="208" y="144" on="0"/>
        <pt x="208" y="182" on="1"/>
        <pt x="208" y="208" on="0"/>
        <pt x="189" y="254" on="0"/>
        <pt x="163" y="289" on="1"/>
        <pt x="72" y="410" on="1"/>
      </contour>
    </TTGlyph>
    <TTGlyph name="Sacute" xMin="15" yMin="-10" xMax="329" yMax="928">
      <component glyphName=".ttfautohint" x="15" y="0" flags="0x0"/>
      <component glyphName="S" x="0" y="0" flags="0x1000"/>
      <component glyphName="acute" x="42" y="200" flags="0x1000"/>
    </TTGlyph>
    <TTGlyph name="Scaron" xMin="15" yMin="-10" xMax="329" yMax="920">
      <component glyphName=".ttfautohint" x="15" y="0" flags="0x0"/>
      <component glyphName="S" x="0" y="0" flags="0x1000"/>
      <component glyphName="caron" x="32" y="200" flags="0x1000"/>
    </TTGlyph>
    <TTGlyph name="Scedilla" xMin="15" yMin="-221" xMax="329" yMax="710">
      <contour>
        <pt x="304" y="303" on="0"/>
        <pt x="329" y="230" on="0"/>
        <pt x="329" y="185" on="1"/>
        <pt x="329" y="15" on="0"/>
        <pt x="190" y="-7" on="1"/>
        <pt x="180" y="-57" on="1"/>
        <pt x="196" y="-57" on="1"/>
        <pt x="217" y="-57" on="0"/>
        <pt x="247" y="-93" on="0"/>
        <pt x="247" y="-128" on="1"/>
        <pt x="247" y="-167" on="0"/>
        <pt x="198" y="-221" on="0"/>
        <pt x="157" y="-221" on="1"/>
        <pt x="142" y="-221" on="0"/>
        <pt x="116" y="-214" on="0"/>
        <pt x="100" y="-207" on="0"/>
        <pt x="98" y="-206" on="1"/>
        <pt x="99" y="-199" on="0"/>
        <pt x="109" y="-159" on="0"/>
        <pt x="113" y="-155" on="1"/>
        <pt x="116" y="-152" on="0"/>
        <pt x="134" y="-161" on="0"/>
        <pt x="149" y="-168" on="0"/>
        <pt x="159" y="-168" on="1"/>
        <pt x="188" y="-168" on="0"/>
        <pt x="188" y="-136" on="1"/>
        <pt x="188" y="-104" on="0"/>
        <pt x="161" y="-104" on="1"/>
        <pt x="142" y="-104" on="0"/>
        <pt x="120" y="-109" on="0"/>
        <pt x="117" y="-110" on="1"/>
        <pt x="134" y="-10" on="1"/>
        <pt x="76" y="-8" on="0"/>
        <pt x="16" y="30" on="0"/>
        <pt x="16" y="57" on="1"/>
        <pt x="16" y="99" on="0"/>
        <pt x="41" y="137" on="1"/>
        <pt x="57" y="122" on="0"/>
        <pt x="108" y="104" on="0"/>
        <pt x="134" y="104" on="1"/>
        <pt x="174" y="104" on="0"/>
        <pt x="208" y="144" on="0"/>
        <pt x="208" y="182" on="1"/>
        <pt x="208" y="208" on="0"/>
        <pt x="189" y="254" on="0"/>
        <pt x="163" y="289" on="1"/>
        <pt x="72" y="410" on="1"/>
        <pt x="39" y="453" on="0"/>
        <pt x="15" y="521" on="0"/>
        <pt x="15" y="557" on="1"/>
        <pt x="15" y="627" on="0"/>
        <pt x="107" y="710" on="0"/>
        <pt x="193" y="710" on="1"/>
        <pt x="329" y="710" on="0"/>
        <pt x="329" y="654" on="1"/>
        <pt x="329" y="621" on="0"/>
        <pt x="303" y="592" on="1"/>
        <pt x="294" y="599" on="0"/>
        <pt x="242" y="612" on="0"/>
        <pt x="216" y="612" on="1"/>
        <pt x="136" y="612" on="0"/>
        <pt x="136" y="560" on="1"/>
        <pt x="136" y="537" on="0"/>
        <pt x="152" y="499" on="0"/>
        <pt x="173" y="471" on="1"/>
        <pt x="269" y="348" on="1"/>
      </contour>
    </TTGlyph>
    <TTGlyph name="Scommaaccent" xMin="15" yMin="-266" xMax="329" yMax="710">
      <component glyphName=".ttfautohint" x="15" y="0" flags="0x0"/>
      <component glyphName="S" x="0" y="0" flags="0x1000"/>
      <component glyphName="commaaccentcomb" x="32" y="0" flags="0x1000"/>
    </TTGlyph>
    <TTGlyph name="T" xMin="10" yMin="0" xMax="370" yMax="700">
      <contour>
        <pt x="370" y="616" on="1"/>
        <pt x="370" y="604" on="0"/>
        <pt x="361" y="596" on="0"/>
        <pt x="350" y="596" on="1"/>
        <pt x="243" y="596" on="1"/>
        <pt x="243" y="20" on="1"/>
        <pt x="243" y="9" on="0"/>
        <pt x="232" y="2" on="0"/>
        <pt x="178" y="0" on="0"/>
        <pt x="132" y="0" on="1"/>
        <pt x="132" y="596" on="1"/>
        <pt x="10" y="596" on="1"/>
        <pt x="10" y="680" on="1"/>
        <pt x="10" y="700" on="0"/>
        <pt x="30" y="700" on="1"/>
        <pt x="370" y="700" on="1"/>
      </contour>
    </TTGlyph>
    <TTGlyph name="Tcaron" xMin="10" yMin="0" xMax="370" yMax="920">
      <component glyphName=".ttfautohint" x="10" y="0" flags="0x0"/>
      <component glyphName="T" x="0" y="0" flags="0x1000"/>
      <component glyphName="caron" x="50" y="200" flags="0x1000"/>
    </TTGlyph>
    <TTGlyph name="Tcedilla" xMin="10" yMin="-221" xMax="370" yMax="700">
      <contour>
        <pt x="370" y="616" on="1"/>
        <pt x="370" y="604" on="0"/>
        <pt x="361" y="596" on="0"/>
        <pt x="350" y="596" on="1"/>
        <pt x="243" y="596" on="1"/>
        <pt x="243" y="20" on="1"/>
        <pt x="243" y="9" on="0"/>
        <pt x="232" y="2" on="0"/>
        <pt x="209" y="1" on="1"/>
        <pt x="198" y="-57" on="1"/>
        <pt x="214" y="-57" on="1"/>
        <pt x="235" y="-57" on="0"/>
        <pt x="265" y="-93" on="0"/>
        <pt x="265" y="-128" on="1"/>
        <pt x="265" y="-167" on="0"/>
        <pt x="216" y="-221" on="0"/>
        <pt x="175" y="-221" on="1"/>
        <pt x="160" y="-221" on="0"/>
        <pt x="133" y="-214" on="0"/>
        <pt x="117" y="-207" on="0"/>
        <pt x="115" y="-206" on="1"/>
        <pt x="116" y="-199" on="0"/>
        <pt x="127" y="-159" on="0"/>
        <pt x="131" y="-155" on="1"/>
        <pt x="134" y="-152" on="0"/>
        <pt x="152" y="-161" on="0"/>
        <pt x="167" y="-168" on="0"/>
        <pt x="177" y="-168" on="1"/>
        <pt x="205" y="-168" on="0"/>
        <pt x="205" y="-136" on="1"/>
        <pt x="205" y="-104" on="0"/>
        <pt x="179" y="-104" on="1"/>
        <pt x="160" y="-104" on="0"/>
        <pt x="137" y="-109" on="0"/>
        <pt x="134" y="-110" on="1"/>
        <pt x="153" y="0" on="1"/>
        <pt x="132" y="0" on="1"/>
        <pt x="132" y="596" on="1"/>
        <pt x="10" y="596" on="1"/>
        <pt x="10" y="680" on="1"/>
        <pt x="10" y="700" on="0"/>
        <pt x="30" y="700" on="1"/>
        <pt x="370" y="700" on="1"/>
      </contour>
    </TTGlyph>
    <TTGlyph name="Thorn" xMin="30" yMin="0" xMax="339" yMax="700">
      <contour>
        <pt x="211" y="570" on="0"/>
        <pt x="295" y="534" on="0"/>
        <pt x="339" y="444" on="0"/>
        <pt x="339" y="364" on="1"/>
        <pt x="339" y="240" on="0"/>
        <pt x="232" y="140" on="0"/>
        <pt x="149" y="140" on="1"/>
        <pt x="141" y="140" on="1"/>
        <pt x="141" y="20" on="1"/>
        <pt x="141" y="9" on="0"/>
        <pt x="129" y="2" on="0"/>
        <pt x="75" y="0" on="0"/>
        <pt x="30" y="0" on="1"/>
        <pt x="30" y="673" on="1"/>
        <pt x="30" y="685" on="0"/>
        <pt x="42" y="696" on="0"/>
        <pt x="72" y="700" on="0"/>
        <pt x="106" y="700" on="1"/>
        <pt x="141" y="700" on="1"/>
        <pt x="141" y="570" on="1"/>
        <pt x="144" y="570" on="1"/>
      </contour>
      <contour>
        <pt x="142" y="246" on="0"/>
        <pt x="153" y="242" on="0"/>
        <pt x="162" y="242" on="1"/>
        <pt x="188" y="242" on="0"/>
        <pt x="214" y="299" on="0"/>
        <pt x="214" y="378" on="1"/>
        <pt x="214" y="474" on="0"/>
        <pt x="169" y="474" on="1"/>
        <pt x="156" y="474" on="0"/>
        <pt x="142" y="471" on="0"/>
        <pt x="141" y="471" on="1"/>
        <pt x="141" y="246" on="1"/>
      </contour>
    </TTGlyph>
    <TTGlyph name="U" xMin="30" yMin="-10" xMax="381" yMax="700">
      <contour>
        <pt x="145" y="136" on="0"/>
        <pt x="171" y="92" on="0"/>
        <pt x="209" y="92" on="1"/>
        <pt x="246" y="92" on="0"/>
        <pt x="268" y="104" on="1"/>
        <pt x="268" y="679" on="1"/>
        <pt x="268" y="691" on="0"/>
        <pt x="278" y="698" on="0"/>
        <pt x="318" y="700" on="0"/>
        <pt x="381" y="700" on="1"/>
        <pt x="381" y="28" on="1"/>
        <pt x="359" y="14" on="0"/>
        <pt x="267" y="-10" on="0"/>
        <pt x="209" y="-10" on="1"/>
        <pt x="135" y="-10" on="0"/>
        <pt x="56" y="42" on="0"/>
        <pt x="30" y="128" on="0"/>
        <pt x="30" y="192" on="1"/>
        <pt x="30" y="679" on="1"/>
        <pt x="30" y="691" on="0"/>
        <pt x="40" y="698" on="0"/>
        <pt x="81" y="700" on="0"/>
        <pt x="145" y="700" on="1"/>
        <pt x="145" y="188" on="1"/>
      </contour>
    </TTGlyph>
    <TTGlyph name="Uacute" xMin="30" yMin="-10" xMax="381" yMax="928">
      <component glyphName=".ttfautohint" x="30" y="0" flags="0x0"/>
      <component glyphName="U" x="0" y="0" flags="0x1000"/>
      <component glyphName="acute" x="76" y="200" flags="0x1000"/>
    </TTGlyph>
    <TTGlyph name="Ucircumflex" xMin="30" yMin="-10" xMax="381" yMax="917">
      <component glyphName=".ttfautohint" x="30" y="0" flags="0x0"/>
      <component glyphName="U" x="0" y="0" flags="0x1000"/>
      <component glyphName="circumflex" x="67" y="200" flags="0x1000"/>
    </TTGlyph>
    <TTGlyph name="Udieresis" xMin="30" yMin="-10" xMax="381" yMax="900">
      <component glyphName=".ttfautohint" x="30" y="0" flags="0x0"/>
      <component glyphName="U" x="0" y="0" flags="0x1000"/>
      <component glyphName="dieresis" x="67" y="200" flags="0x1000"/>
    </TTGlyph>
    <TTGlyph name="Ugrave" xMin="30" yMin="-10" xMax="381" yMax="918">
      <component glyphName=".ttfautohint" x="30" y="0" flags="0x0"/>
      <component glyphName="U" x="0" y="0" flags="0x1000"/>
      <component glyphName="grave" x="76" y="200" flags="0x1000"/>
    </TTGlyph>
    <TTGlyph name="Uhungarumlaut" xMin="30" yMin="-10" xMax="381" yMax="920">
      <component glyphName=".ttfautohint" x="30" y="0" flags="0x0"/>
      <component glyphName="U" x="0" y="0" flags="0x1000"/>
      <component glyphName="hungarumlaut" x="82" y="200" flags="0x1000"/>
    </TTGlyph>
    <TTGlyph name="Umacron" xMin="30" yMin="-10" xMax="381" yMax="872">
      <component glyphName=".ttfautohint" x="30" y="0" flags="0x0"/>
      <component glyphName="U" x="0" y="0" flags="0x1000"/>
      <component glyphName="macron" x="67" y="200" flags="0x1000"/>
    </TTGlyph>
    <TTGlyph name="Uogonek" xMin="30" yMin="-195" xMax="381" yMax="700">
      <contour>
        <pt x="352" y="2" on="0"/>
        <pt x="315" y="-65" on="0"/>
        <pt x="315" y="-90" on="1"/>
        <pt x="315" y="-118" on="0"/>
        <pt x="340" y="-118" on="1"/>
        <pt x="355" y="-118" on="0"/>
        <pt x="365" y="-111" on="1"/>
        <pt x="376" y="-133" on="0"/>
        <pt x="376" y="-154" on="1"/>
        <pt x="376" y="-195" on="0"/>
        <pt x="306" y="-195" on="1"/>
        <pt x="217" y="-195" on="0"/>
        <pt x="217" y="-106" on="1"/>
        <pt x="217" y="-61" on="0"/>
        <pt x="252" y="-8" on="1"/>
        <pt x="226" y="-10" on="0"/>
        <pt x="209" y="-10" on="1"/>
        <pt x="135" y="-10" on="0"/>
        <pt x="56" y="42" on="0"/>
        <pt x="30" y="128" on="0"/>
        <pt x="30" y="192" on="1"/>
        <pt x="30" y="679" on="1"/>
        <pt x="30" y="691" on="0"/>
        <pt x="40" y="698" on="0"/>
        <pt x="81" y="700" on="0"/>
        <pt x="145" y="700" on="1"/>
        <pt x="145" y="188" on="1"/>
        <pt x="145" y="136" on="0"/>
        <pt x="171" y="92" on="0"/>
        <pt x="209" y="92" on="1"/>
        <pt x="246" y="92" on="0"/>
        <pt x="268" y="104" on="1"/>
        <pt x="268" y="679" on="1"/>
        <pt x="268" y="691" on="0"/>
        <pt x="278" y="698" on="0"/>
        <pt x="318" y="700" on="0"/>
        <pt x="381" y="700" on="1"/>
        <pt x="381" y="28" on="1"/>
      </contour>
    </TTGlyph>
    <TTGlyph name="Uring" xMin="30" yMin="-10" xMax="381" yMax="938">
      <component glyphName=".ttfautohint" x="30" y="0" flags="0x0"/>
      <component glyphName="U" x="0" y="0" flags="0x1000"/>
      <component glyphName="ring" x="66" y="200" flags="0x1000"/>
    </TTGlyph>
    <TTGlyph name="V" xMin="5" yMin="-6" xMax="415" yMax="700">
      <contour>
        <pt x="233" y="-6" on="0"/>
        <pt x="185" y="-6" on="1"/>
        <pt x="136" y="-6" on="0"/>
        <pt x="123" y="53" on="1"/>
        <pt x="101" y="152" on="0"/>
        <pt x="20" y="597" on="0"/>
        <pt x="7" y="671" on="1"/>
        <pt x="5" y="683" on="0"/>
        <pt x="5" y="686" on="1"/>
        <pt x="5" y="700" on="0"/>
        <pt x="32" y="700" on="1"/>
        <pt x="125" y="700" on="1"/>
        <pt x="176" y="372" on="1"/>
        <pt x="191" y="275" on="0"/>
        <pt x="213" y="91" on="1"/>
        <pt x="227" y="249" on="0"/>
        <pt x="246" y="372" on="1"/>
        <pt x="290" y="670" on="1"/>
        <pt x="292" y="687" on="0"/>
        <pt x="303" y="700" on="0"/>
        <pt x="317" y="700" on="1"/>
        <pt x="415" y="700" on="1"/>
        <pt x="282" y="0" on="1"/>
      </contour>
    </TTGlyph>
    <TTGlyph name="W" xMin="6" yMin="-6" xMax="663" yMax="700">
      <contour>
        <pt x="543" y="0" on="1"/>
        <pt x="490" y="-6" on="0"/>
        <pt x="446" y="-6" on="1"/>
        <pt x="400" y="-6" on="0"/>
        <pt x="387" y="57" on="1"/>
        <pt x="364" y="168" on="1"/>
        <pt x="345" y="264" on="0"/>
        <pt x="331" y="427" on="1"/>
        <pt x="312" y="242" on="0"/>
        <pt x="300" y="168" on="1"/>
        <pt x="272" y="0" on="1"/>
        <pt x="223" y="-5" on="0"/>
        <pt x="166" y="-5" on="1"/>
        <pt x="124" y="-5" on="0"/>
        <pt x="112" y="57" on="1"/>
        <pt x="91" y="158" on="0"/>
        <pt x="19" y="598" on="0"/>
        <pt x="7" y="671" on="1"/>
        <pt x="6" y="676" on="0"/>
        <pt x="6" y="684" on="1"/>
        <pt x="6" y="693" on="0"/>
        <pt x="17" y="700" on="0"/>
        <pt x="32" y="700" on="1"/>
        <pt x="125" y="700" on="1"/>
        <pt x="175" y="372" on="1"/>
        <pt x="196" y="237" on="0"/>
        <pt x="203" y="113" on="1"/>
        <pt x="211" y="113" on="1"/>
        <pt x="214" y="235" on="0"/>
        <pt x="236" y="372" on="1"/>
        <pt x="279" y="640" on="1"/>
        <pt x="281" y="657" on="0"/>
        <pt x="291" y="670" on="0"/>
        <pt x="306" y="670" on="1"/>
        <pt x="312" y="670" on="1"/>
        <pt x="384" y="670" on="1"/>
        <pt x="436" y="372" on="1"/>
        <pt x="453" y="274" on="0"/>
        <pt x="465" y="113" on="1"/>
        <pt x="473" y="113" on="1"/>
        <pt x="478" y="241" on="0"/>
        <pt x="497" y="372" on="1"/>
        <pt x="540" y="670" on="1"/>
        <pt x="542" y="687" on="0"/>
        <pt x="552" y="700" on="0"/>
        <pt x="566" y="700" on="1"/>
        <pt x="663" y="700" on="1"/>
      </contour>
    </TTGlyph>
    <TTGlyph name="Wacute" xMin="6" yMin="-6" xMax="663" yMax="928">
      <component glyphName=".ttfautohint" x="6" y="0" flags="0x0"/>
      <component glyphName="W" x="0" y="0" flags="0x1000"/>
      <component glyphName="acute" x="204" y="200" flags="0x1000"/>
    </TTGlyph>
    <TTGlyph name="Wcircumflex" xMin="6" yMin="-6" xMax="663" yMax="917">
      <component glyphName=".ttfautohint" x="6" y="0" flags="0x0"/>
      <component glyphName="W" x="0" y="0" flags="0x1000"/>
      <component glyphName="circumflex" x="194" y="200" flags="0x1000"/>
    </TTGlyph>
    <TTGlyph name="Wdieresis" xMin="6" yMin="-6" xMax="663" yMax="900">
      <component glyphName=".ttfautohint" x="6" y="0" flags="0x0"/>
      <component glyphName="W" x="0" y="0" flags="0x1000"/>
      <component glyphName="dieresis" x="194" y="200" flags="0x1000"/>
    </TTGlyph>
    <TTGlyph name="Wgrave" xMin="6" yMin="-6" xMax="663" yMax="918">
      <component glyphName=".ttfautohint" x="6" y="0" flags="0x0"/>
      <component glyphName="W" x="0" y="0" flags="0x1000"/>
      <component glyphName="grave" x="204" y="200" flags="0x1000"/>
    </TTGlyph>
    <TTGlyph name="X" xMin="7" yMin="0" xMax="412" yMax="700">
      <contour>
        <pt x="412" y="12" on="0"/>
        <pt x="412" y="8" on="1"/>
        <pt x="412" y="0" on="0"/>
        <pt x="398" y="0" on="1"/>
        <pt x="275" y="0" on="1"/>
        <pt x="237" y="117" on="1"/>
        <pt x="218" y="175" on="0"/>
        <pt x="202" y="236" on="1"/>
        <pt x="184" y="167" on="0"/>
        <pt x="165" y="117" on="1"/>
        <pt x="126" y="14" on="1"/>
        <pt x="118" y="0" on="0"/>
        <pt x="103" y="0" on="1"/>
        <pt x="7" y="0" on="1"/>
        <pt x="143" y="359" on="1"/>
        <pt x="34" y="681" on="1"/>
        <pt x="31" y="691" on="0"/>
        <pt x="44" y="698" on="0"/>
        <pt x="112" y="700" on="0"/>
        <pt x="167" y="700" on="1"/>
        <pt x="196" y="595" on="1"/>
        <pt x="206" y="560" on="0"/>
        <pt x="224" y="480" on="1"/>
        <pt x="239" y="548" on="0"/>
        <pt x="253" y="595" on="1"/>
        <pt x="279" y="682" on="1"/>
        <pt x="282" y="692" on="0"/>
        <pt x="294" y="698" on="0"/>
        <pt x="349" y="700" on="0"/>
        <pt x="397" y="700" on="1"/>
        <pt x="285" y="373" on="1"/>
        <pt x="409" y="16" on="1"/>
      </contour>
    </TTGlyph>
    <TTGlyph name="Y" xMin="6" yMin="0" xMax="364" yMax="700">
      <contour>
        <pt x="242" y="9" on="0"/>
        <pt x="233" y="2" on="0"/>
        <pt x="178" y="0" on="0"/>
        <pt x="131" y="0" on="1"/>
        <pt x="131" y="287" on="1"/>
        <pt x="6" y="683" on="1"/>
        <pt x="3" y="692" on="0"/>
        <pt x="14" y="698" on="0"/>
        <pt x="78" y="700" on="0"/>
        <pt x="133" y="700" on="1"/>
        <pt x="162" y="569" on="1"/>
        <pt x="170" y="534" on="0"/>
        <pt x="188" y="412" on="0"/>
        <pt x="191" y="376" on="1"/>
        <pt x="194" y="411" on="0"/>
        <pt x="213" y="534" on="0"/>
        <pt x="221" y="570" on="1"/>
        <pt x="245" y="680" on="1"/>
        <pt x="248" y="691" on="0"/>
        <pt x="261" y="698" on="0"/>
        <pt x="316" y="700" on="0"/>
        <pt x="364" y="700" on="1"/>
        <pt x="242" y="294" on="1"/>
        <pt x="242" y="20" on="1"/>
      </contour>
    </TTGlyph>
    <TTGlyph name="Yacute" xMin="6" yMin="0" xMax="364" yMax="928">
      <component glyphName=".ttfautohint" x="6" y="0" flags="0x0"/>
      <component glyphName="Y" x="0" y="0" flags="0x1000"/>
      <component glyphName="acute" x="54" y="200" flags="0x1000"/>
    </TTGlyph>
    <TTGlyph name="Ycircumflex" xMin="6" yMin="0" xMax="364" yMax="917">
      <component glyphName=".ttfautohint" x="6" y="0" flags="0x0"/>
      <component glyphName="Y" x="0" y="0" flags="0x1000"/>
      <component glyphName="circumflex" x="44" y="200" flags="0x1000"/>
    </TTGlyph>
    <TTGlyph name="Ydieresis" xMin="6" yMin="0" xMax="364" yMax="900">
      <component glyphName=".ttfautohint" x="6" y="0" flags="0x0"/>
      <component glyphName="Y" x="0" y="0" flags="0x1000"/>
      <component glyphName="dieresis" x="44" y="200" flags="0x1000"/>
    </TTGlyph>
    <TTGlyph name="Ygrave" xMin="6" yMin="0" xMax="364" yMax="918">
      <component glyphName=".ttfautohint" x="6" y="0" flags="0x0"/>
      <component glyphName="Y" x="0" y="0" flags="0x1000"/>
      <component glyphName="grave" x="54" y="200" flags="0x1000"/>
    </TTGlyph>
    <TTGlyph name="Z" xMin="13" yMin="0" xMax="357" yMax="700">
      <contour>
        <pt x="25" y="700" on="0"/>
        <pt x="46" y="700" on="1"/>
        <pt x="346" y="700" on="1"/>
        <pt x="356" y="683" on="0"/>
        <pt x="356" y="665" on="1"/>
        <pt x="356" y="643" on="0"/>
        <pt x="346" y="618" on="1"/>
        <pt x="134" y="98" on="1"/>
        <pt x="290" y="98" on="1"/>
        <pt x="333" y="98" on="0"/>
        <pt x="357" y="108" on="1"/>
        <pt x="357" y="20" on="1"/>
        <pt x="357" y="0" on="0"/>
        <pt x="337" y="0" on="1"/>
        <pt x="28" y="0" on="1"/>
        <pt x="13" y="17" on="0"/>
        <pt x="13" y="43" on="1"/>
        <pt x="13" y="66" on="0"/>
        <pt x="22" y="89" on="1"/>
        <pt x="229" y="602" on="1"/>
        <pt x="72" y="602" on="1"/>
        <pt x="42" y="602" on="0"/>
        <pt x="25" y="597" on="1"/>
        <pt x="25" y="679" on="1"/>
      </contour>
    </TTGlyph>
    <TTGlyph name="Zacute" xMin="13" yMin="0" xMax="357" yMax="928">
      <component glyphName=".ttfautohint" x="13" y="0" flags="0x0"/>
      <component glyphName="Z" x="0" y="0" flags="0x1000"/>
      <component glyphName="acute" x="58" y="200" flags="0x1000"/>
    </TTGlyph>
    <TTGlyph name="Zcaron" xMin="13" yMin="0" xMax="357" yMax="920">
      <component glyphName=".ttfautohint" x="13" y="0" flags="0x0"/>
      <component glyphName="Z" x="0" y="0" flags="0x1000"/>
      <component glyphName="caron" x="48" y="200" flags="0x1000"/>
    </TTGlyph>
    <TTGlyph name="Zdotaccent" xMin="13" yMin="0" xMax="357" yMax="904">
      <component glyphName=".ttfautohint" x="13" y="0" flags="0x0"/>
      <component glyphName="Z" x="0" y="0" flags="0x1000"/>
      <component glyphName="dotaccent" x="48" y="200" flags="0x1000"/>
    </TTGlyph>
    <TTGlyph name="a" xMin="20" yMin="-10" xMax="311" yMax="510">
      <contour>
        <pt x="311" y="96" on="0"/>
        <pt x="306" y="22" on="1"/>
        <pt x="252" y="-10" on="0"/>
        <pt x="162" y="-10" on="1"/>
        <pt x="119" y="-10" on="0"/>
        <pt x="58" y="12" on="0"/>
        <pt x="20" y="81" on="0"/>
        <pt x="20" y="146" on="1"/>
        <pt x="20" y="240" on="0"/>
        <pt x="84" y="311" on="0"/>
        <pt x="136" y="311" on="1"/>
        <pt x="177" y="311" on="0"/>
        <pt x="200" y="296" on="1"/>
        <pt x="200" y="365" on="1"/>
        <pt x="200" y="385" on="0"/>
        <pt x="181" y="403" on="0"/>
        <pt x="158" y="403" on="1"/>
        <pt x="95" y="403" on="0"/>
        <pt x="37" y="382" on="1"/>
        <pt x="22" y="411" on="0"/>
        <pt x="22" y="446" on="1"/>
        <pt x="22" y="470" on="0"/>
        <pt x="36" y="481" on="1"/>
        <pt x="49" y="491" on="0"/>
        <pt x="131" y="510" on="0"/>
        <pt x="185" y="510" on="1"/>
        <pt x="254" y="510" on="0"/>
        <pt x="311" y="455" on="0"/>
        <pt x="311" y="388" on="1"/>
        <pt x="311" y="341" on="1"/>
      </contour>
      <contour>
        <pt x="190" y="230" on="0"/>
        <pt x="174" y="230" on="1"/>
        <pt x="155" y="230" on="0"/>
        <pt x="137" y="195" on="0"/>
        <pt x="137" y="149" on="1"/>
        <pt x="137" y="112" on="0"/>
        <pt x="151" y="81" on="0"/>
        <pt x="170" y="81" on="1"/>
        <pt x="189" y="81" on="0"/>
        <pt x="198" y="91" on="1"/>
        <pt x="200" y="114" on="0"/>
        <pt x="200" y="221" on="1"/>
      </contour>
    </TTGlyph>
    <TTGlyph name="aacute" xMin="20" yMin="-10" xMax="311" yMax="728">
      <component glyphName=".ttfautohint" x="20" y="0" flags="0x0"/>
      <component glyphName="a" x="0" y="0" flags="0x1000"/>
      <component glyphName="acute" x="39" y="0" flags="0x1000"/>
    </TTGlyph>
    <TTGlyph name="abreve" xMin="20" yMin="-10" xMax="311" yMax="717">
      <component glyphName=".ttfautohint" x="20" y="0" flags="0x0"/>
      <component glyphName="a" x="0" y="0" flags="0x1000"/>
      <component glyphName="breve" x="29" y="0" flags="0x1000"/>
    </TTGlyph>
    <TTGlyph name="acircumflex" xMin="20" yMin="-10" xMax="311" yMax="717">
      <component glyphName=".ttfautohint" x="20" y="0" flags="0x0"/>
      <component glyphName="a" x="0" y="0" flags="0x1000"/>
      <component glyphName="circumflex" x="29" y="0" flags="0x1000"/>
    </TTGlyph>
    <TTGlyph name="acute" xMin="49" yMin="549" xMax="231" yMax="728">
      <contour>
        <pt x="79" y="549" on="0"/>
        <pt x="60" y="576" on="0"/>
        <pt x="50" y="605" on="0"/>
        <pt x="49" y="610" on="1"/>
        <pt x="65" y="632" on="0"/>
        <pt x="122" y="687" on="0"/>
        <pt x="174" y="728" on="0"/>
        <pt x="180" y="728" on="1"/>
        <pt x="197" y="728" on="0"/>
        <pt x="226" y="677" on="0"/>
        <pt x="231" y="646" on="1"/>
        <pt x="214" y="626" on="0"/>
        <pt x="101" y="550" on="0"/>
        <pt x="92" y="549" on="1"/>
      </contour>
    </TTGlyph>
    <TTGlyph name="adieresis" xMin="20" yMin="-10" xMax="311" yMax="700">
      <component glyphName=".ttfautohint" x="20" y="0" flags="0x0"/>
      <component glyphName="a" x="0" y="0" flags="0x1000"/>
      <component glyphName="dieresis" x="29" y="0" flags="0x1000"/>
    </TTGlyph>
    <TTGlyph name="ae" xMin="20" yMin="-10" xMax="510" yMax="510">
      <contour>
        <pt x="436" y="98" on="0"/>
        <pt x="494" y="126" on="1"/>
        <pt x="503" y="96" on="0"/>
        <pt x="503" y="28" on="1"/>
        <pt x="503" y="20" on="0"/>
        <pt x="464" y="3" on="0"/>
        <pt x="398" y="-9" on="0"/>
        <pt x="361" y="-9" on="1"/>
        <pt x="306" y="-9" on="0"/>
        <pt x="277" y="12" on="1"/>
        <pt x="233" y="-10" on="0"/>
        <pt x="162" y="-10" on="1"/>
        <pt x="117" y="-10" on="0"/>
        <pt x="58" y="10" on="0"/>
        <pt x="20" y="82" on="0"/>
        <pt x="20" y="155" on="1"/>
        <pt x="20" y="249" on="0"/>
        <pt x="83" y="331" on="0"/>
        <pt x="131" y="331" on="1"/>
        <pt x="177" y="331" on="0"/>
        <pt x="200" y="316" on="1"/>
        <pt x="200" y="374" on="1"/>
        <pt x="200" y="412" on="0"/>
        <pt x="152" y="412" on="1"/>
        <pt x="85" y="412" on="0"/>
        <pt x="37" y="386" on="1"/>
        <pt x="22" y="411" on="0"/>
        <pt x="22" y="453" on="1"/>
        <pt x="22" y="461" on="0"/>
        <pt x="30" y="479" on="0"/>
        <pt x="34" y="482" on="1"/>
        <pt x="48" y="493" on="0"/>
        <pt x="129" y="510" on="0"/>
        <pt x="192" y="510" on="1"/>
        <pt x="257" y="510" on="0"/>
        <pt x="277" y="473" on="1"/>
        <pt x="310" y="510" on="0"/>
        <pt x="382" y="510" on="1"/>
        <pt x="510" y="510" on="0"/>
        <pt x="510" y="347" on="1"/>
        <pt x="510" y="260" on="0"/>
        <pt x="496" y="205" on="1"/>
        <pt x="455" y="201" on="0"/>
        <pt x="412" y="201" on="1"/>
        <pt x="367" y="201" on="0"/>
        <pt x="321" y="207" on="1"/>
        <pt x="322" y="158" on="0"/>
        <pt x="332" y="113" on="0"/>
        <pt x="354" y="98" on="0"/>
        <pt x="376" y="98" on="1"/>
      </contour>
      <contour>
        <pt x="346" y="414" on="0"/>
        <pt x="325" y="356" on="0"/>
        <pt x="322" y="292" on="1"/>
        <pt x="356" y="286" on="0"/>
        <pt x="378" y="286" on="1"/>
        <pt x="391" y="286" on="0"/>
        <pt x="397" y="287" on="1"/>
        <pt x="402" y="302" on="0"/>
        <pt x="402" y="339" on="1"/>
        <pt x="402" y="385" on="0"/>
        <pt x="387" y="414" on="0"/>
        <pt x="367" y="414" on="1"/>
      </contour>
      <contour>
        <pt x="189" y="249" on="0"/>
        <pt x="173" y="249" on="1"/>
        <pt x="137" y="249" on="0"/>
        <pt x="137" y="159" on="1"/>
        <pt x="137" y="125" on="0"/>
        <pt x="142" y="92" on="0"/>
        <pt x="155" y="81" on="0"/>
        <pt x="168" y="81" on="1"/>
        <pt x="192" y="81" on="0"/>
        <pt x="200" y="91" on="1"/>
        <pt x="200" y="242" on="1"/>
      </contour>
    </TTGlyph>
    <TTGlyph name="agrave" xMin="20" yMin="-10" xMax="311" yMax="718">
      <component glyphName=".ttfautohint" x="20" y="0" flags="0x0"/>
      <component glyphName="a" x="0" y="0" flags="0x1000"/>
      <component glyphName="grave" x="39" y="0" flags="0x1000"/>
    </TTGlyph>
    <TTGlyph name="amacron" xMin="20" yMin="-10" xMax="311" yMax="672">
      <component glyphName=".ttfautohint" x="20" y="0" flags="0x0"/>
      <component glyphName="a" x="0" y="0" flags="0x1000"/>
      <component glyphName="macron" x="29" y="0" flags="0x1000"/>
    </TTGlyph>
    <TTGlyph name="ampersand" xMin="15" yMin="-10" xMax="484" yMax="706">
      <contour>
        <pt x="418" y="389" on="0"/>
        <pt x="422" y="346" on="0"/>
        <pt x="422" y="291" on="1"/>
        <pt x="422" y="213" on="0"/>
        <pt x="401" y="147" on="1"/>
        <pt x="452" y="91" on="0"/>
        <pt x="484" y="78" on="1"/>
        <pt x="481" y="55" on="0"/>
        <pt x="456" y="14" on="0"/>
        <pt x="424" y="-10" on="0"/>
        <pt x="412" y="-10" on="1"/>
        <pt x="395" y="-10" on="0"/>
        <pt x="344" y="46" on="1"/>
        <pt x="290" y="-10" on="0"/>
        <pt x="203" y="-10" on="1"/>
        <pt x="15" y="-10" on="0"/>
        <pt x="15" y="169" on="1"/>
        <pt x="15" y="228" on="0"/>
        <pt x="76" y="326" on="0"/>
        <pt x="124" y="358" on="1"/>
        <pt x="50" y="496" on="0"/>
        <pt x="50" y="568" on="1"/>
        <pt x="50" y="631" on="0"/>
        <pt x="133" y="706" on="0"/>
        <pt x="217" y="706" on="1"/>
        <pt x="287" y="706" on="0"/>
        <pt x="372" y="678" on="0"/>
        <pt x="372" y="654" on="1"/>
        <pt x="372" y="634" on="0"/>
        <pt x="357" y="588" on="0"/>
        <pt x="344" y="572" on="1"/>
        <pt x="316" y="593" on="0"/>
        <pt x="263" y="608" on="0"/>
        <pt x="231" y="608" on="1"/>
        <pt x="197" y="608" on="0"/>
        <pt x="168" y="588" on="0"/>
        <pt x="168" y="553" on="1"/>
        <pt x="168" y="515" on="0"/>
        <pt x="253" y="347" on="0"/>
        <pt x="313" y="261" on="1"/>
        <pt x="314" y="276" on="0"/>
        <pt x="314" y="304" on="1"/>
        <pt x="314" y="375" on="0"/>
        <pt x="298" y="455" on="0"/>
        <pt x="282" y="495" on="1"/>
        <pt x="314" y="504" on="0"/>
        <pt x="406" y="504" on="1"/>
        <pt x="441" y="504" on="0"/>
        <pt x="472" y="501" on="1"/>
        <pt x="473" y="498" on="0"/>
        <pt x="475" y="477" on="0"/>
        <pt x="475" y="463" on="1"/>
        <pt x="475" y="438" on="0"/>
        <pt x="459" y="412" on="0"/>
        <pt x="432" y="412" on="1"/>
        <pt x="410" y="412" on="1"/>
      </contour>
      <contour>
        <pt x="246" y="94" on="0"/>
        <pt x="274" y="130" on="1"/>
        <pt x="223" y="196" on="0"/>
        <pt x="172" y="278" on="1"/>
        <pt x="130" y="239" on="0"/>
        <pt x="130" y="167" on="1"/>
        <pt x="130" y="133" on="0"/>
        <pt x="164" y="94" on="0"/>
        <pt x="197" y="94" on="1"/>
      </contour>
    </TTGlyph>
    <TTGlyph name="ampersand.ss03" xMin="30" yMin="-45" xMax="410" yMax="750">
      <contour>
        <pt x="216" y="319" on="0"/>
        <pt x="155" y="267" on="0"/>
        <pt x="155" y="230" on="1"/>
        <pt x="155" y="198" on="0"/>
        <pt x="198" y="172" on="0"/>
        <pt x="239" y="172" on="1"/>
        <pt x="273" y="172" on="0"/>
        <pt x="345" y="218" on="0"/>
        <pt x="365" y="246" on="1"/>
        <pt x="383" y="226" on="0"/>
        <pt x="410" y="171" on="0"/>
        <pt x="410" y="153" on="1"/>
        <pt x="410" y="139" on="0"/>
        <pt x="380" y="101" on="0"/>
        <pt x="319" y="68" on="0"/>
        <pt x="276" y="61" on="1"/>
        <pt x="276" y="-5" on="1"/>
        <pt x="276" y="-30" on="0"/>
        <pt x="229" y="-45" on="0"/>
        <pt x="175" y="-45" on="1"/>
        <pt x="175" y="60" on="1"/>
        <pt x="100" y="68" on="0"/>
        <pt x="30" y="145" on="0"/>
        <pt x="30" y="218" on="1"/>
        <pt x="30" y="275" on="0"/>
        <pt x="86" y="348" on="0"/>
        <pt x="130" y="366" on="1"/>
        <pt x="103" y="374" on="0"/>
        <pt x="69" y="394" on="0"/>
        <pt x="44" y="442" on="0"/>
        <pt x="44" y="484" on="1"/>
        <pt x="44" y="547" on="0"/>
        <pt x="119" y="632" on="0"/>
        <pt x="184" y="644" on="1"/>
        <pt x="184" y="710" on="1"/>
        <pt x="184" y="735" on="0"/>
        <pt x="231" y="750" on="0"/>
        <pt x="285" y="750" on="1"/>
        <pt x="285" y="643" on="1"/>
        <pt x="321" y="637" on="0"/>
        <pt x="376" y="609" on="0"/>
        <pt x="405" y="577" on="0"/>
        <pt x="405" y="566" on="1"/>
        <pt x="405" y="550" on="0"/>
        <pt x="383" y="497" on="0"/>
        <pt x="367" y="477" on="1"/>
        <pt x="342" y="508" on="0"/>
        <pt x="286" y="541" on="0"/>
        <pt x="246" y="541" on="1"/>
        <pt x="205" y="541" on="0"/>
        <pt x="158" y="504" on="0"/>
        <pt x="158" y="476" on="1"/>
        <pt x="158" y="422" on="0"/>
        <pt x="219" y="421" on="1"/>
        <pt x="246" y="421" on="0"/>
        <pt x="274" y="426" on="1"/>
        <pt x="262" y="322" on="1"/>
      </contour>
    </TTGlyph>
    <TTGlyph name="ampersand.ss04" xMin="22" yMin="-10" xMax="614" yMax="684">
      <contour>
        <pt x="372" y="372" on="0"/>
        <pt x="192" y="365" on="0"/>
        <pt x="137" y="365" on="1"/>
        <pt x="137" y="318" on="0"/>
        <pt x="150" y="271" on="0"/>
        <pt x="172" y="257" on="0"/>
        <pt x="188" y="257" on="1"/>
        <pt x="220" y="257" on="0"/>
        <pt x="293" y="290" on="0"/>
        <pt x="307" y="311" on="1"/>
        <pt x="309" y="308" on="0"/>
        <pt x="321" y="285" on="0"/>
        <pt x="332" y="250" on="0"/>
        <pt x="332" y="232" on="1"/>
        <pt x="332" y="217" on="0"/>
        <pt x="291" y="182" on="0"/>
        <pt x="220" y="159" on="0"/>
        <pt x="177" y="159" on="1"/>
        <pt x="96" y="159" on="0"/>
        <pt x="22" y="272" on="0"/>
        <pt x="22" y="401" on="1"/>
        <pt x="22" y="540" on="0"/>
        <pt x="101" y="684" on="0"/>
        <pt x="194" y="684" on="1"/>
        <pt x="251" y="684" on="0"/>
        <pt x="327" y="617" on="0"/>
        <pt x="327" y="553" on="1"/>
        <pt x="327" y="504" on="0"/>
        <pt x="305" y="462" on="0"/>
        <pt x="278" y="451" on="1"/>
        <pt x="401" y="470" on="1"/>
        <pt x="401" y="497" on="1"/>
        <pt x="401" y="543" on="0"/>
        <pt x="426" y="590" on="0"/>
        <pt x="473" y="606" on="0"/>
        <pt x="512" y="606" on="1"/>
        <pt x="512" y="483" on="1"/>
        <pt x="538" y="486" on="0"/>
        <pt x="595" y="494" on="0"/>
        <pt x="604" y="496" on="1"/>
        <pt x="604" y="452" on="0"/>
        <pt x="595" y="408" on="0"/>
        <pt x="572" y="389" on="0"/>
        <pt x="549" y="386" on="1"/>
        <pt x="512" y="383" on="1"/>
        <pt x="512" y="145" on="1"/>
        <pt x="512" y="111" on="0"/>
        <pt x="526" y="81" on="0"/>
        <pt x="544" y="81" on="1"/>
        <pt x="567" y="81" on="0"/>
        <pt x="603" y="88" on="0"/>
        <pt x="608" y="90" on="1"/>
        <pt x="609" y="85" on="0"/>
        <pt x="614" y="51" on="0"/>
        <pt x="614" y="32" on="1"/>
        <pt x="614" y="14" on="0"/>
        <pt x="563" y="-10" on="0"/>
        <pt x="505" y="-10" on="1"/>
        <pt x="466" y="-10" on="0"/>
        <pt x="422" y="15" on="0"/>
        <pt x="401" y="78" on="0"/>
        <pt x="401" y="136" on="1"/>
        <pt x="401" y="373" on="1"/>
      </contour>
      <contour>
        <pt x="224" y="595" on="0"/>
        <pt x="195" y="595" on="1"/>
        <pt x="172" y="595" on="0"/>
        <pt x="148" y="547" on="0"/>
        <pt x="141" y="495" on="0"/>
        <pt x="137" y="447" on="1"/>
        <pt x="166" y="452" on="1"/>
        <pt x="224" y="468" on="0"/>
        <pt x="224" y="541" on="1"/>
      </contour>
    </TTGlyph>
    <TTGlyph name="aogonek" xMin="20" yMin="-195" xMax="311" yMax="510">
      <contour>
        <pt x="200" y="385" on="0"/>
        <pt x="181" y="403" on="0"/>
        <pt x="158" y="403" on="1"/>
        <pt x="95" y="403" on="0"/>
        <pt x="37" y="382" on="1"/>
        <pt x="22" y="411" on="0"/>
        <pt x="22" y="446" on="1"/>
        <pt x="22" y="470" on="0"/>
        <pt x="36" y="481" on="1"/>
        <pt x="49" y="491" on="0"/>
        <pt x="131" y="510" on="0"/>
        <pt x="185" y="510" on="1"/>
        <pt x="254" y="510" on="0"/>
        <pt x="311" y="455" on="0"/>
        <pt x="311" y="388" on="1"/>
        <pt x="311" y="341" on="1"/>
        <pt x="311" y="96" on="0"/>
        <pt x="306" y="22" on="1"/>
        <pt x="281" y="-1" on="0"/>
        <pt x="243" y="-62" on="0"/>
        <pt x="243" y="-90" on="1"/>
        <pt x="243" y="-118" on="0"/>
        <pt x="268" y="-118" on="1"/>
        <pt x="283" y="-118" on="0"/>
        <pt x="293" y="-111" on="1"/>
        <pt x="304" y="-132" on="0"/>
        <pt x="304" y="-154" on="1"/>
        <pt x="304" y="-165" on="0"/>
        <pt x="299" y="-173" on="1"/>
        <pt x="285" y="-195" on="0"/>
        <pt x="234" y="-195" on="1"/>
        <pt x="145" y="-195" on="0"/>
        <pt x="145" y="-106" on="1"/>
        <pt x="145" y="-54" on="0"/>
        <pt x="182" y="-10" on="1"/>
        <pt x="162" y="-10" on="1"/>
        <pt x="119" y="-10" on="0"/>
        <pt x="58" y="12" on="0"/>
        <pt x="20" y="81" on="0"/>
        <pt x="20" y="146" on="1"/>
        <pt x="20" y="240" on="0"/>
        <pt x="84" y="311" on="0"/>
        <pt x="136" y="311" on="1"/>
        <pt x="177" y="311" on="0"/>
        <pt x="200" y="296" on="1"/>
        <pt x="200" y="365" on="1"/>
      </contour>
      <contour>
        <pt x="155" y="230" on="0"/>
        <pt x="137" y="195" on="0"/>
        <pt x="137" y="149" on="1"/>
        <pt x="137" y="112" on="0"/>
        <pt x="151" y="81" on="0"/>
        <pt x="170" y="81" on="1"/>
        <pt x="189" y="81" on="0"/>
        <pt x="198" y="91" on="1"/>
        <pt x="200" y="114" on="0"/>
        <pt x="200" y="221" on="1"/>
        <pt x="190" y="230" on="0"/>
        <pt x="173" y="230" on="1"/>
      </contour>
    </TTGlyph>
    <TTGlyph name="apple" xMin="30" yMin="-10" xMax="749" yMax="709">
      <contour>
        <pt x="498" y="709" on="0"/>
        <pt x="660" y="620" on="0"/>
        <pt x="749" y="458" on="0"/>
        <pt x="749" y="349" on="1"/>
        <pt x="749" y="241" on="0"/>
        <pt x="660" y="78" on="0"/>
        <pt x="497" y="-10" on="0"/>
        <pt x="389" y="-10" on="1"/>
        <pt x="281" y="-10" on="0"/>
        <pt x="118" y="78" on="0"/>
        <pt x="30" y="241" on="0"/>
        <pt x="30" y="349" on="1"/>
        <pt x="30" y="457" on="0"/>
        <pt x="118" y="620" on="0"/>
        <pt x="281" y="709" on="0"/>
        <pt x="389" y="709" on="1"/>
      </contour>
      <contour>
        <pt x="372" y="578" on="0"/>
        <pt x="338" y="545" on="0"/>
        <pt x="338" y="515" on="1"/>
        <pt x="338" y="485" on="0"/>
        <pt x="369" y="445" on="0"/>
        <pt x="404" y="416" on="1"/>
        <pt x="448" y="379" on="0"/>
        <pt x="465" y="356" on="1"/>
        <pt x="485" y="382" on="0"/>
        <pt x="528" y="416" on="1"/>
        <pt x="563" y="445" on="0"/>
        <pt x="594" y="485" on="0"/>
        <pt x="594" y="515" on="1"/>
        <pt x="594" y="545" on="0"/>
        <pt x="559" y="578" on="0"/>
        <pt x="532" y="578" on="1"/>
        <pt x="489" y="578" on="0"/>
        <pt x="465" y="534" on="1"/>
        <pt x="441" y="578" on="0"/>
        <pt x="399" y="578" on="1"/>
      </contour>
      <contour>
        <pt x="283" y="539" on="0"/>
        <pt x="289" y="539" on="1"/>
        <pt x="303" y="538" on="1"/>
        <pt x="309" y="538" on="0"/>
        <pt x="320" y="548" on="0"/>
        <pt x="320" y="556" on="1"/>
        <pt x="320" y="574" on="0"/>
        <pt x="299" y="574" on="1"/>
        <pt x="290" y="574" on="0"/>
        <pt x="271" y="571" on="0"/>
        <pt x="264" y="571" on="1"/>
        <pt x="256" y="571" on="0"/>
        <pt x="237" y="574" on="0"/>
        <pt x="229" y="574" on="1"/>
        <pt x="206" y="574" on="0"/>
        <pt x="206" y="556" on="1"/>
        <pt x="206" y="549" on="0"/>
        <pt x="217" y="538" on="0"/>
        <pt x="224" y="538" on="1"/>
        <pt x="238" y="539" on="1"/>
        <pt x="243" y="539" on="0"/>
        <pt x="243" y="527" on="1"/>
        <pt x="243" y="415" on="1"/>
        <pt x="243" y="403" on="0"/>
        <pt x="238" y="403" on="1"/>
        <pt x="224" y="404" on="1"/>
        <pt x="216" y="404" on="0"/>
        <pt x="206" y="395" on="0"/>
        <pt x="206" y="388" on="1"/>
        <pt x="206" y="380" on="0"/>
        <pt x="217" y="368" on="0"/>
        <pt x="227" y="368" on="1"/>
        <pt x="238" y="368" on="0"/>
        <pt x="258" y="373" on="0"/>
        <pt x="265" y="373" on="1"/>
        <pt x="271" y="373" on="0"/>
        <pt x="290" y="368" on="0"/>
        <pt x="299" y="368" on="1"/>
        <pt x="320" y="368" on="0"/>
        <pt x="320" y="388" on="1"/>
        <pt x="320" y="404" on="0"/>
        <pt x="303" y="404" on="1"/>
        <pt x="289" y="403" on="1"/>
        <pt x="283" y="403" on="0"/>
        <pt x="283" y="415" on="1"/>
        <pt x="283" y="527" on="1"/>
      </contour>
      <contour>
        <pt x="616" y="294" on="0"/>
        <pt x="616" y="310" on="1"/>
        <pt x="616" y="329" on="0"/>
        <pt x="597" y="329" on="1"/>
        <pt x="588" y="329" on="0"/>
        <pt x="572" y="326" on="0"/>
        <pt x="564" y="326" on="1"/>
        <pt x="557" y="326" on="0"/>
        <pt x="540" y="329" on="0"/>
        <pt x="532" y="329" on="1"/>
        <pt x="522" y="329" on="0"/>
        <pt x="511" y="317" on="0"/>
        <pt x="511" y="310" on="1"/>
        <pt x="511" y="304" on="0"/>
        <pt x="521" y="294" on="0"/>
        <pt x="528" y="294" on="1"/>
        <pt x="536" y="294" on="1"/>
        <pt x="547" y="294" on="0"/>
        <pt x="547" y="282" on="1"/>
        <pt x="547" y="184" on="1"/>
        <pt x="477" y="311" on="1"/>
        <pt x="475" y="317" on="1"/>
        <pt x="473" y="329" on="0"/>
        <pt x="456" y="329" on="1"/>
        <pt x="450" y="329" on="0"/>
        <pt x="438" y="327" on="0"/>
        <pt x="431" y="327" on="1"/>
        <pt x="421" y="327" on="0"/>
        <pt x="408" y="329" on="0"/>
        <pt x="405" y="329" on="1"/>
        <pt x="391" y="329" on="0"/>
        <pt x="387" y="318" on="1"/>
        <pt x="382" y="329" on="0"/>
        <pt x="370" y="329" on="1"/>
        <pt x="362" y="329" on="0"/>
        <pt x="343" y="326" on="0"/>
        <pt x="335" y="326" on="1"/>
        <pt x="325" y="326" on="0"/>
        <pt x="309" y="329" on="0"/>
        <pt x="303" y="329" on="1"/>
        <pt x="283" y="329" on="0"/>
        <pt x="283" y="310" on="1"/>
        <pt x="283" y="293" on="0"/>
        <pt x="303" y="293" on="1"/>
        <pt x="308" y="294" on="1"/>
        <pt x="307" y="292" on="0"/>
        <pt x="293" y="266" on="1"/>
        <pt x="277" y="238" on="1"/>
        <pt x="244" y="294" on="1"/>
        <pt x="246" y="294" on="1"/>
        <pt x="267" y="294" on="0"/>
        <pt x="267" y="310" on="1"/>
        <pt x="267" y="329" on="0"/>
        <pt x="248" y="329" on="1"/>
        <pt x="241" y="329" on="0"/>
        <pt x="223" y="325" on="0"/>
        <pt x="217" y="325" on="1"/>
        <pt x="211" y="325" on="0"/>
        <pt x="188" y="329" on="0"/>
        <pt x="181" y="329" on="1"/>
        <pt x="162" y="329" on="0"/>
        <pt x="162" y="310" on="1"/>
        <pt x="162" y="293" on="0"/>
        <pt x="182" y="293" on="1"/>
        <pt x="193" y="294" on="1"/>
        <pt x="197" y="294" on="0"/>
        <pt x="198" y="293" on="1"/>
        <pt x="255" y="199" on="1"/>
        <pt x="255" y="165" on="1"/>
        <pt x="255" y="157" on="0"/>
        <pt x="250" y="157" on="1"/>
        <pt x="247" y="157" on="0"/>
        <pt x="240" y="160" on="0"/>
        <pt x="237" y="160" on="1"/>
        <pt x="219" y="160" on="0"/>
        <pt x="219" y="140" on="1"/>
        <pt x="219" y="124" on="0"/>
        <pt x="240" y="124" on="1"/>
        <pt x="247" y="124" on="0"/>
        <pt x="265" y="127" on="0"/>
        <pt x="274" y="127" on="1"/>
        <pt x="284" y="127" on="0"/>
        <pt x="301" y="124" on="0"/>
        <pt x="311" y="124" on="1"/>
        <pt x="333" y="124" on="0"/>
        <pt x="333" y="141" on="1"/>
        <pt x="333" y="160" on="0"/>
        <pt x="317" y="160" on="1"/>
        <pt x="312" y="160" on="0"/>
        <pt x="304" y="157" on="0"/>
        <pt x="302" y="157" on="1"/>
        <pt x="296" y="157" on="0"/>
        <pt x="296" y="165" on="1"/>
        <pt x="296" y="201" on="1"/>
        <pt x="353" y="292" on="1"/>
        <pt x="355" y="295" on="0"/>
        <pt x="357" y="295" on="1"/>
        <pt x="361" y="295" on="0"/>
        <pt x="367" y="294" on="0"/>
        <pt x="370" y="294" on="1"/>
        <pt x="382" y="294" on="0"/>
        <pt x="386" y="303" on="1"/>
        <pt x="393" y="294" on="0"/>
        <pt x="402" y="294" on="1"/>
        <pt x="407" y="294" on="0"/>
        <pt x="413" y="295" on="0"/>
        <pt x="415" y="295" on="1"/>
        <pt x="421" y="295" on="0"/>
        <pt x="421" y="282" on="1"/>
        <pt x="421" y="169" on="1"/>
        <pt x="421" y="157" on="0"/>
        <pt x="415" y="157" on="1"/>
        <pt x="412" y="157" on="0"/>
        <pt x="406" y="159" on="0"/>
        <pt x="402" y="159" on="1"/>
        <pt x="384" y="159" on="0"/>
        <pt x="384" y="141" on="1"/>
        <pt x="384" y="124" on="0"/>
        <pt x="405" y="124" on="1"/>
        <pt x="412" y="124" on="0"/>
        <pt x="431" y="127" on="0"/>
        <pt x="441" y="127" on="1"/>
        <pt x="449" y="127" on="0"/>
        <pt x="467" y="124" on="0"/>
        <pt x="474" y="124" on="1"/>
        <pt x="496" y="124" on="0"/>
        <pt x="496" y="140" on="1"/>
        <pt x="496" y="159" on="0"/>
        <pt x="478" y="159" on="1"/>
        <pt x="474" y="159" on="0"/>
        <pt x="468" y="157" on="0"/>
        <pt x="465" y="157" on="1"/>
        <pt x="459" y="157" on="0"/>
        <pt x="459" y="170" on="1"/>
        <pt x="459" y="267" on="1"/>
        <pt x="527" y="144" on="1"/>
        <pt x="539" y="120" on="0"/>
        <pt x="558" y="120" on="1"/>
        <pt x="585" y="120" on="0"/>
        <pt x="585" y="164" on="1"/>
        <pt x="585" y="282" on="1"/>
        <pt x="585" y="294" on="0"/>
        <pt x="592" y="294" on="1"/>
        <pt x="598" y="294" on="1"/>
      </contour>
    </TTGlyph>
    <TTGlyph name="approxequal" xMin="16" yMin="109" xMax="385" yMax="396">
      <contour>
        <pt x="76" y="396" on="0"/>
        <pt x="149" y="396" on="1"/>
        <pt x="182" y="396" on="0"/>
        <pt x="213" y="376" on="1"/>
        <pt x="234" y="360" on="0"/>
        <pt x="259" y="360" on="1"/>
        <pt x="286" y="360" on="0"/>
        <pt x="320" y="388" on="1"/>
        <pt x="330" y="393" on="0"/>
        <pt x="338" y="393" on="1"/>
        <pt x="351" y="393" on="0"/>
        <pt x="365" y="379" on="1"/>
        <pt x="383" y="359" on="0"/>
        <pt x="385" y="323" on="1"/>
        <pt x="370" y="300" on="0"/>
        <pt x="296" y="259" on="0"/>
        <pt x="257" y="259" on="1"/>
        <pt x="236" y="259" on="0"/>
        <pt x="210" y="268" on="0"/>
        <pt x="193" y="278" on="1"/>
        <pt x="165" y="294" on="0"/>
        <pt x="143" y="294" on="1"/>
        <pt x="121" y="294" on="0"/>
        <pt x="80" y="277" on="1"/>
        <pt x="62" y="267" on="0"/>
        <pt x="51" y="267" on="1"/>
        <pt x="19" y="267" on="0"/>
        <pt x="17" y="333" on="1"/>
      </contour>
      <contour>
        <pt x="36" y="211" on="0"/>
        <pt x="103" y="245" on="0"/>
        <pt x="139" y="245" on="1"/>
        <pt x="175" y="245" on="0"/>
        <pt x="209" y="226" on="1"/>
        <pt x="235" y="211" on="0"/>
        <pt x="259" y="211" on="1"/>
        <pt x="280" y="211" on="0"/>
        <pt x="310" y="225" on="1"/>
        <pt x="340" y="237" on="0"/>
        <pt x="351" y="235" on="1"/>
        <pt x="383" y="227" on="0"/>
        <pt x="385" y="174" on="1"/>
        <pt x="369" y="150" on="0"/>
        <pt x="293" y="109" on="0"/>
        <pt x="250" y="109" on="1"/>
        <pt x="211" y="109" on="0"/>
        <pt x="186" y="130" on="1"/>
        <pt x="166" y="146" on="0"/>
        <pt x="146" y="146" on="1"/>
        <pt x="122" y="146" on="0"/>
        <pt x="81" y="117" on="1"/>
        <pt x="74" y="113" on="0"/>
        <pt x="66" y="113" on="1"/>
        <pt x="46" y="113" on="0"/>
        <pt x="16" y="159" on="0"/>
        <pt x="16" y="189" on="1"/>
      </contour>
    </TTGlyph>
    <TTGlyph name="aring" xMin="20" yMin="-10" xMax="311" yMax="738">
      <component glyphName=".ttfautohint" x="20" y="0" flags="0x0"/>
      <component glyphName="a" x="0" y="0" flags="0x1000"/>
      <component glyphName="ring" x="29" y="0" flags="0x1000"/>
    </TTGlyph>
    <TTGlyph name="asciicircum" xMin="37" yMin="199" xMax="392" yMax="412">
      <contour>
        <pt x="98" y="202" on="0"/>
        <pt x="88" y="202" on="1"/>
        <pt x="65" y="202" on="0"/>
        <pt x="38" y="237" on="0"/>
        <pt x="37" y="259" on="1"/>
        <pt x="223" y="412" on="1"/>
        <pt x="373" y="286" on="1"/>
        <pt x="392" y="271" on="0"/>
        <pt x="392" y="251" on="1"/>
        <pt x="392" y="232" on="0"/>
        <pt x="362" y="202" on="0"/>
        <pt x="339" y="199" on="1"/>
        <pt x="210" y="268" on="1"/>
        <pt x="117" y="212" on="1"/>
      </contour>
    </TTGlyph>
    <TTGlyph name="asciitilde" xMin="9" yMin="199" xMax="393" yMax="336">
      <contour>
        <pt x="25" y="297" on="0"/>
        <pt x="105" y="336" on="0"/>
        <pt x="148" y="336" on="1"/>
        <pt x="172" y="336" on="0"/>
        <pt x="200" y="326" on="0"/>
        <pt x="218" y="316" on="1"/>
        <pt x="241" y="300" on="0"/>
        <pt x="267" y="300" on="1"/>
        <pt x="294" y="300" on="0"/>
        <pt x="328" y="328" on="1"/>
        <pt x="337" y="333" on="0"/>
        <pt x="347" y="333" on="1"/>
        <pt x="366" y="333" on="0"/>
        <pt x="392" y="293" on="0"/>
        <pt x="393" y="263" on="1"/>
        <pt x="376" y="239" on="0"/>
        <pt x="301" y="199" on="0"/>
        <pt x="257" y="199" on="1"/>
        <pt x="220" y="199" on="0"/>
        <pt x="185" y="221" on="1"/>
        <pt x="157" y="237" on="0"/>
        <pt x="138" y="237" on="1"/>
        <pt x="117" y="237" on="0"/>
        <pt x="89" y="217" on="1"/>
        <pt x="66" y="202" on="0"/>
        <pt x="54" y="202" on="1"/>
        <pt x="35" y="202" on="0"/>
        <pt x="10" y="241" on="0"/>
        <pt x="9" y="273" on="1"/>
      </contour>
    </TTGlyph>
    <TTGlyph name="asterisk" xMin="11" yMin="238" xMax="458" yMax="693">
      <contour>
        <pt x="264" y="516" on="0"/>
        <pt x="255" y="505" on="0"/>
        <pt x="242" y="505" on="1"/>
        <pt x="231" y="505" on="0"/>
        <pt x="218" y="509" on="1"/>
        <pt x="188" y="664" on="1"/>
        <pt x="185" y="693" on="0"/>
        <pt x="227" y="693" on="1"/>
        <pt x="261" y="693" on="0"/>
        <pt x="293" y="678" on="1"/>
        <pt x="267" y="529" on="1"/>
      </contour>
      <contour>
        <pt x="442" y="576" on="0"/>
        <pt x="458" y="535" on="0"/>
        <pt x="458" y="516" on="1"/>
        <pt x="458" y="484" on="0"/>
        <pt x="438" y="478" on="1"/>
        <pt x="287" y="450" on="1"/>
        <pt x="272" y="469" on="0"/>
        <pt x="272" y="481" on="1"/>
        <pt x="272" y="491" on="0"/>
        <pt x="288" y="501" on="1"/>
        <pt x="428" y="588" on="1"/>
      </contour>
      <contour>
        <pt x="199" y="453" on="0"/>
        <pt x="176" y="453" on="1"/>
        <pt x="173" y="453" on="0"/>
        <pt x="165" y="455" on="1"/>
        <pt x="11" y="490" on="1"/>
        <pt x="10" y="530" on="0"/>
        <pt x="47" y="579" on="0"/>
        <pt x="68" y="579" on="1"/>
        <pt x="71" y="579" on="0"/>
        <pt x="79" y="577" on="1"/>
        <pt x="198" y="491" on="1"/>
      </contour>
      <contour>
        <pt x="246" y="402" on="0"/>
        <pt x="246" y="407" on="1"/>
        <pt x="246" y="420" on="0"/>
        <pt x="279" y="433" on="1"/>
        <pt x="397" y="309" on="1"/>
        <pt x="403" y="302" on="0"/>
        <pt x="403" y="294" on="1"/>
        <pt x="403" y="275" on="0"/>
        <pt x="346" y="242" on="0"/>
        <pt x="317" y="238" on="1"/>
        <pt x="249" y="393" on="1"/>
      </contour>
      <contour>
        <pt x="190" y="429" on="0"/>
        <pt x="199" y="429" on="1"/>
        <pt x="211" y="429" on="0"/>
        <pt x="227" y="409" on="1"/>
        <pt x="149" y="253" on="1"/>
        <pt x="140" y="241" on="0"/>
        <pt x="129" y="241" on="1"/>
        <pt x="111" y="241" on="0"/>
        <pt x="69" y="283" on="0"/>
        <pt x="56" y="308" on="1"/>
        <pt x="178" y="419" on="1"/>
      </contour>
    </TTGlyph>
    <TTGlyph name="at" xMin="40" yMin="-191" xMax="681" yMax="680">
      <contour>
        <pt x="488" y="129" on="0"/>
        <pt x="486" y="100" on="1"/>
        <pt x="497" y="97" on="0"/>
        <pt x="507" y="97" on="1"/>
        <pt x="565" y="97" on="0"/>
        <pt x="565" y="330" on="1"/>
        <pt x="565" y="431" on="0"/>
        <pt x="534" y="537" on="0"/>
        <pt x="456" y="581" on="0"/>
        <pt x="380" y="581" on="1"/>
        <pt x="297" y="581" on="0"/>
        <pt x="200" y="522" on="0"/>
        <pt x="154" y="378" on="0"/>
        <pt x="154" y="248" on="1"/>
        <pt x="154" y="121" on="0"/>
        <pt x="191" y="-21" on="0"/>
        <pt x="277" y="-82" on="0"/>
        <pt x="352" y="-82" on="1"/>
        <pt x="492" y="-82" on="0"/>
        <pt x="584" y="-50" on="1"/>
        <pt x="613" y="-92" on="0"/>
        <pt x="613" y="-125" on="1"/>
        <pt x="613" y="-156" on="0"/>
        <pt x="480" y="-191" on="0"/>
        <pt x="360" y="-191" on="1"/>
        <pt x="255" y="-191" on="0"/>
        <pt x="119" y="-125" on="0"/>
        <pt x="40" y="73" on="0"/>
        <pt x="40" y="263" on="1"/>
        <pt x="40" y="473" on="0"/>
        <pt x="220" y="680" on="0"/>
        <pt x="381" y="680" on="1"/>
        <pt x="480" y="680" on="0"/>
        <pt x="611" y="621" on="0"/>
        <pt x="681" y="482" on="0"/>
        <pt x="681" y="364" on="1"/>
        <pt x="681" y="150" on="0"/>
        <pt x="588" y="1" on="0"/>
        <pt x="520" y="1" on="1"/>
        <pt x="487" y="1" on="0"/>
        <pt x="459" y="22" on="1"/>
        <pt x="435" y="1" on="0"/>
        <pt x="355" y="1" on="1"/>
        <pt x="314" y="1" on="0"/>
        <pt x="261" y="23" on="0"/>
        <pt x="230" y="92" on="0"/>
        <pt x="230" y="159" on="1"/>
        <pt x="230" y="249" on="0"/>
        <pt x="288" y="324" on="0"/>
        <pt x="332" y="324" on="1"/>
        <pt x="368" y="324" on="0"/>
        <pt x="387" y="310" on="1"/>
        <pt x="388" y="368" on="1"/>
        <pt x="389" y="404" on="0"/>
        <pt x="350" y="404" on="1"/>
        <pt x="322" y="404" on="0"/>
        <pt x="283" y="393" on="0"/>
        <pt x="259" y="380" on="1"/>
        <pt x="247" y="403" on="0"/>
        <pt x="247" y="443" on="1"/>
        <pt x="248" y="458" on="0"/>
        <pt x="256" y="466" on="1"/>
        <pt x="296" y="495" on="0"/>
        <pt x="386" y="495" on="1"/>
        <pt x="442" y="495" on="0"/>
        <pt x="494" y="445" on="0"/>
        <pt x="493" y="382" on="1"/>
        <pt x="490" y="197" on="1"/>
      </contour>
      <contour>
        <pt x="385" y="246" on="0"/>
        <pt x="377" y="248" on="0"/>
        <pt x="369" y="248" on="1"/>
        <pt x="352" y="248" on="0"/>
        <pt x="336" y="212" on="0"/>
        <pt x="336" y="164" on="1"/>
        <pt x="336" y="114" on="0"/>
        <pt x="343" y="83" on="0"/>
        <pt x="360" y="83" on="1"/>
        <pt x="373" y="83" on="0"/>
        <pt x="383" y="106" on="0"/>
        <pt x="384" y="146" on="1"/>
        <pt x="386" y="246" on="1"/>
      </contour>
    </TTGlyph>
    <TTGlyph name="atilde" xMin="17" yMin="-10" xMax="321" yMax="694">
      <component glyphName=".ttfautohint" x="17" y="0" flags="0x0"/>
      <component glyphName="a" x="0" y="0" flags="0x1000"/>
      <component glyphName="tilde" x="29" y="0" flags="0x1000"/>
    </TTGlyph>
    <TTGlyph name="b" xMin="35" yMin="-10" xMax="345" yMax="735">
      <contour>
        <pt x="35" y="710" on="0"/>
        <pt x="52" y="730" on="0"/>
        <pt x="92" y="735" on="0"/>
        <pt x="146" y="735" on="1"/>
        <pt x="146" y="481" on="1"/>
        <pt x="181" y="510" on="0"/>
        <pt x="232" y="510" on="1"/>
        <pt x="292" y="510" on="0"/>
        <pt x="345" y="418" on="0"/>
        <pt x="345" y="307" on="1"/>
        <pt x="345" y="175" on="0"/>
        <pt x="288" y="35" on="0"/>
        <pt x="205" y="-10" on="0"/>
        <pt x="152" y="-10" on="1"/>
        <pt x="72" y="-10" on="0"/>
        <pt x="35" y="20" on="1"/>
        <pt x="35" y="685" on="1"/>
      </contour>
      <contour>
        <pt x="156" y="87" on="0"/>
        <pt x="169" y="87" on="1"/>
        <pt x="189" y="87" on="0"/>
        <pt x="220" y="174" on="0"/>
        <pt x="220" y="287" on="1"/>
        <pt x="220" y="354" on="0"/>
        <pt x="201" y="411" on="0"/>
        <pt x="181" y="411" on="1"/>
        <pt x="161" y="411" on="0"/>
        <pt x="146" y="396" on="1"/>
        <pt x="146" y="95" on="1"/>
      </contour>
    </TTGlyph>
    <TTGlyph name="backslash" xMin="10" yMin="-30" xMax="349" yMax="765">
      <contour>
        <pt x="349" y="-12" on="0"/>
        <pt x="349" y="-15" on="1"/>
        <pt x="349" y="-22" on="0"/>
        <pt x="332" y="-28" on="0"/>
        <pt x="277" y="-30" on="0"/>
        <pt x="236" y="-30" on="1"/>
        <pt x="12" y="736" on="1"/>
        <pt x="10" y="748" on="1"/>
        <pt x="10" y="756" on="0"/>
        <pt x="28" y="763" on="0"/>
        <pt x="82" y="765" on="0"/>
        <pt x="122" y="765" on="1"/>
        <pt x="347" y="-4" on="1"/>
      </contour>
    </TTGlyph>
    <TTGlyph name="bar" xMin="88" yMin="-200" xMax="201" yMax="815">
      <contour>
        <pt x="201" y="-188" on="0"/>
        <pt x="191" y="-198" on="0"/>
        <pt x="151" y="-200" on="0"/>
        <pt x="88" y="-200" on="1"/>
        <pt x="88" y="786" on="1"/>
        <pt x="88" y="801" on="0"/>
        <pt x="98" y="812" on="0"/>
        <pt x="141" y="815" on="0"/>
        <pt x="201" y="815" on="1"/>
        <pt x="201" y="-174" on="1"/>
      </contour>
    </TTGlyph>
    <TTGlyph name="braceleft" xMin="28" yMin="-149" xMax="250" yMax="744">
      <contour>
        <pt x="250" y="713" on="0"/>
        <pt x="250" y="675" on="1"/>
        <pt x="250" y="642" on="0"/>
        <pt x="233" y="637" on="1"/>
        <pt x="187" y="630" on="0"/>
        <pt x="187" y="564" on="1"/>
        <pt x="187" y="544" on="0"/>
        <pt x="191" y="490" on="1"/>
        <pt x="196" y="415" on="0"/>
        <pt x="196" y="394" on="1"/>
        <pt x="196" y="351" on="0"/>
        <pt x="172" y="310" on="0"/>
        <pt x="148" y="299" on="1"/>
        <pt x="173" y="288" on="0"/>
        <pt x="196" y="246" on="0"/>
        <pt x="196" y="203" on="1"/>
        <pt x="196" y="183" on="0"/>
        <pt x="191" y="113" on="1"/>
        <pt x="187" y="63" on="0"/>
        <pt x="187" y="41" on="1"/>
        <pt x="187" y="-2" on="0"/>
        <pt x="213" y="-42" on="0"/>
        <pt x="242" y="-47" on="1"/>
        <pt x="245" y="-74" on="0"/>
        <pt x="245" y="-89" on="1"/>
        <pt x="245" y="-116" on="0"/>
        <pt x="225" y="-149" on="0"/>
        <pt x="208" y="-149" on="1"/>
        <pt x="74" y="-149" on="0"/>
        <pt x="74" y="-13" on="1"/>
        <pt x="74" y="27" on="0"/>
        <pt x="81" y="79" on="1"/>
        <pt x="88" y="147" on="0"/>
        <pt x="88" y="170" on="1"/>
        <pt x="88" y="207" on="0"/>
        <pt x="65" y="241" on="0"/>
        <pt x="37" y="246" on="1"/>
        <pt x="28" y="265" on="0"/>
        <pt x="28" y="290" on="1"/>
        <pt x="28" y="327" on="0"/>
        <pt x="48" y="342" on="1"/>
        <pt x="62" y="352" on="0"/>
        <pt x="78" y="368" on="0"/>
        <pt x="88" y="403" on="0"/>
        <pt x="88" y="432" on="1"/>
        <pt x="88" y="470" on="0"/>
        <pt x="80" y="540" on="1"/>
        <pt x="74" y="602" on="0"/>
        <pt x="74" y="624" on="1"/>
        <pt x="74" y="683" on="0"/>
        <pt x="158" y="743" on="0"/>
        <pt x="229" y="744" on="1"/>
      </contour>
    </TTGlyph>
    <TTGlyph name="braceright" xMin="17" yMin="-149" xMax="239" yMax="744">
      <contour>
        <pt x="17" y="-119" on="0"/>
        <pt x="17" y="-80" on="1"/>
        <pt x="17" y="-47" on="0"/>
        <pt x="34" y="-43" on="1"/>
        <pt x="80" y="-36" on="0"/>
        <pt x="80" y="30" on="1"/>
        <pt x="80" y="51" on="0"/>
        <pt x="76" y="105" on="1"/>
        <pt x="72" y="165" on="0"/>
        <pt x="72" y="200" on="1"/>
        <pt x="72" y="244" on="0"/>
        <pt x="94" y="285" on="0"/>
        <pt x="118" y="296" on="1"/>
        <pt x="95" y="307" on="0"/>
        <pt x="72" y="349" on="0"/>
        <pt x="72" y="392" on="1"/>
        <pt x="72" y="425" on="0"/>
        <pt x="76" y="481" on="1"/>
        <pt x="80" y="533" on="0"/>
        <pt x="80" y="554" on="1"/>
        <pt x="80" y="596" on="0"/>
        <pt x="54" y="636" on="0"/>
        <pt x="25" y="642" on="1"/>
        <pt x="21" y="665" on="0"/>
        <pt x="21" y="684" on="1"/>
        <pt x="21" y="711" on="0"/>
        <pt x="42" y="744" on="0"/>
        <pt x="60" y="744" on="1"/>
        <pt x="193" y="744" on="0"/>
        <pt x="193" y="608" on="1"/>
        <pt x="193" y="585" on="0"/>
        <pt x="186" y="517" on="1"/>
        <pt x="179" y="465" on="0"/>
        <pt x="179" y="424" on="1"/>
        <pt x="179" y="386" on="0"/>
        <pt x="201" y="353" on="0"/>
        <pt x="229" y="348" on="1"/>
        <pt x="239" y="327" on="0"/>
        <pt x="239" y="305" on="1"/>
        <pt x="239" y="269" on="0"/>
        <pt x="218" y="253" on="1"/>
        <pt x="204" y="242" on="0"/>
        <pt x="189" y="226" on="0"/>
        <pt x="179" y="192" on="0"/>
        <pt x="179" y="162" on="1"/>
        <pt x="179" y="136" on="0"/>
        <pt x="186" y="54" on="1"/>
        <pt x="193" y="0" on="0"/>
        <pt x="193" y="-30" on="1"/>
        <pt x="193" y="-88" on="0"/>
        <pt x="108" y="-149" on="0"/>
        <pt x="38" y="-149" on="1"/>
      </contour>
    </TTGlyph>
    <TTGlyph name="bracketleft" xMin="88" yMin="-200" xMax="343" yMax="821">
      <contour>
        <pt x="343" y="770" on="0"/>
        <pt x="340" y="731" on="0"/>
        <pt x="327" y="717" on="0"/>
        <pt x="311" y="717" on="1"/>
        <pt x="201" y="717" on="1"/>
        <pt x="201" y="-96" on="1"/>
        <pt x="343" y="-96" on="1"/>
        <pt x="343" y="-151" on="0"/>
        <pt x="339" y="-190" on="0"/>
        <pt x="328" y="-200" on="0"/>
        <pt x="311" y="-200" on="1"/>
        <pt x="88" y="-200" on="1"/>
        <pt x="88" y="789" on="1"/>
        <pt x="88" y="805" on="0"/>
        <pt x="96" y="816" on="0"/>
        <pt x="130" y="821" on="0"/>
        <pt x="173" y="821" on="1"/>
        <pt x="343" y="821" on="1"/>
      </contour>
    </TTGlyph>
    <TTGlyph name="bracketright" xMin="8" yMin="-200" xMax="263" yMax="822">
      <contour>
        <pt x="8" y="-149" on="0"/>
        <pt x="11" y="-110" on="0"/>
        <pt x="24" y="-96" on="0"/>
        <pt x="40" y="-96" on="1"/>
        <pt x="150" y="-96" on="1"/>
        <pt x="150" y="718" on="1"/>
        <pt x="8" y="718" on="1"/>
        <pt x="8" y="773" on="0"/>
        <pt x="12" y="812" on="0"/>
        <pt x="23" y="822" on="0"/>
        <pt x="40" y="822" on="1"/>
        <pt x="263" y="822" on="1"/>
        <pt x="263" y="-168" on="1"/>
        <pt x="263" y="-184" on="0"/>
        <pt x="255" y="-195" on="0"/>
        <pt x="221" y="-200" on="0"/>
        <pt x="178" y="-200" on="1"/>
        <pt x="8" y="-200" on="1"/>
      </contour>
    </TTGlyph>
    <TTGlyph name="breve" xMin="2" yMin="542" xMax="278" yMax="717">
      <contour>
        <pt x="69" y="690" on="0"/>
        <pt x="109" y="648" on="0"/>
        <pt x="135" y="648" on="1"/>
        <pt x="161" y="648" on="0"/>
        <pt x="190" y="676" on="0"/>
        <pt x="205" y="702" on="1"/>
        <pt x="212" y="713" on="0"/>
        <pt x="224" y="713" on="1"/>
        <pt x="240" y="713" on="0"/>
        <pt x="273" y="676" on="0"/>
        <pt x="278" y="655" on="1"/>
        <pt x="236" y="542" on="0"/>
        <pt x="134" y="542" on="1"/>
        <pt x="103" y="542" on="0"/>
        <pt x="41" y="575" on="0"/>
        <pt x="2" y="627" on="0"/>
        <pt x="2" y="654" on="1"/>
        <pt x="2" y="676" on="0"/>
        <pt x="27" y="705" on="0"/>
        <pt x="59" y="717" on="1"/>
      </contour>
    </TTGlyph>
    <TTGlyph name="breve.cyr" xMin="9" yMin="559" xMax="289" yMax="717">
      <contour>
        <pt x="85" y="670" on="0"/>
        <pt x="114" y="633" on="0"/>
        <pt x="146" y="633" on="1"/>
        <pt x="174" y="633" on="0"/>
        <pt x="201" y="666" on="0"/>
        <pt x="212" y="704" on="1"/>
        <pt x="215" y="712" on="0"/>
        <pt x="224" y="712" on="1"/>
        <pt x="240" y="712" on="0"/>
        <pt x="284" y="679" on="0"/>
        <pt x="289" y="661" on="1"/>
        <pt x="265" y="609" on="0"/>
        <pt x="203" y="559" on="0"/>
        <pt x="142" y="559" on="1"/>
        <pt x="88" y="559" on="0"/>
        <pt x="14" y="615" on="0"/>
        <pt x="9" y="656" on="1"/>
        <pt x="9" y="698" on="0"/>
        <pt x="74" y="717" on="1"/>
      </contour>
    </TTGlyph>
    <TTGlyph name="brokenbar" xMin="58" yMin="-198" xMax="169" yMax="744">
      <contour>
        <pt x="169" y="344" on="0"/>
        <pt x="161" y="327" on="0"/>
        <pt x="137" y="321" on="0"/>
        <pt x="112" y="321" on="1"/>
        <pt x="83" y="321" on="0"/>
        <pt x="58" y="327" on="1"/>
        <pt x="58" y="699" on="1"/>
        <pt x="58" y="725" on="0"/>
        <pt x="83" y="744" on="0"/>
        <pt x="117" y="744" on="1"/>
        <pt x="145" y="744" on="0"/>
        <pt x="169" y="736" on="1"/>
        <pt x="169" y="361" on="1"/>
      </contour>
      <contour>
        <pt x="169" y="-176" on="0"/>
        <pt x="161" y="-192" on="0"/>
        <pt x="137" y="-198" on="0"/>
        <pt x="112" y="-198" on="1"/>
        <pt x="78" y="-198" on="0"/>
        <pt x="58" y="-192" on="1"/>
        <pt x="58" y="182" on="1"/>
        <pt x="58" y="208" on="0"/>
        <pt x="83" y="227" on="0"/>
        <pt x="117" y="227" on="1"/>
        <pt x="145" y="227" on="0"/>
        <pt x="169" y="219" on="1"/>
        <pt x="169" y="-158" on="1"/>
      </contour>
    </TTGlyph>
    <TTGlyph name="bullet" xMin="29" yMin="197" xMax="206" yMax="377">
      <contour>
        <pt x="29" y="324" on="0"/>
        <pt x="77" y="377" on="0"/>
        <pt x="118" y="377" on="1"/>
        <pt x="166" y="377" on="0"/>
        <pt x="206" y="331" on="0"/>
        <pt x="206" y="286" on="1"/>
        <pt x="206" y="248" on="0"/>
        <pt x="159" y="197" on="0"/>
        <pt x="118" y="197" on="1"/>
        <pt x="69" y="197" on="0"/>
        <pt x="29" y="241" on="0"/>
        <pt x="29" y="286" on="1"/>
      </contour>
    </TTGlyph>
    <TTGlyph name="bulletoperator" xMin="29" yMin="197" xMax="206" yMax="377">
      <component glyphName=".ttfautohint" x="29" y="197" flags="0x0"/>
      <component glyphName="bullet" x="0" y="0" flags="0x1000"/>
    </TTGlyph>
    <TTGlyph name="c" xMin="20" yMin="-10" xMax="281" yMax="510">
      <contour>
        <pt x="281" y="429" on="0"/>
        <pt x="271" y="400" on="1"/>
        <pt x="241" y="413" on="0"/>
        <pt x="208" y="413" on="1"/>
        <pt x="175" y="413" on="0"/>
        <pt x="136" y="345" on="0"/>
        <pt x="136" y="241" on="1"/>
        <pt x="136" y="181" on="0"/>
        <pt x="148" y="116" on="0"/>
        <pt x="177" y="88" on="0"/>
        <pt x="204" y="88" on="1"/>
        <pt x="240" y="88" on="0"/>
        <pt x="268" y="102" on="1"/>
        <pt x="277" y="66" on="0"/>
        <pt x="277" y="44" on="1"/>
        <pt x="277" y="19" on="0"/>
        <pt x="216" y="-10" on="0"/>
        <pt x="168" y="-10" on="1"/>
        <pt x="114" y="-10" on="0"/>
        <pt x="51" y="30" on="0"/>
        <pt x="20" y="137" on="0"/>
        <pt x="20" y="239" on="1"/>
        <pt x="20" y="351" on="0"/>
        <pt x="71" y="471" on="0"/>
        <pt x="148" y="510" on="0"/>
        <pt x="198" y="510" on="1"/>
        <pt x="235" y="510" on="0"/>
        <pt x="281" y="483" on="0"/>
        <pt x="281" y="459" on="1"/>
      </contour>
    </TTGlyph>
    <TTGlyph name="cacute" xMin="20" yMin="-10" xMax="281" yMax="728">
      <component glyphName=".ttfautohint" x="20" y="0" flags="0x0"/>
      <component glyphName="c" x="0" y="0" flags="0x1000"/>
      <component glyphName="acute" x="17" y="0" flags="0x1000"/>
    </TTGlyph>
    <TTGlyph name="caron" xMin="22" yMin="542" xMax="259" yMax="720">
      <contour>
        <pt x="130" y="542" on="0"/>
        <pt x="41" y="623" on="0"/>
        <pt x="22" y="650" on="1"/>
        <pt x="31" y="676" on="0"/>
        <pt x="60" y="720" on="0"/>
        <pt x="71" y="720" on="1"/>
        <pt x="81" y="720" on="0"/>
        <pt x="116" y="687" on="0"/>
        <pt x="147" y="651" on="0"/>
        <pt x="151" y="645" on="1"/>
        <pt x="166" y="669" on="0"/>
        <pt x="195" y="699" on="0"/>
        <pt x="213" y="713" on="0"/>
        <pt x="215" y="714" on="1"/>
        <pt x="259" y="691" on="0"/>
        <pt x="259" y="666" on="1"/>
        <pt x="259" y="654" on="0"/>
        <pt x="211" y="594" on="0"/>
        <pt x="155" y="542" on="0"/>
        <pt x="146" y="542" on="1"/>
      </contour>
    </TTGlyph>
    <TTGlyph name="ccaron" xMin="20" yMin="-10" xMax="281" yMax="720">
      <component glyphName=".ttfautohint" x="20" y="0" flags="0x0"/>
      <component glyphName="c" x="0" y="0" flags="0x1000"/>
      <component glyphName="caron" x="6" y="0" flags="0x1000"/>
    </TTGlyph>
    <TTGlyph name="ccedilla" xMin="20" yMin="-221" xMax="281" yMax="510">
      <contour>
        <pt x="62" y="12" on="0"/>
        <pt x="20" y="120" on="0"/>
        <pt x="20" y="239" on="1"/>
        <pt x="20" y="351" on="0"/>
        <pt x="71" y="471" on="0"/>
        <pt x="148" y="510" on="0"/>
        <pt x="198" y="510" on="1"/>
        <pt x="235" y="510" on="0"/>
        <pt x="281" y="483" on="0"/>
        <pt x="281" y="459" on="1"/>
        <pt x="281" y="429" on="0"/>
        <pt x="271" y="400" on="1"/>
        <pt x="241" y="413" on="0"/>
        <pt x="208" y="413" on="1"/>
        <pt x="175" y="413" on="0"/>
        <pt x="136" y="345" on="0"/>
        <pt x="136" y="241" on="1"/>
        <pt x="136" y="181" on="0"/>
        <pt x="148" y="116" on="0"/>
        <pt x="177" y="88" on="0"/>
        <pt x="204" y="88" on="1"/>
        <pt x="240" y="88" on="0"/>
        <pt x="268" y="102" on="1"/>
        <pt x="277" y="66" on="0"/>
        <pt x="277" y="44" on="1"/>
        <pt x="277" y="19" on="0"/>
        <pt x="216" y="-10" on="0"/>
        <pt x="168" y="-10" on="1"/>
        <pt x="163" y="-10" on="1"/>
        <pt x="155" y="-57" on="1"/>
        <pt x="171" y="-57" on="1"/>
        <pt x="192" y="-57" on="0"/>
        <pt x="222" y="-93" on="0"/>
        <pt x="222" y="-128" on="1"/>
        <pt x="222" y="-167" on="0"/>
        <pt x="173" y="-221" on="0"/>
        <pt x="132" y="-221" on="1"/>
        <pt x="117" y="-221" on="0"/>
        <pt x="90" y="-214" on="0"/>
        <pt x="74" y="-207" on="0"/>
        <pt x="72" y="-206" on="1"/>
        <pt x="73" y="-199" on="0"/>
        <pt x="84" y="-159" on="0"/>
        <pt x="88" y="-155" on="1"/>
        <pt x="91" y="-152" on="0"/>
        <pt x="109" y="-161" on="0"/>
        <pt x="124" y="-168" on="0"/>
        <pt x="134" y="-168" on="1"/>
        <pt x="162" y="-168" on="0"/>
        <pt x="162" y="-136" on="1"/>
        <pt x="162" y="-104" on="0"/>
        <pt x="136" y="-104" on="1"/>
        <pt x="117" y="-104" on="0"/>
        <pt x="94" y="-109" on="0"/>
        <pt x="91" y="-110" on="1"/>
        <pt x="109" y="-3" on="1"/>
      </contour>
    </TTGlyph>
    <TTGlyph name="cedilla" xMin="65" yMin="-221" xMax="215" yMax="2">
      <contour>
        <pt x="164" y="-57" on="1"/>
        <pt x="185" y="-57" on="0"/>
        <pt x="215" y="-93" on="0"/>
        <pt x="215" y="-128" on="1"/>
        <pt x="215" y="-167" on="0"/>
        <pt x="166" y="-221" on="0"/>
        <pt x="125" y="-221" on="1"/>
        <pt x="110" y="-221" on="0"/>
        <pt x="83" y="-214" on="0"/>
        <pt x="67" y="-207" on="0"/>
        <pt x="65" y="-206" on="1"/>
        <pt x="66" y="-199" on="0"/>
        <pt x="77" y="-159" on="0"/>
        <pt x="81" y="-155" on="1"/>
        <pt x="84" y="-152" on="0"/>
        <pt x="102" y="-161" on="0"/>
        <pt x="117" y="-168" on="0"/>
        <pt x="127" y="-168" on="1"/>
        <pt x="155" y="-168" on="0"/>
        <pt x="155" y="-136" on="1"/>
        <pt x="155" y="-104" on="0"/>
        <pt x="129" y="-104" on="1"/>
        <pt x="110" y="-104" on="0"/>
        <pt x="87" y="-109" on="0"/>
        <pt x="84" y="-110" on="1"/>
        <pt x="103" y="2" on="1"/>
        <pt x="159" y="2" on="1"/>
        <pt x="148" y="-57" on="1"/>
      </contour>
    </TTGlyph>
    <TTGlyph name="cent" xMin="73" yMin="-125" xMax="333" yMax="611">
      <contour>
        <pt x="333" y="492" on="0"/>
        <pt x="333" y="473" on="1"/>
        <pt x="333" y="422" on="0"/>
        <pt x="323" y="395" on="1"/>
        <pt x="293" y="408" on="0"/>
        <pt x="260" y="408" on="1"/>
        <pt x="238" y="408" on="0"/>
        <pt x="205" y="386" on="0"/>
        <pt x="183" y="311" on="0"/>
        <pt x="183" y="239" on="1"/>
        <pt x="183" y="172" on="0"/>
        <pt x="196" y="110" on="0"/>
        <pt x="224" y="92" on="0"/>
        <pt x="252" y="92" on="1"/>
        <pt x="267" y="92" on="0"/>
        <pt x="308" y="100" on="0"/>
        <pt x="320" y="106" on="1"/>
        <pt x="329" y="78" on="0"/>
        <pt x="329" y="38" on="1"/>
        <pt x="329" y="23" on="0"/>
        <pt x="291" y="-3" on="0"/>
        <pt x="264" y="-8" on="1"/>
        <pt x="264" y="-85" on="1"/>
        <pt x="264" y="-110" on="0"/>
        <pt x="217" y="-125" on="0"/>
        <pt x="163" y="-125" on="1"/>
        <pt x="163" y="-3" on="1"/>
        <pt x="117" y="10" on="0"/>
        <pt x="73" y="112" on="0"/>
        <pt x="73" y="232" on="1"/>
        <pt x="73" y="459" on="0"/>
        <pt x="190" y="500" on="1"/>
        <pt x="190" y="567" on="1"/>
        <pt x="190" y="593" on="0"/>
        <pt x="238" y="611" on="0"/>
        <pt x="291" y="611" on="1"/>
        <pt x="291" y="504" on="1"/>
      </contour>
    </TTGlyph>
    <TTGlyph name="circumflex" xMin="6" yMin="550" xMax="274" yMax="717">
      <contour>
        <pt x="133" y="717" on="0"/>
        <pt x="145" y="717" on="1"/>
        <pt x="163" y="717" on="0"/>
        <pt x="176" y="703" on="1"/>
        <pt x="183" y="696" on="0"/>
        <pt x="230" y="645" on="0"/>
        <pt x="274" y="589" on="0"/>
        <pt x="274" y="577" on="1"/>
        <pt x="274" y="550" on="0"/>
        <pt x="197" y="550" on="1"/>
        <pt x="194" y="552" on="0"/>
        <pt x="176" y="571" on="0"/>
        <pt x="153" y="602" on="0"/>
        <pt x="144" y="619" on="1"/>
        <pt x="141" y="614" on="0"/>
        <pt x="120" y="581" on="0"/>
        <pt x="92" y="551" on="0"/>
        <pt x="81" y="551" on="1"/>
        <pt x="29" y="551" on="0"/>
        <pt x="6" y="580" on="1"/>
        <pt x="123" y="714" on="1"/>
      </contour>
    </TTGlyph>
    <TTGlyph name="colon" xMin="24" yMin="-7" xMax="165" yMax="458">
      <contour>
        <pt x="24" y="416" on="0"/>
        <pt x="62" y="458" on="0"/>
        <pt x="95" y="458" on="1"/>
        <pt x="133" y="458" on="0"/>
        <pt x="165" y="421" on="0"/>
        <pt x="165" y="385" on="1"/>
        <pt x="165" y="355" on="0"/>
        <pt x="128" y="314" on="0"/>
        <pt x="95" y="314" on="1"/>
        <pt x="56" y="314" on="0"/>
        <pt x="24" y="349" on="0"/>
        <pt x="24" y="385" on="1"/>
      </contour>
      <contour>
        <pt x="24" y="94" on="0"/>
        <pt x="63" y="136" on="0"/>
        <pt x="95" y="136" on="1"/>
        <pt x="165" y="136" on="0"/>
        <pt x="165" y="64" on="1"/>
        <pt x="165" y="34" on="0"/>
        <pt x="128" y="-7" on="0"/>
        <pt x="95" y="-7" on="1"/>
        <pt x="56" y="-7" on="0"/>
        <pt x="24" y="28" on="0"/>
        <pt x="24" y="64" on="1"/>
      </contour>
    </TTGlyph>
    <TTGlyph name="comma" xMin="29" yMin="-96" xMax="164" yMax="132">
      <contour>
        <pt x="29" y="95" on="0"/>
        <pt x="66" y="132" on="0"/>
        <pt x="93" y="132" on="1"/>
        <pt x="127" y="132" on="0"/>
        <pt x="164" y="95" on="0"/>
        <pt x="164" y="60" on="1"/>
        <pt x="164" y="21" on="0"/>
        <pt x="129" y="-50" on="0"/>
        <pt x="84" y="-96" on="0"/>
        <pt x="72" y="-96" on="1"/>
        <pt x="37" y="-96" on="0"/>
        <pt x="30" y="-67" on="1"/>
        <pt x="46" y="-41" on="0"/>
        <pt x="53" y="-16" on="0"/>
        <pt x="57" y="8" on="1"/>
        <pt x="29" y="25" on="0"/>
        <pt x="29" y="68" on="1"/>
      </contour>
    </TTGlyph>
    <TTGlyph name="commaaccentcomb" xMin="75" yMin="-266" xMax="209" yMax="-37">
      <contour>
        <pt x="75" y="-75" on="0"/>
        <pt x="112" y="-37" on="0"/>
        <pt x="139" y="-37" on="1"/>
        <pt x="209" y="-37" on="0"/>
        <pt x="209" y="-110" on="1"/>
        <pt x="209" y="-148" on="0"/>
        <pt x="174" y="-220" on="0"/>
        <pt x="130" y="-266" on="0"/>
        <pt x="118" y="-266" on="1"/>
        <pt x="83" y="-266" on="0"/>
        <pt x="76" y="-237" on="1"/>
        <pt x="92" y="-211" on="0"/>
        <pt x="99" y="-186" on="0"/>
        <pt x="103" y="-162" on="1"/>
        <pt x="75" y="-145" on="0"/>
        <pt x="75" y="-102" on="1"/>
      </contour>
    </TTGlyph>
    <TTGlyph name="copyright" xMin="32" yMin="319" xMax="448" yMax="759">
      <contour>
        <pt x="32" y="759" on="0"/>
        <pt x="246" y="759" on="1"/>
        <pt x="352" y="759" on="0"/>
        <pt x="448" y="660" on="0"/>
        <pt x="448" y="545" on="1"/>
        <pt x="448" y="437" on="0"/>
        <pt x="340" y="319" on="0"/>
        <pt x="236" y="319" on="1"/>
        <pt x="132" y="319" on="0"/>
        <pt x="32" y="429" on="0"/>
        <pt x="32" y="542" on="1"/>
      </contour>
      <contour>
        <pt x="113" y="465" on="0"/>
        <pt x="175" y="396" on="0"/>
        <pt x="238" y="396" on="1"/>
        <pt x="293" y="396" on="0"/>
        <pt x="365" y="465" on="0"/>
        <pt x="365" y="545" on="1"/>
        <pt x="365" y="688" on="0"/>
        <pt x="244" y="688" on="1"/>
        <pt x="113" y="688" on="0"/>
        <pt x="113" y="545" on="1"/>
      </contour>
      <contour>
        <pt x="297" y="625" on="0"/>
        <pt x="292" y="607" on="1"/>
        <pt x="270" y="612" on="0"/>
        <pt x="259" y="612" on="1"/>
        <pt x="241" y="612" on="0"/>
        <pt x="221" y="582" on="0"/>
        <pt x="221" y="532" on="1"/>
        <pt x="221" y="506" on="0"/>
        <pt x="228" y="481" on="0"/>
        <pt x="241" y="474" on="0"/>
        <pt x="255" y="474" on="1"/>
        <pt x="268" y="474" on="0"/>
        <pt x="289" y="481" on="1"/>
        <pt x="295" y="468" on="0"/>
        <pt x="295" y="445" on="1"/>
        <pt x="295" y="436" on="0"/>
        <pt x="267" y="425" on="0"/>
        <pt x="249" y="425" on="1"/>
        <pt x="215" y="425" on="0"/>
        <pt x="180" y="441" on="0"/>
        <pt x="163" y="487" on="0"/>
        <pt x="163" y="534" on="1"/>
        <pt x="163" y="662" on="0"/>
        <pt x="254" y="662" on="1"/>
        <pt x="268" y="662" on="0"/>
        <pt x="297" y="651" on="0"/>
        <pt x="297" y="645" on="1"/>
      </contour>
    </TTGlyph>
    <TTGlyph name="currency" xMin="7" yMin="-30" xMax="592" yMax="555">
      <contour>
        <pt x="560" y="5" on="0"/>
        <pt x="530" y="-20" on="0"/>
        <pt x="520" y="-20" on="1"/>
        <pt x="514" y="-20" on="0"/>
        <pt x="511" y="-16" on="1"/>
        <pt x="426" y="69" on="1"/>
        <pt x="380" y="38" on="0"/>
        <pt x="302" y="38" on="1"/>
        <pt x="220" y="38" on="0"/>
        <pt x="173" y="68" on="1"/>
        <pt x="75" y="-30" on="1"/>
        <pt x="42" y="3" on="0"/>
        <pt x="17" y="32" on="0"/>
        <pt x="17" y="42" on="1"/>
        <pt x="17" y="47" on="0"/>
        <pt x="21" y="51" on="1"/>
        <pt x="114" y="145" on="1"/>
        <pt x="98" y="192" on="0"/>
        <pt x="98" y="266" on="1"/>
        <pt x="98" y="337" on="0"/>
        <pt x="111" y="383" on="1"/>
        <pt x="7" y="487" on="1"/>
        <pt x="40" y="520" on="0"/>
        <pt x="69" y="545" on="0"/>
        <pt x="79" y="545" on="1"/>
        <pt x="85" y="545" on="0"/>
        <pt x="89" y="541" on="1"/>
        <pt x="164" y="466" on="1"/>
        <pt x="211" y="503" on="0"/>
        <pt x="304" y="503" on="1"/>
        <pt x="393" y="503" on="0"/>
        <pt x="438" y="468" on="1"/>
        <pt x="525" y="555" on="1"/>
        <pt x="557" y="523" on="0"/>
        <pt x="582" y="493" on="0"/>
        <pt x="582" y="483" on="1"/>
        <pt x="582" y="477" on="0"/>
        <pt x="578" y="473" on="1"/>
        <pt x="490" y="385" on="1"/>
        <pt x="501" y="347" on="0"/>
        <pt x="501" y="282" on="1"/>
        <pt x="501" y="196" on="0"/>
        <pt x="483" y="146" on="1"/>
        <pt x="592" y="37" on="1"/>
      </contour>
      <contour>
        <pt x="353" y="131" on="0"/>
        <pt x="394" y="201" on="0"/>
        <pt x="394" y="282" on="1"/>
        <pt x="394" y="353" on="0"/>
        <pt x="355" y="413" on="0"/>
        <pt x="309" y="413" on="1"/>
        <pt x="255" y="413" on="0"/>
        <pt x="209" y="344" on="0"/>
        <pt x="209" y="263" on="1"/>
        <pt x="209" y="192" on="0"/>
        <pt x="253" y="131" on="0"/>
        <pt x="305" y="131" on="1"/>
      </contour>
    </TTGlyph>
    <TTGlyph name="d" xMin="20" yMin="-10" xMax="328" yMax="735">
      <contour>
        <pt x="217" y="711" on="0"/>
        <pt x="234" y="730" on="0"/>
        <pt x="275" y="735" on="0"/>
        <pt x="328" y="735" on="1"/>
        <pt x="328" y="20" on="1"/>
        <pt x="260" y="-10" on="0"/>
        <pt x="182" y="-10" on="1"/>
        <pt x="132" y="-10" on="0"/>
        <pt x="63" y="23" on="0"/>
        <pt x="20" y="127" on="0"/>
        <pt x="20" y="227" on="1"/>
        <pt x="20" y="373" on="0"/>
        <pt x="95" y="510" on="0"/>
        <pt x="158" y="510" on="1"/>
        <pt x="195" y="510" on="0"/>
        <pt x="217" y="492" on="1"/>
        <pt x="217" y="686" on="1"/>
      </contour>
      <contour>
        <pt x="209" y="415" on="0"/>
        <pt x="195" y="415" on="1"/>
        <pt x="182" y="415" on="0"/>
        <pt x="160" y="394" on="0"/>
        <pt x="145" y="317" on="0"/>
        <pt x="145" y="241" on="1"/>
        <pt x="145" y="154" on="0"/>
        <pt x="163" y="88" on="0"/>
        <pt x="183" y="88" on="1"/>
        <pt x="204" y="88" on="0"/>
        <pt x="217" y="98" on="1"/>
        <pt x="217" y="410" on="1"/>
      </contour>
    </TTGlyph>
    <TTGlyph name="dagger" xMin="22" yMin="-7" xMax="405" yMax="707">
      <contour>
        <pt x="156" y="662" on="0"/>
        <pt x="156" y="664" on="1"/>
        <pt x="156" y="684" on="0"/>
        <pt x="194" y="707" on="0"/>
        <pt x="220" y="707" on="1"/>
        <pt x="257" y="707" on="0"/>
        <pt x="276" y="683" on="1"/>
        <pt x="245" y="510" on="1"/>
        <pt x="238" y="487" on="0"/>
        <pt x="216" y="487" on="1"/>
        <pt x="203" y="487" on="0"/>
        <pt x="190" y="495" on="1"/>
        <pt x="158" y="654" on="1"/>
      </contour>
      <contour>
        <pt x="365" y="524" on="0"/>
        <pt x="369" y="524" on="1"/>
        <pt x="386" y="524" on="0"/>
        <pt x="405" y="487" on="0"/>
        <pt x="405" y="460" on="1"/>
        <pt x="405" y="420" on="0"/>
        <pt x="382" y="402" on="1"/>
        <pt x="269" y="432" on="1"/>
        <pt x="247" y="439" on="0"/>
        <pt x="247" y="461" on="1"/>
        <pt x="247" y="473" on="0"/>
        <pt x="254" y="487" on="1"/>
        <pt x="353" y="520" on="1"/>
      </contour>
      <contour>
        <pt x="72" y="403" on="0"/>
        <pt x="66" y="403" on="1"/>
        <pt x="46" y="403" on="0"/>
        <pt x="22" y="439" on="0"/>
        <pt x="22" y="462" on="1"/>
        <pt x="22" y="502" on="0"/>
        <pt x="47" y="523" on="1"/>
        <pt x="161" y="490" on="1"/>
        <pt x="186" y="481" on="0"/>
        <pt x="186" y="460" on="1"/>
        <pt x="186" y="448" on="0"/>
        <pt x="177" y="434" on="1"/>
        <pt x="75" y="404" on="1"/>
      </contour>
      <contour>
        <pt x="277" y="21" on="0"/>
        <pt x="241" y="-7" on="0"/>
        <pt x="214" y="-7" on="1"/>
        <pt x="173" y="-7" on="0"/>
        <pt x="156" y="18" on="1"/>
        <pt x="187" y="404" on="1"/>
        <pt x="191" y="431" on="0"/>
        <pt x="215" y="431" on="1"/>
        <pt x="231" y="431" on="0"/>
        <pt x="243" y="421" on="1"/>
        <pt x="274" y="47" on="1"/>
      </contour>
    </TTGlyph>
    <TTGlyph name="daggerdbl" xMin="22" yMin="-4" xMax="405" yMax="707">
      <contour>
        <pt x="156" y="662" on="0"/>
        <pt x="156" y="664" on="1"/>
        <pt x="156" y="684" on="0"/>
        <pt x="194" y="707" on="0"/>
        <pt x="220" y="707" on="1"/>
        <pt x="257" y="707" on="0"/>
        <pt x="276" y="683" on="1"/>
        <pt x="245" y="510" on="1"/>
        <pt x="238" y="487" on="0"/>
        <pt x="216" y="487" on="1"/>
        <pt x="203" y="487" on="0"/>
        <pt x="190" y="495" on="1"/>
        <pt x="158" y="654" on="1"/>
      </contour>
      <contour>
        <pt x="365" y="524" on="0"/>
        <pt x="369" y="524" on="1"/>
        <pt x="386" y="524" on="0"/>
        <pt x="405" y="487" on="0"/>
        <pt x="405" y="460" on="1"/>
        <pt x="405" y="420" on="0"/>
        <pt x="382" y="402" on="1"/>
        <pt x="269" y="432" on="1"/>
        <pt x="247" y="439" on="0"/>
        <pt x="247" y="461" on="1"/>
        <pt x="247" y="473" on="0"/>
        <pt x="254" y="487" on="1"/>
        <pt x="353" y="520" on="1"/>
      </contour>
      <contour>
        <pt x="72" y="403" on="0"/>
        <pt x="66" y="403" on="1"/>
        <pt x="46" y="403" on="0"/>
        <pt x="22" y="439" on="0"/>
        <pt x="22" y="462" on="1"/>
        <pt x="22" y="502" on="0"/>
        <pt x="47" y="523" on="1"/>
        <pt x="161" y="490" on="1"/>
        <pt x="186" y="481" on="0"/>
        <pt x="186" y="460" on="1"/>
        <pt x="186" y="448" on="0"/>
        <pt x="177" y="434" on="1"/>
        <pt x="75" y="404" on="1"/>
      </contour>
      <contour>
        <pt x="180" y="418" on="0"/>
        <pt x="200" y="434" on="0"/>
        <pt x="216" y="434" on="1"/>
        <pt x="232" y="434" on="0"/>
        <pt x="250" y="425" on="1"/>
        <pt x="250" y="283" on="1"/>
        <pt x="250" y="255" on="0"/>
        <pt x="215" y="255" on="1"/>
        <pt x="201" y="255" on="0"/>
        <pt x="180" y="263" on="1"/>
        <pt x="180" y="403" on="1"/>
      </contour>
      <contour>
        <pt x="66" y="164" on="0"/>
        <pt x="59" y="164" on="1"/>
        <pt x="42" y="164" on="0"/>
        <pt x="22" y="202" on="0"/>
        <pt x="22" y="228" on="1"/>
        <pt x="22" y="268" on="0"/>
        <pt x="46" y="286" on="1"/>
        <pt x="159" y="256" on="1"/>
        <pt x="181" y="248" on="0"/>
        <pt x="181" y="227" on="1"/>
        <pt x="181" y="216" on="0"/>
        <pt x="174" y="200" on="1"/>
        <pt x="74" y="167" on="1"/>
      </contour>
      <contour>
        <pt x="355" y="283" on="0"/>
        <pt x="361" y="283" on="1"/>
        <pt x="382" y="283" on="0"/>
        <pt x="405" y="248" on="0"/>
        <pt x="405" y="224" on="1"/>
        <pt x="405" y="184" on="0"/>
        <pt x="381" y="163" on="1"/>
        <pt x="267" y="196" on="1"/>
        <pt x="242" y="205" on="0"/>
        <pt x="242" y="227" on="1"/>
        <pt x="242" y="240" on="0"/>
        <pt x="250" y="253" on="1"/>
        <pt x="352" y="282" on="1"/>
      </contour>
      <contour>
        <pt x="272" y="38" on="1"/>
        <pt x="272" y="18" on="0"/>
        <pt x="234" y="-4" on="0"/>
        <pt x="208" y="-4" on="1"/>
        <pt x="171" y="-4" on="0"/>
        <pt x="153" y="20" on="1"/>
        <pt x="183" y="177" on="1"/>
        <pt x="190" y="201" on="0"/>
        <pt x="213" y="201" on="1"/>
        <pt x="225" y="201" on="0"/>
        <pt x="238" y="193" on="1"/>
        <pt x="271" y="49" on="1"/>
      </contour>
    </TTGlyph>
    <TTGlyph name="dcaron" xMin="20" yMin="-10" xMax="501" yMax="735">
      <contour>
        <pt x="217" y="711" on="0"/>
        <pt x="234" y="730" on="0"/>
        <pt x="275" y="735" on="0"/>
        <pt x="328" y="735" on="1"/>
        <pt x="328" y="20" on="1"/>
        <pt x="260" y="-10" on="0"/>
        <pt x="182" y="-10" on="1"/>
        <pt x="132" y="-10" on="0"/>
        <pt x="63" y="23" on="0"/>
        <pt x="20" y="127" on="0"/>
        <pt x="20" y="227" on="1"/>
        <pt x="20" y="373" on="0"/>
        <pt x="95" y="510" on="0"/>
        <pt x="158" y="510" on="1"/>
        <pt x="195" y="510" on="0"/>
        <pt x="217" y="492" on="1"/>
        <pt x="217" y="686" on="1"/>
      </contour>
      <contour>
        <pt x="367" y="658" on="0"/>
        <pt x="404" y="696" on="0"/>
        <pt x="431" y="696" on="1"/>
        <pt x="501" y="696" on="0"/>
        <pt x="501" y="624" on="1"/>
        <pt x="501" y="585" on="0"/>
        <pt x="466" y="513" on="0"/>
        <pt x="422" y="467" on="0"/>
        <pt x="410" y="467" on="1"/>
        <pt x="375" y="467" on="0"/>
        <pt x="368" y="496" on="1"/>
        <pt x="383" y="522" on="0"/>
        <pt x="391" y="547" on="0"/>
        <pt x="395" y="572" on="1"/>
        <pt x="367" y="589" on="0"/>
        <pt x="367" y="631" on="1"/>
      </contour>
      <contour>
        <pt x="209" y="415" on="0"/>
        <pt x="195" y="415" on="1"/>
        <pt x="182" y="415" on="0"/>
        <pt x="160" y="394" on="0"/>
        <pt x="145" y="317" on="0"/>
        <pt x="145" y="241" on="1"/>
        <pt x="145" y="154" on="0"/>
        <pt x="163" y="88" on="0"/>
        <pt x="183" y="88" on="1"/>
        <pt x="204" y="88" on="0"/>
        <pt x="217" y="98" on="1"/>
        <pt x="217" y="410" on="1"/>
      </contour>
    </TTGlyph>
    <TTGlyph name="dcroat" xMin="20" yMin="-10" xMax="408" yMax="735">
      <contour>
        <pt x="408" y="640" on="0"/>
        <pt x="408" y="615" on="1"/>
        <pt x="408" y="590" on="0"/>
        <pt x="386" y="558" on="0"/>
        <pt x="367" y="558" on="1"/>
        <pt x="328" y="558" on="1"/>
        <pt x="328" y="20" on="1"/>
        <pt x="260" y="-10" on="0"/>
        <pt x="182" y="-10" on="1"/>
        <pt x="132" y="-10" on="0"/>
        <pt x="63" y="23" on="0"/>
        <pt x="20" y="127" on="0"/>
        <pt x="20" y="227" on="1"/>
        <pt x="20" y="373" on="0"/>
        <pt x="95" y="510" on="0"/>
        <pt x="158" y="510" on="1"/>
        <pt x="195" y="510" on="0"/>
        <pt x="217" y="492" on="1"/>
        <pt x="217" y="558" on="1"/>
        <pt x="135" y="558" on="1"/>
        <pt x="127" y="579" on="0"/>
        <pt x="127" y="607" on="1"/>
        <pt x="127" y="631" on="0"/>
        <pt x="151" y="662" on="0"/>
        <pt x="171" y="662" on="1"/>
        <pt x="217" y="662" on="1"/>
        <pt x="217" y="686" on="1"/>
        <pt x="217" y="711" on="0"/>
        <pt x="234" y="730" on="0"/>
        <pt x="275" y="735" on="0"/>
        <pt x="328" y="735" on="1"/>
        <pt x="328" y="662" on="1"/>
        <pt x="397" y="662" on="1"/>
      </contour>
      <contour>
        <pt x="209" y="415" on="0"/>
        <pt x="195" y="415" on="1"/>
        <pt x="182" y="415" on="0"/>
        <pt x="160" y="394" on="0"/>
        <pt x="145" y="317" on="0"/>
        <pt x="145" y="241" on="1"/>
        <pt x="145" y="154" on="0"/>
        <pt x="163" y="88" on="0"/>
        <pt x="183" y="88" on="1"/>
        <pt x="204" y="88" on="0"/>
        <pt x="217" y="98" on="1"/>
        <pt x="217" y="410" on="1"/>
      </contour>
    </TTGlyph>
    <TTGlyph name="degree" xMin="68" yMin="541" xMax="276" yMax="750">
      <contour>
        <pt x="68" y="750" on="0"/>
        <pt x="175" y="750" on="1"/>
        <pt x="229" y="750" on="0"/>
        <pt x="276" y="705" on="0"/>
        <pt x="276" y="647" on="1"/>
        <pt x="276" y="541" on="0"/>
        <pt x="169" y="541" on="1"/>
        <pt x="116" y="541" on="0"/>
        <pt x="68" y="586" on="0"/>
        <pt x="68" y="645" on="1"/>
      </contour>
      <contour>
        <pt x="139" y="608" on="0"/>
        <pt x="171" y="608" on="1"/>
        <pt x="207" y="608" on="0"/>
        <pt x="207" y="646" on="1"/>
        <pt x="207" y="682" on="0"/>
        <pt x="175" y="682" on="1"/>
        <pt x="139" y="682" on="0"/>
        <pt x="139" y="645" on="1"/>
      </contour>
    </TTGlyph>
    <TTGlyph name="dieresis" xMin="21" yMin="550" xMax="258" yMax="700">
      <contour>
        <pt x="108" y="700" on="0"/>
        <pt x="130" y="670" on="0"/>
        <pt x="130" y="631" on="1"/>
        <pt x="130" y="550" on="0"/>
        <pt x="72" y="550" on="1"/>
        <pt x="47" y="550" on="0"/>
        <pt x="21" y="584" on="0"/>
        <pt x="21" y="626" on="1"/>
        <pt x="21" y="660" on="0"/>
        <pt x="50" y="700" on="0"/>
        <pt x="79" y="700" on="1"/>
      </contour>
      <contour>
        <pt x="237" y="700" on="0"/>
        <pt x="258" y="670" on="0"/>
        <pt x="258" y="631" on="1"/>
        <pt x="258" y="592" on="0"/>
        <pt x="229" y="550" on="0"/>
        <pt x="202" y="550" on="1"/>
        <pt x="176" y="550" on="0"/>
        <pt x="150" y="584" on="0"/>
        <pt x="150" y="626" on="1"/>
        <pt x="150" y="660" on="0"/>
        <pt x="180" y="700" on="0"/>
        <pt x="209" y="700" on="1"/>
      </contour>
    </TTGlyph>
    <TTGlyph name="divide" xMin="25" yMin="60" xMax="375" yMax="500">
      <contour>
        <pt x="140" y="464" on="0"/>
        <pt x="172" y="500" on="0"/>
        <pt x="200" y="500" on="1"/>
        <pt x="262" y="500" on="0"/>
        <pt x="262" y="438" on="1"/>
        <pt x="262" y="412" on="0"/>
        <pt x="228" y="376" on="0"/>
        <pt x="200" y="376" on="1"/>
        <pt x="167" y="376" on="0"/>
        <pt x="140" y="407" on="0"/>
        <pt x="140" y="438" on="1"/>
      </contour>
      <contour>
        <pt x="25" y="291" on="0"/>
        <pt x="31" y="330" on="0"/>
        <pt x="45" y="330" on="1"/>
        <pt x="375" y="330" on="1"/>
        <pt x="375" y="273" on="0"/>
        <pt x="369" y="234" on="0"/>
        <pt x="355" y="234" on="1"/>
        <pt x="25" y="234" on="1"/>
      </contour>
      <contour>
        <pt x="140" y="148" on="0"/>
        <pt x="172" y="184" on="0"/>
        <pt x="200" y="184" on="1"/>
        <pt x="262" y="184" on="0"/>
        <pt x="262" y="121" on="1"/>
        <pt x="262" y="95" on="0"/>
        <pt x="228" y="60" on="0"/>
        <pt x="200" y="60" on="1"/>
        <pt x="167" y="60" on="0"/>
        <pt x="140" y="91" on="0"/>
        <pt x="140" y="121" on="1"/>
      </contour>
    </TTGlyph>
    <TTGlyph name="divisionslash" xMin="-76" yMin="-10" xMax="303" yMax="710">
      <component glyphName=".ttfautohint" x="0" y="0" flags="0x0"/>
      <component glyphName="fraction" x="0" y="0" flags="0x1000"/>
    </TTGlyph>
    <TTGlyph name="dollar" xMin="36" yMin="-123" xMax="357" yMax="738">
      <contour>
        <pt x="357" y="230" on="0"/>
        <pt x="357" y="161" on="1"/>
        <pt x="357" y="27" on="0"/>
        <pt x="239" y="-1" on="1"/>
        <pt x="239" y="-82" on="1"/>
        <pt x="239" y="-107" on="0"/>
        <pt x="192" y="-123" on="0"/>
        <pt x="138" y="-123" on="1"/>
        <pt x="138" y="-7" on="1"/>
        <pt x="89" y="-3" on="0"/>
        <pt x="37" y="25" on="0"/>
        <pt x="37" y="39" on="1"/>
        <pt x="37" y="52" on="0"/>
        <pt x="52" y="115" on="0"/>
        <pt x="62" y="130" on="1"/>
        <pt x="99" y="102" on="0"/>
        <pt x="165" y="102" on="1"/>
        <pt x="233" y="102" on="0"/>
        <pt x="233" y="162" on="1"/>
        <pt x="233" y="185" on="0"/>
        <pt x="216" y="218" on="0"/>
        <pt x="191" y="248" on="1"/>
        <pt x="79" y="371" on="1"/>
        <pt x="36" y="422" on="0"/>
        <pt x="36" y="478" on="1"/>
        <pt x="36" y="535" on="0"/>
        <pt x="99" y="604" on="0"/>
        <pt x="158" y="613" on="1"/>
        <pt x="158" y="695" on="1"/>
        <pt x="158" y="721" on="0"/>
        <pt x="206" y="738" on="0"/>
        <pt x="259" y="738" on="1"/>
        <pt x="259" y="615" on="1"/>
        <pt x="309" y="611" on="0"/>
        <pt x="357" y="589" on="0"/>
        <pt x="357" y="578" on="1"/>
        <pt x="357" y="563" on="0"/>
        <pt x="344" y="519" on="0"/>
        <pt x="330" y="503" on="1"/>
        <pt x="321" y="509" on="0"/>
        <pt x="268" y="520" on="0"/>
        <pt x="241" y="520" on="1"/>
        <pt x="200" y="520" on="0"/>
        <pt x="159" y="504" on="0"/>
        <pt x="159" y="481" on="1"/>
        <pt x="159" y="461" on="0"/>
        <pt x="172" y="434" on="0"/>
        <pt x="193" y="410" on="1"/>
        <pt x="311" y="282" on="1"/>
      </contour>
    </TTGlyph>
    <TTGlyph name="dotaccent" xMin="83" yMin="546" xMax="196" yMax="704">
      <contour>
        <pt x="83" y="662" on="0"/>
        <pt x="114" y="704" on="0"/>
        <pt x="144" y="704" on="1"/>
        <pt x="174" y="704" on="0"/>
        <pt x="196" y="672" on="0"/>
        <pt x="196" y="631" on="1"/>
        <pt x="196" y="591" on="0"/>
        <pt x="166" y="546" on="0"/>
        <pt x="137" y="546" on="1"/>
        <pt x="110" y="546" on="0"/>
        <pt x="83" y="582" on="0"/>
        <pt x="83" y="626" on="1"/>
      </contour>
    </TTGlyph>
    <TTGlyph name="dotlessi" xMin="33" yMin="0" xMax="146" yMax="500">
      <contour>
        <pt x="146" y="9" on="0"/>
        <pt x="136" y="2" on="0"/>
        <pt x="80" y="0" on="0"/>
        <pt x="33" y="0" on="1"/>
        <pt x="33" y="451" on="1"/>
        <pt x="33" y="476" on="0"/>
        <pt x="51" y="495" on="0"/>
        <pt x="93" y="500" on="0"/>
        <pt x="146" y="500" on="1"/>
        <pt x="146" y="20" on="1"/>
      </contour>
    </TTGlyph>
    <TTGlyph name="dotlessj" xMin="-90" yMin="-197" xMax="152" yMax="500">
      <contour>
        <pt x="152" y="-109" on="0"/>
        <pt x="92" y="-197" on="0"/>
        <pt x="14" y="-197" on="1"/>
        <pt x="-43" y="-197" on="0"/>
        <pt x="-90" y="-168" on="0"/>
        <pt x="-90" y="-137" on="1"/>
        <pt x="-90" y="-102" on="0"/>
        <pt x="-75" y="-83" on="1"/>
        <pt x="-46" y="-96" on="0"/>
        <pt x="-3" y="-96" on="1"/>
        <pt x="24" y="-96" on="0"/>
        <pt x="41" y="-65" on="0"/>
        <pt x="41" y="-21" on="1"/>
        <pt x="41" y="451" on="1"/>
        <pt x="41" y="476" on="0"/>
        <pt x="59" y="495" on="0"/>
        <pt x="100" y="500" on="0"/>
        <pt x="152" y="500" on="1"/>
        <pt x="152" y="-36" on="1"/>
      </contour>
    </TTGlyph>
    <TTGlyph name="e" xMin="20" yMin="-10" xMax="324" yMax="510">
      <contour>
        <pt x="250" y="98" on="0"/>
        <pt x="308" y="126" on="1"/>
        <pt x="317" y="96" on="0"/>
        <pt x="317" y="52" on="1"/>
        <pt x="317" y="23" on="0"/>
        <pt x="236" y="-10" on="0"/>
        <pt x="175" y="-10" on="1"/>
        <pt x="100" y="-10" on="0"/>
        <pt x="20" y="93" on="0"/>
        <pt x="20" y="226" on="1"/>
        <pt x="20" y="340" on="0"/>
        <pt x="67" y="466" on="0"/>
        <pt x="143" y="510" on="0"/>
        <pt x="196" y="510" on="1"/>
        <pt x="324" y="510" on="0"/>
        <pt x="324" y="347" on="1"/>
        <pt x="324" y="260" on="0"/>
        <pt x="310" y="205" on="1"/>
        <pt x="253" y="193" on="0"/>
        <pt x="136" y="191" on="1"/>
        <pt x="139" y="140" on="0"/>
        <pt x="167" y="98" on="0"/>
        <pt x="202" y="98" on="1"/>
      </contour>
      <contour>
        <pt x="159" y="414" on="0"/>
        <pt x="138" y="349" on="0"/>
        <pt x="136" y="278" on="1"/>
        <pt x="192" y="278" on="0"/>
        <pt x="211" y="287" on="1"/>
        <pt x="216" y="302" on="0"/>
        <pt x="216" y="339" on="1"/>
        <pt x="216" y="385" on="0"/>
        <pt x="202" y="414" on="0"/>
        <pt x="182" y="414" on="1"/>
      </contour>
    </TTGlyph>
    <TTGlyph name="eacute" xMin="20" yMin="-10" xMax="324" yMax="728">
      <component glyphName=".ttfautohint" x="20" y="0" flags="0x0"/>
      <component glyphName="e" x="0" y="0" flags="0x1000"/>
      <component glyphName="acute" x="42" y="0" flags="0x1000"/>
    </TTGlyph>
    <TTGlyph name="ecaron" xMin="20" yMin="-10" xMax="324" yMax="720">
      <component glyphName=".ttfautohint" x="20" y="0" flags="0x0"/>
      <component glyphName="e" x="0" y="0" flags="0x1000"/>
      <component glyphName="caron" x="32" y="0" flags="0x1000"/>
    </TTGlyph>
    <TTGlyph name="ecircumflex" xMin="20" yMin="-10" xMax="324" yMax="717">
      <component glyphName=".ttfautohint" x="20" y="0" flags="0x0"/>
      <component glyphName="e" x="0" y="0" flags="0x1000"/>
      <component glyphName="circumflex" x="32" y="0" flags="0x1000"/>
    </TTGlyph>
    <TTGlyph name="edieresis" xMin="20" yMin="-10" xMax="324" yMax="700">
      <component glyphName=".ttfautohint" x="20" y="0" flags="0x0"/>
      <component glyphName="e" x="0" y="0" flags="0x1000"/>
      <component glyphName="dieresis" x="32" y="0" flags="0x1000"/>
    </TTGlyph>
    <TTGlyph name="edotaccent" xMin="20" yMin="-10" xMax="324" yMax="704">
      <component glyphName=".ttfautohint" x="20" y="0" flags="0x0"/>
      <component glyphName="e" x="0" y="0" flags="0x1000"/>
      <component glyphName="dotaccent" x="32" y="0" flags="0x1000"/>
    </TTGlyph>
    <TTGlyph name="egrave" xMin="20" yMin="-10" xMax="324" yMax="718">
      <component glyphName=".ttfautohint" x="20" y="0" flags="0x0"/>
      <component glyphName="e" x="0" y="0" flags="0x1000"/>
      <component glyphName="grave" x="42" y="0" flags="0x1000"/>
    </TTGlyph>
    <TTGlyph name="eight" xMin="22" yMin="-7" xMax="382" yMax="706">
      <contour>
        <pt x="382" y="258" on="0"/>
        <pt x="382" y="183" on="1"/>
        <pt x="382" y="133" on="0"/>
        <pt x="343" y="46" on="0"/>
        <pt x="264" y="-7" on="0"/>
        <pt x="208" y="-7" on="1"/>
        <pt x="111" y="-7" on="0"/>
        <pt x="22" y="101" on="0"/>
        <pt x="22" y="186" on="1"/>
        <pt x="22" y="303" on="0"/>
        <pt x="120" y="374" on="1"/>
        <pt x="74" y="411" on="0"/>
        <pt x="56" y="439" on="1"/>
        <pt x="29" y="476" on="0"/>
        <pt x="29" y="530" on="1"/>
        <pt x="29" y="614" on="0"/>
        <pt x="124" y="706" on="0"/>
        <pt x="198" y="706" on="1"/>
        <pt x="381" y="706" on="0"/>
        <pt x="381" y="544" on="1"/>
        <pt x="381" y="484" on="0"/>
        <pt x="330" y="400" on="0"/>
        <pt x="285" y="365" on="1"/>
        <pt x="312" y="339" on="0"/>
        <pt x="330" y="319" on="1"/>
      </contour>
      <contour>
        <pt x="181" y="602" on="0"/>
        <pt x="141" y="569" on="0"/>
        <pt x="141" y="537" on="1"/>
        <pt x="141" y="503" on="0"/>
        <pt x="163" y="475" on="1"/>
        <pt x="171" y="465" on="0"/>
        <pt x="213" y="427" on="1"/>
        <pt x="278" y="480" on="0"/>
        <pt x="278" y="540" on="1"/>
        <pt x="278" y="564" on="0"/>
        <pt x="243" y="602" on="0"/>
        <pt x="214" y="602" on="1"/>
      </contour>
      <contour>
        <pt x="232" y="99" on="0"/>
        <pt x="273" y="145" on="0"/>
        <pt x="273" y="186" on="1"/>
        <pt x="273" y="217" on="0"/>
        <pt x="258" y="251" on="0"/>
        <pt x="244" y="268" on="1"/>
        <pt x="229" y="286" on="0"/>
        <pt x="198" y="311" on="1"/>
        <pt x="163" y="284" on="0"/>
        <pt x="125" y="230" on="0"/>
        <pt x="125" y="194" on="1"/>
        <pt x="125" y="149" on="0"/>
        <pt x="168" y="99" on="0"/>
        <pt x="200" y="99" on="1"/>
      </contour>
    </TTGlyph>
    <TTGlyph name="ellipsis" xMin="26" yMin="-7" xMax="536" yMax="136">
      <component glyphName=".ttfautohint" x="26" y="0" flags="0x0"/>
      <component glyphName="period" x="3" y="0" flags="0x1000"/>
      <component glyphName="period" x="187" y="0" flags="0x1000"/>
      <component glyphName="period" x="372" y="0" flags="0x1000"/>
    </TTGlyph>
    <TTGlyph name="emacron" xMin="20" yMin="-10" xMax="324" yMax="672">
      <component glyphName=".ttfautohint" x="20" y="0" flags="0x0"/>
      <component glyphName="e" x="0" y="0" flags="0x1000"/>
      <component glyphName="macron" x="32" y="0" flags="0x1000"/>
    </TTGlyph>
    <TTGlyph name="emdash" xMin="6" yMin="234" xMax="694" yMax="330">
      <contour>
        <pt x="6" y="291" on="0"/>
        <pt x="12" y="330" on="0"/>
        <pt x="26" y="330" on="1"/>
        <pt x="694" y="330" on="1"/>
        <pt x="694" y="273" on="0"/>
        <pt x="688" y="234" on="0"/>
        <pt x="674" y="234" on="1"/>
        <pt x="6" y="234" on="1"/>
      </contour>
    </TTGlyph>
    <TTGlyph name="endash" xMin="30" yMin="234" xMax="380" yMax="330">
      <contour>
        <pt x="30" y="291" on="0"/>
        <pt x="36" y="330" on="0"/>
        <pt x="50" y="330" on="1"/>
        <pt x="380" y="330" on="1"/>
        <pt x="380" y="273" on="0"/>
        <pt x="374" y="234" on="0"/>
        <pt x="360" y="234" on="1"/>
        <pt x="30" y="234" on="1"/>
      </contour>
    </TTGlyph>
    <TTGlyph name="eogonek" xMin="20" yMin="-195" xMax="324" yMax="510">
      <contour>
        <pt x="324" y="510" on="0"/>
        <pt x="324" y="347" on="1"/>
        <pt x="324" y="260" on="0"/>
        <pt x="310" y="205" on="1"/>
        <pt x="253" y="193" on="0"/>
        <pt x="136" y="191" on="1"/>
        <pt x="139" y="140" on="0"/>
        <pt x="167" y="98" on="0"/>
        <pt x="202" y="98" on="1"/>
        <pt x="250" y="98" on="0"/>
        <pt x="308" y="126" on="1"/>
        <pt x="317" y="96" on="0"/>
        <pt x="317" y="52" on="1"/>
        <pt x="317" y="37" on="0"/>
        <pt x="300" y="20" on="1"/>
        <pt x="278" y="-2" on="0"/>
        <pt x="249" y="-62" on="0"/>
        <pt x="249" y="-90" on="1"/>
        <pt x="249" y="-118" on="0"/>
        <pt x="274" y="-118" on="1"/>
        <pt x="288" y="-118" on="0"/>
        <pt x="300" y="-111" on="1"/>
        <pt x="310" y="-132" on="0"/>
        <pt x="310" y="-154" on="1"/>
        <pt x="310" y="-163" on="0"/>
        <pt x="306" y="-173" on="1"/>
        <pt x="292" y="-195" on="0"/>
        <pt x="240" y="-195" on="1"/>
        <pt x="151" y="-195" on="0"/>
        <pt x="151" y="-106" on="1"/>
        <pt x="151" y="-56" on="0"/>
        <pt x="175" y="-10" on="1"/>
        <pt x="171" y="-10" on="1"/>
        <pt x="98" y="-9" on="0"/>
        <pt x="20" y="95" on="0"/>
        <pt x="20" y="226" on="1"/>
        <pt x="20" y="340" on="0"/>
        <pt x="67" y="466" on="0"/>
        <pt x="143" y="510" on="0"/>
        <pt x="196" y="510" on="1"/>
      </contour>
      <contour>
        <pt x="159" y="414" on="0"/>
        <pt x="138" y="349" on="0"/>
        <pt x="136" y="278" on="1"/>
        <pt x="192" y="278" on="0"/>
        <pt x="211" y="287" on="1"/>
        <pt x="216" y="302" on="0"/>
        <pt x="216" y="339" on="1"/>
        <pt x="216" y="385" on="0"/>
        <pt x="202" y="414" on="0"/>
        <pt x="182" y="414" on="1"/>
      </contour>
    </TTGlyph>
    <TTGlyph name="equal" xMin="25" yMin="135" xMax="375" yMax="429">
      <contour>
        <pt x="25" y="391" on="0"/>
        <pt x="31" y="429" on="0"/>
        <pt x="45" y="429" on="1"/>
        <pt x="375" y="429" on="1"/>
        <pt x="375" y="373" on="0"/>
        <pt x="369" y="334" on="0"/>
        <pt x="355" y="334" on="1"/>
        <pt x="25" y="334" on="1"/>
      </contour>
      <contour>
        <pt x="25" y="191" on="0"/>
        <pt x="31" y="230" on="0"/>
        <pt x="45" y="230" on="1"/>
        <pt x="375" y="230" on="1"/>
        <pt x="375" y="173" on="0"/>
        <pt x="369" y="135" on="0"/>
        <pt x="355" y="135" on="1"/>
        <pt x="25" y="135" on="1"/>
      </contour>
    </TTGlyph>
    <TTGlyph name="estimated" xMin="70" yMin="18" xMax="740" yMax="621">
      <contour>
        <pt x="192" y="312" on="0"/>
        <pt x="192" y="308" on="1"/>
        <pt x="192" y="144" on="1"/>
        <pt x="192" y="135" on="0"/>
        <pt x="200" y="125" on="1"/>
        <pt x="239" y="83" on="0"/>
        <pt x="346" y="36" on="0"/>
        <pt x="406" y="36" on="1"/>
        <pt x="469" y="36" on="0"/>
        <pt x="582" y="89" on="0"/>
        <pt x="621" y="135" on="1"/>
        <pt x="670" y="135" on="1"/>
        <pt x="624" y="81" on="0"/>
        <pt x="484" y="18" on="0"/>
        <pt x="405" y="18" on="1"/>
        <pt x="314" y="18" on="0"/>
        <pt x="160" y="99" on="0"/>
        <pt x="70" y="237" on="0"/>
        <pt x="70" y="319" on="1"/>
        <pt x="70" y="401" on="0"/>
        <pt x="160" y="540" on="0"/>
        <pt x="314" y="621" on="0"/>
        <pt x="405" y="621" on="1"/>
        <pt x="496" y="621" on="0"/>
        <pt x="650" y="540" on="0"/>
        <pt x="740" y="401" on="0"/>
        <pt x="740" y="319" on="1"/>
        <pt x="740" y="312" on="1"/>
        <pt x="197" y="312" on="1"/>
      </contour>
      <contour>
        <pt x="618" y="509" on="0"/>
        <pt x="609" y="518" on="1"/>
        <pt x="569" y="558" on="0"/>
        <pt x="464" y="603" on="0"/>
        <pt x="406" y="603" on="1"/>
        <pt x="347" y="603" on="0"/>
        <pt x="241" y="556" on="0"/>
        <pt x="201" y="515" on="1"/>
        <pt x="192" y="506" on="0"/>
        <pt x="192" y="495" on="1"/>
        <pt x="192" y="333" on="1"/>
        <pt x="192" y="328" on="0"/>
        <pt x="197" y="328" on="1"/>
        <pt x="613" y="328" on="1"/>
        <pt x="618" y="328" on="0"/>
        <pt x="618" y="333" on="1"/>
        <pt x="618" y="498" on="1"/>
      </contour>
    </TTGlyph>
    <TTGlyph name="eth" xMin="20" yMin="-10" xMax="365" yMax="745">
      <contour>
        <pt x="365" y="491" on="0"/>
        <pt x="365" y="289" on="1"/>
        <pt x="365" y="147" on="0"/>
        <pt x="295" y="-10" on="0"/>
        <pt x="198" y="-10" on="1"/>
        <pt x="135" y="-10" on="0"/>
        <pt x="57" y="41" on="0"/>
        <pt x="20" y="158" on="0"/>
        <pt x="20" y="258" on="1"/>
        <pt x="20" y="337" on="0"/>
        <pt x="58" y="451" on="0"/>
        <pt x="125" y="510" on="0"/>
        <pt x="168" y="510" on="1"/>
        <pt x="206" y="510" on="0"/>
        <pt x="231" y="493" on="1"/>
        <pt x="220" y="534" on="0"/>
        <pt x="200" y="575" on="1"/>
        <pt x="109" y="540" on="1"/>
        <pt x="83" y="603" on="0"/>
        <pt x="83" y="620" on="1"/>
        <pt x="83" y="632" on="0"/>
        <pt x="93" y="636" on="1"/>
        <pt x="142" y="655" on="1"/>
        <pt x="124" y="675" on="0"/>
        <pt x="102" y="695" on="1"/>
        <pt x="115" y="717" on="0"/>
        <pt x="161" y="745" on="0"/>
        <pt x="184" y="745" on="1"/>
        <pt x="210" y="745" on="0"/>
        <pt x="224" y="728" on="1"/>
        <pt x="238" y="716" on="0"/>
        <pt x="253" y="697" on="1"/>
        <pt x="312" y="720" on="1"/>
        <pt x="338" y="657" on="0"/>
        <pt x="338" y="640" on="1"/>
        <pt x="338" y="628" on="0"/>
        <pt x="328" y="625" on="1"/>
        <pt x="305" y="616" on="1"/>
      </contour>
      <contour>
        <pt x="231" y="81" on="0"/>
        <pt x="252" y="175" on="0"/>
        <pt x="252" y="278" on="1"/>
        <pt x="252" y="337" on="0"/>
        <pt x="249" y="385" on="1"/>
        <pt x="229" y="412" on="0"/>
        <pt x="200" y="412" on="1"/>
        <pt x="166" y="412" on="0"/>
        <pt x="134" y="309" on="0"/>
        <pt x="134" y="237" on="1"/>
        <pt x="134" y="81" on="0"/>
        <pt x="195" y="81" on="1"/>
      </contour>
    </TTGlyph>
    <TTGlyph name="exclam" xMin="27" yMin="-8" xMax="183" yMax="706">
      <contour>
        <pt x="26" y="689" on="0"/>
        <pt x="48" y="702" on="0"/>
        <pt x="109" y="706" on="0"/>
        <pt x="183" y="706" on="1"/>
        <pt x="158" y="292" on="1"/>
        <pt x="156" y="267" on="0"/>
        <pt x="138" y="246" on="0"/>
        <pt x="96" y="240" on="0"/>
        <pt x="47" y="240" on="1"/>
        <pt x="27" y="673" on="1"/>
      </contour>
      <contour>
        <pt x="30" y="93" on="0"/>
        <pt x="69" y="135" on="0"/>
        <pt x="101" y="135" on="1"/>
        <pt x="171" y="135" on="0"/>
        <pt x="171" y="63" on="1"/>
        <pt x="171" y="33" on="0"/>
        <pt x="134" y="-8" on="0"/>
        <pt x="101" y="-8" on="1"/>
        <pt x="62" y="-8" on="0"/>
        <pt x="30" y="27" on="0"/>
        <pt x="30" y="63" on="1"/>
      </contour>
    </TTGlyph>
    <TTGlyph name="exclamdown" xMin="27" yMin="-197" xMax="183" yMax="507">
      <contour>
        <pt x="178" y="406" on="0"/>
        <pt x="140" y="364" on="0"/>
        <pt x="108" y="364" on="1"/>
        <pt x="37" y="364" on="0"/>
        <pt x="37" y="436" on="1"/>
        <pt x="37" y="466" on="0"/>
        <pt x="75" y="507" on="0"/>
        <pt x="108" y="507" on="1"/>
        <pt x="147" y="507" on="0"/>
        <pt x="178" y="472" on="0"/>
        <pt x="178" y="436" on="1"/>
      </contour>
      <contour>
        <pt x="184" y="-180" on="0"/>
        <pt x="162" y="-193" on="0"/>
        <pt x="101" y="-197" on="0"/>
        <pt x="27" y="-197" on="1"/>
        <pt x="51" y="213" on="1"/>
        <pt x="53" y="238" on="0"/>
        <pt x="71" y="259" on="0"/>
        <pt x="113" y="265" on="0"/>
        <pt x="162" y="265" on="1"/>
        <pt x="183" y="-164" on="1"/>
      </contour>
    </TTGlyph>
    <TTGlyph name="f" xMin="10" yMin="0" xMax="344" yMax="738">
      <contour>
        <pt x="10" y="456" on="0"/>
        <pt x="12" y="490" on="0"/>
        <pt x="23" y="500" on="0"/>
        <pt x="37" y="500" on="1"/>
        <pt x="70" y="500" on="1"/>
        <pt x="70" y="557" on="1"/>
        <pt x="70" y="738" on="0"/>
        <pt x="244" y="738" on="1"/>
        <pt x="344" y="738" on="0"/>
        <pt x="344" y="686" on="1"/>
        <pt x="344" y="656" on="0"/>
        <pt x="333" y="626" on="1"/>
        <pt x="306" y="639" on="0"/>
        <pt x="265" y="639" on="1"/>
        <pt x="224" y="639" on="0"/>
        <pt x="181" y="609" on="0"/>
        <pt x="181" y="569" on="1"/>
        <pt x="181" y="500" on="1"/>
        <pt x="254" y="500" on="1"/>
        <pt x="254" y="455" on="0"/>
        <pt x="251" y="419" on="0"/>
        <pt x="243" y="408" on="0"/>
        <pt x="233" y="408" on="1"/>
        <pt x="181" y="408" on="1"/>
        <pt x="181" y="20" on="1"/>
        <pt x="181" y="15" on="0"/>
        <pt x="174" y="0" on="0"/>
        <pt x="161" y="0" on="1"/>
        <pt x="70" y="0" on="1"/>
        <pt x="70" y="408" on="1"/>
        <pt x="10" y="408" on="1"/>
      </contour>
    </TTGlyph>
    <TTGlyph name="f.ss02" xMin="5" yMin="0" xMax="265" yMax="740">
      <contour>
        <pt x="5" y="456" on="0"/>
        <pt x="7" y="490" on="0"/>
        <pt x="18" y="500" on="0"/>
        <pt x="32" y="500" on="1"/>
        <pt x="65" y="500" on="1"/>
        <pt x="65" y="609" on="1"/>
        <pt x="65" y="681" on="0"/>
        <pt x="129" y="740" on="0"/>
        <pt x="185" y="740" on="1"/>
        <pt x="231" y="740" on="0"/>
        <pt x="265" y="718" on="0"/>
        <pt x="265" y="694" on="1"/>
        <pt x="265" y="668" on="0"/>
        <pt x="254" y="638" on="1"/>
        <pt x="233" y="647" on="0"/>
        <pt x="214" y="647" on="1"/>
        <pt x="193" y="647" on="0"/>
        <pt x="176" y="625" on="0"/>
        <pt x="176" y="599" on="1"/>
        <pt x="176" y="500" on="1"/>
        <pt x="249" y="500" on="1"/>
        <pt x="249" y="455" on="0"/>
        <pt x="246" y="419" on="0"/>
        <pt x="238" y="408" on="0"/>
        <pt x="228" y="408" on="1"/>
        <pt x="176" y="408" on="1"/>
        <pt x="176" y="20" on="1"/>
        <pt x="176" y="15" on="0"/>
        <pt x="169" y="0" on="0"/>
        <pt x="157" y="0" on="1"/>
        <pt x="65" y="0" on="1"/>
        <pt x="65" y="408" on="1"/>
        <pt x="5" y="408" on="1"/>
      </contour>
    </TTGlyph>
    <TTGlyph name="f_f" xMin="10" yMin="0" xMax="534" yMax="738">
      <contour>
        <pt x="70" y="734" on="0"/>
        <pt x="228" y="734" on="1"/>
        <pt x="279" y="734" on="0"/>
        <pt x="324" y="710" on="1"/>
        <pt x="365" y="738" on="0"/>
        <pt x="435" y="738" on="1"/>
        <pt x="489" y="738" on="0"/>
        <pt x="534" y="710" on="0"/>
        <pt x="534" y="678" on="1"/>
        <pt x="534" y="656" on="0"/>
        <pt x="523" y="626" on="1"/>
        <pt x="496" y="639" on="0"/>
        <pt x="455" y="639" on="1"/>
        <pt x="414" y="639" on="0"/>
        <pt x="372" y="609" on="0"/>
        <pt x="372" y="569" on="1"/>
        <pt x="372" y="500" on="1"/>
        <pt x="444" y="500" on="1"/>
        <pt x="444" y="455" on="0"/>
        <pt x="441" y="419" on="0"/>
        <pt x="433" y="408" on="0"/>
        <pt x="423" y="408" on="1"/>
        <pt x="372" y="408" on="1"/>
        <pt x="372" y="20" on="1"/>
        <pt x="372" y="15" on="0"/>
        <pt x="365" y="0" on="0"/>
        <pt x="352" y="0" on="1"/>
        <pt x="261" y="0" on="1"/>
        <pt x="261" y="408" on="1"/>
        <pt x="181" y="408" on="1"/>
        <pt x="181" y="20" on="1"/>
        <pt x="181" y="15" on="0"/>
        <pt x="174" y="0" on="0"/>
        <pt x="161" y="0" on="1"/>
        <pt x="70" y="0" on="1"/>
        <pt x="70" y="408" on="1"/>
        <pt x="10" y="408" on="1"/>
        <pt x="10" y="456" on="0"/>
        <pt x="12" y="490" on="0"/>
        <pt x="23" y="500" on="0"/>
        <pt x="37" y="500" on="1"/>
        <pt x="70" y="500" on="1"/>
        <pt x="70" y="564" on="1"/>
      </contour>
      <contour>
        <pt x="261" y="605" on="0"/>
        <pt x="271" y="635" on="1"/>
        <pt x="251" y="641" on="0"/>
        <pt x="233" y="641" on="1"/>
        <pt x="181" y="641" on="0"/>
        <pt x="181" y="579" on="1"/>
        <pt x="181" y="500" on="1"/>
        <pt x="228" y="500" on="1"/>
        <pt x="261" y="500" on="1"/>
        <pt x="261" y="557" on="1"/>
      </contour>
    </TTGlyph>
    <TTGlyph name="f_f_i" xMin="5" yMin="0" xMax="579" yMax="738">
      <contour>
        <pt x="65" y="734" on="0"/>
        <pt x="223" y="734" on="1"/>
        <pt x="278" y="734" on="0"/>
        <pt x="321" y="709" on="1"/>
        <pt x="366" y="738" on="0"/>
        <pt x="448" y="738" on="1"/>
        <pt x="579" y="738" on="0"/>
        <pt x="579" y="675" on="1"/>
        <pt x="579" y="641" on="0"/>
        <pt x="568" y="611" on="1"/>
        <pt x="520" y="639" on="0"/>
        <pt x="453" y="639" on="1"/>
        <pt x="408" y="639" on="0"/>
        <pt x="367" y="608" on="0"/>
        <pt x="367" y="561" on="1"/>
        <pt x="367" y="500" on="1"/>
        <pt x="419" y="500" on="1"/>
        <pt x="419" y="455" on="0"/>
        <pt x="416" y="419" on="0"/>
        <pt x="409" y="408" on="0"/>
        <pt x="399" y="408" on="1"/>
        <pt x="367" y="408" on="1"/>
        <pt x="367" y="20" on="1"/>
        <pt x="367" y="15" on="0"/>
        <pt x="360" y="0" on="0"/>
        <pt x="347" y="0" on="1"/>
        <pt x="256" y="0" on="1"/>
        <pt x="256" y="408" on="1"/>
        <pt x="176" y="408" on="1"/>
        <pt x="176" y="20" on="1"/>
        <pt x="176" y="15" on="0"/>
        <pt x="169" y="0" on="0"/>
        <pt x="157" y="0" on="1"/>
        <pt x="65" y="0" on="1"/>
        <pt x="65" y="408" on="1"/>
        <pt x="5" y="408" on="1"/>
        <pt x="5" y="456" on="0"/>
        <pt x="7" y="490" on="0"/>
        <pt x="18" y="500" on="0"/>
        <pt x="32" y="500" on="1"/>
        <pt x="65" y="500" on="1"/>
        <pt x="65" y="564" on="1"/>
      </contour>
      <contour>
        <pt x="256" y="600" on="0"/>
        <pt x="267" y="635" on="1"/>
        <pt x="245" y="641" on="0"/>
        <pt x="228" y="641" on="1"/>
        <pt x="176" y="641" on="0"/>
        <pt x="176" y="579" on="1"/>
        <pt x="176" y="500" on="1"/>
        <pt x="256" y="500" on="1"/>
        <pt x="256" y="557" on="1"/>
      </contour>
      <contour>
        <pt x="449" y="476" on="0"/>
        <pt x="467" y="495" on="0"/>
        <pt x="509" y="500" on="0"/>
        <pt x="562" y="500" on="1"/>
        <pt x="562" y="20" on="1"/>
        <pt x="562" y="9" on="0"/>
        <pt x="552" y="2" on="0"/>
        <pt x="496" y="0" on="0"/>
        <pt x="449" y="0" on="1"/>
        <pt x="449" y="451" on="1"/>
      </contour>
    </TTGlyph>
    <TTGlyph name="f_f_l" xMin="5" yMin="0" xMax="572" yMax="739">
      <contour>
        <pt x="572" y="697" on="1"/>
        <pt x="572" y="20" on="1"/>
        <pt x="572" y="9" on="0"/>
        <pt x="562" y="2" on="0"/>
        <pt x="508" y="0" on="0"/>
        <pt x="461" y="0" on="1"/>
        <pt x="461" y="636" on="1"/>
        <pt x="445" y="640" on="0"/>
        <pt x="430" y="640" on="1"/>
        <pt x="367" y="640" on="0"/>
        <pt x="367" y="573" on="1"/>
        <pt x="367" y="500" on="1"/>
        <pt x="418" y="500" on="1"/>
        <pt x="418" y="455" on="0"/>
        <pt x="415" y="419" on="0"/>
        <pt x="408" y="408" on="0"/>
        <pt x="398" y="408" on="1"/>
        <pt x="367" y="408" on="1"/>
        <pt x="367" y="20" on="1"/>
        <pt x="367" y="15" on="0"/>
        <pt x="360" y="0" on="0"/>
        <pt x="347" y="0" on="1"/>
        <pt x="256" y="0" on="1"/>
        <pt x="256" y="408" on="1"/>
        <pt x="176" y="408" on="1"/>
        <pt x="176" y="20" on="1"/>
        <pt x="176" y="15" on="0"/>
        <pt x="169" y="0" on="0"/>
        <pt x="157" y="0" on="1"/>
        <pt x="65" y="0" on="1"/>
        <pt x="65" y="408" on="1"/>
        <pt x="5" y="408" on="1"/>
        <pt x="5" y="456" on="0"/>
        <pt x="7" y="490" on="0"/>
        <pt x="18" y="500" on="0"/>
        <pt x="32" y="500" on="1"/>
        <pt x="65" y="500" on="1"/>
        <pt x="65" y="564" on="1"/>
        <pt x="65" y="734" on="0"/>
        <pt x="223" y="734" on="1"/>
        <pt x="274" y="734" on="0"/>
        <pt x="320" y="710" on="1"/>
        <pt x="360" y="739" on="0"/>
        <pt x="422" y="739" on="1"/>
        <pt x="506" y="739" on="0"/>
        <pt x="572" y="698" on="1"/>
        <pt x="571" y="697" on="1"/>
      </contour>
      <contour>
        <pt x="256" y="600" on="0"/>
        <pt x="267" y="635" on="1"/>
        <pt x="245" y="641" on="0"/>
        <pt x="228" y="641" on="1"/>
        <pt x="176" y="641" on="0"/>
        <pt x="176" y="579" on="1"/>
        <pt x="176" y="500" on="1"/>
        <pt x="256" y="500" on="1"/>
        <pt x="256" y="557" on="1"/>
      </contour>
    </TTGlyph>
    <TTGlyph name="fi" xMin="10" yMin="0" xMax="393" yMax="738">
      <contour>
        <pt x="10" y="456" on="0"/>
        <pt x="12" y="490" on="0"/>
        <pt x="23" y="500" on="0"/>
        <pt x="37" y="500" on="1"/>
        <pt x="70" y="500" on="1"/>
        <pt x="70" y="557" on="1"/>
        <pt x="70" y="662" on="0"/>
        <pt x="176" y="738" on="0"/>
        <pt x="263" y="738" on="1"/>
        <pt x="393" y="738" on="0"/>
        <pt x="393" y="675" on="1"/>
        <pt x="393" y="641" on="0"/>
        <pt x="382" y="611" on="1"/>
        <pt x="361" y="624" on="0"/>
        <pt x="298" y="639" on="0"/>
        <pt x="268" y="639" on="1"/>
        <pt x="223" y="639" on="0"/>
        <pt x="181" y="608" on="0"/>
        <pt x="181" y="561" on="1"/>
        <pt x="181" y="500" on="1"/>
        <pt x="234" y="500" on="1"/>
        <pt x="234" y="455" on="0"/>
        <pt x="231" y="419" on="0"/>
        <pt x="223" y="408" on="0"/>
        <pt x="213" y="408" on="1"/>
        <pt x="181" y="408" on="1"/>
        <pt x="181" y="20" on="1"/>
        <pt x="181" y="15" on="0"/>
        <pt x="174" y="0" on="0"/>
        <pt x="161" y="0" on="1"/>
        <pt x="70" y="0" on="1"/>
        <pt x="70" y="408" on="1"/>
        <pt x="10" y="408" on="1"/>
      </contour>
      <contour>
        <pt x="376" y="9" on="0"/>
        <pt x="366" y="2" on="0"/>
        <pt x="310" y="0" on="0"/>
        <pt x="263" y="0" on="1"/>
        <pt x="263" y="451" on="1"/>
        <pt x="263" y="476" on="0"/>
        <pt x="281" y="495" on="0"/>
        <pt x="323" y="500" on="0"/>
        <pt x="376" y="500" on="1"/>
        <pt x="376" y="20" on="1"/>
      </contour>
    </TTGlyph>
    <TTGlyph name="firsttonechinese" xMin="-1" yMin="568" xMax="281" yMax="672">
      <component glyphName=".ttfautohint" x="0" y="568" flags="0x0"/>
      <component glyphName="macron" x="0" y="0" flags="0x1000"/>
    </TTGlyph>
    <TTGlyph name="five" xMin="28" yMin="-100" xMax="371" yMax="600">
      <contour>
        <pt x="371" y="557" on="0"/>
        <pt x="364" y="518" on="0"/>
        <pt x="341" y="502" on="0"/>
        <pt x="316" y="502" on="1"/>
        <pt x="285" y="502" on="0"/>
        <pt x="177" y="507" on="0"/>
        <pt x="159" y="508" on="1"/>
        <pt x="147" y="383" on="1"/>
        <pt x="167" y="387" on="0"/>
        <pt x="191" y="387" on="1"/>
        <pt x="267" y="387" on="0"/>
        <pt x="371" y="310" on="0"/>
        <pt x="371" y="194" on="1"/>
        <pt x="371" y="58" on="0"/>
        <pt x="249" y="-100" on="0"/>
        <pt x="139" y="-100" on="1"/>
        <pt x="101" y="-100" on="0"/>
        <pt x="51" y="-86" on="0"/>
        <pt x="28" y="-66" on="0"/>
        <pt x="28" y="-58" on="1"/>
        <pt x="28" y="-4" on="0"/>
        <pt x="40" y="32" on="1"/>
        <pt x="70" y="3" on="0"/>
        <pt x="125" y="3" on="1"/>
        <pt x="166" y="3" on="0"/>
        <pt x="223" y="52" on="0"/>
        <pt x="252" y="128" on="0"/>
        <pt x="252" y="166" on="1"/>
        <pt x="252" y="219" on="0"/>
        <pt x="232" y="273" on="0"/>
        <pt x="178" y="296" on="0"/>
        <pt x="123" y="296" on="1"/>
        <pt x="78" y="296" on="0"/>
        <pt x="34" y="285" on="1"/>
        <pt x="65" y="600" on="1"/>
        <pt x="371" y="600" on="1"/>
      </contour>
    </TTGlyph>
    <TTGlyph name="five.001" xMin="28" yMin="-100" xMax="371" yMax="600">
      <contour>
        <pt x="371" y="557" on="0"/>
        <pt x="364" y="518" on="0"/>
        <pt x="341" y="502" on="0"/>
        <pt x="316" y="502" on="1"/>
        <pt x="285" y="502" on="0"/>
        <pt x="177" y="507" on="0"/>
        <pt x="159" y="508" on="1"/>
        <pt x="147" y="383" on="1"/>
        <pt x="167" y="387" on="0"/>
        <pt x="191" y="387" on="1"/>
        <pt x="267" y="387" on="0"/>
        <pt x="371" y="310" on="0"/>
        <pt x="371" y="194" on="1"/>
        <pt x="371" y="58" on="0"/>
        <pt x="249" y="-100" on="0"/>
        <pt x="139" y="-100" on="1"/>
        <pt x="101" y="-100" on="0"/>
        <pt x="51" y="-86" on="0"/>
        <pt x="28" y="-66" on="0"/>
        <pt x="28" y="-58" on="1"/>
        <pt x="28" y="-4" on="0"/>
        <pt x="40" y="32" on="1"/>
        <pt x="70" y="3" on="0"/>
        <pt x="125" y="3" on="1"/>
        <pt x="166" y="3" on="0"/>
        <pt x="223" y="52" on="0"/>
        <pt x="252" y="128" on="0"/>
        <pt x="252" y="166" on="1"/>
        <pt x="252" y="219" on="0"/>
        <pt x="232" y="273" on="0"/>
        <pt x="178" y="296" on="0"/>
        <pt x="123" y="296" on="1"/>
        <pt x="78" y="296" on="0"/>
        <pt x="34" y="285" on="1"/>
        <pt x="65" y="600" on="1"/>
        <pt x="371" y="600" on="1"/>
      </contour>
    </TTGlyph>
    <TTGlyph name="fl" xMin="10" yMin="0" xMax="385" yMax="738">
      <contour>
        <pt x="385" y="15" on="0"/>
        <pt x="378" y="0" on="0"/>
        <pt x="365" y="0" on="1"/>
        <pt x="274" y="0" on="1"/>
        <pt x="274" y="644" on="1"/>
        <pt x="256" y="649" on="0"/>
        <pt x="244" y="649" on="1"/>
        <pt x="181" y="649" on="0"/>
        <pt x="181" y="579" on="1"/>
        <pt x="181" y="500" on="1"/>
        <pt x="240" y="500" on="1"/>
        <pt x="240" y="455" on="0"/>
        <pt x="237" y="419" on="0"/>
        <pt x="229" y="408" on="0"/>
        <pt x="219" y="408" on="1"/>
        <pt x="181" y="408" on="1"/>
        <pt x="181" y="20" on="1"/>
        <pt x="181" y="15" on="0"/>
        <pt x="174" y="0" on="0"/>
        <pt x="161" y="0" on="1"/>
        <pt x="70" y="0" on="1"/>
        <pt x="70" y="408" on="1"/>
        <pt x="10" y="408" on="1"/>
        <pt x="10" y="456" on="0"/>
        <pt x="12" y="490" on="0"/>
        <pt x="23" y="500" on="0"/>
        <pt x="37" y="500" on="1"/>
        <pt x="70" y="500" on="1"/>
        <pt x="70" y="557" on="1"/>
        <pt x="70" y="661" on="0"/>
        <pt x="169" y="738" on="0"/>
        <pt x="236" y="738" on="1"/>
        <pt x="278" y="738" on="0"/>
        <pt x="357" y="714" on="0"/>
        <pt x="385" y="696" on="1"/>
        <pt x="385" y="20" on="1"/>
      </contour>
    </TTGlyph>
    <TTGlyph name="florin" xMin="10" yMin="-197" xMax="446" yMax="738">
      <contour>
        <pt x="173" y="664" on="0"/>
        <pt x="270" y="738" on="0"/>
        <pt x="346" y="738" on="1"/>
        <pt x="407" y="738" on="0"/>
        <pt x="446" y="709" on="0"/>
        <pt x="446" y="679" on="1"/>
        <pt x="446" y="656" on="0"/>
        <pt x="435" y="626" on="1"/>
        <pt x="408" y="639" on="0"/>
        <pt x="367" y="639" on="1"/>
        <pt x="325" y="639" on="0"/>
        <pt x="284" y="612" on="0"/>
        <pt x="284" y="572" on="1"/>
        <pt x="284" y="500" on="1"/>
        <pt x="415" y="500" on="1"/>
        <pt x="415" y="443" on="0"/>
        <pt x="409" y="405" on="0"/>
        <pt x="395" y="405" on="1"/>
        <pt x="284" y="405" on="1"/>
        <pt x="284" y="-19" on="1"/>
        <pt x="284" y="-123" on="0"/>
        <pt x="186" y="-197" on="0"/>
        <pt x="110" y="-197" on="1"/>
        <pt x="49" y="-197" on="0"/>
        <pt x="10" y="-168" on="0"/>
        <pt x="10" y="-138" on="1"/>
        <pt x="10" y="-115" on="0"/>
        <pt x="21" y="-85" on="1"/>
        <pt x="48" y="-98" on="0"/>
        <pt x="89" y="-98" on="1"/>
        <pt x="131" y="-98" on="0"/>
        <pt x="173" y="-71" on="0"/>
        <pt x="173" y="-31" on="1"/>
        <pt x="173" y="405" on="1"/>
        <pt x="65" y="405" on="1"/>
        <pt x="65" y="461" on="0"/>
        <pt x="71" y="500" on="0"/>
        <pt x="85" y="500" on="1"/>
        <pt x="173" y="500" on="1"/>
        <pt x="173" y="560" on="1"/>
      </contour>
    </TTGlyph>
    <TTGlyph name="four" xMin="16" yMin="0" xMax="385" yMax="607">
      <contour>
        <pt x="340" y="206" on="0"/>
        <pt x="375" y="210" on="0"/>
        <pt x="380" y="211" on="1"/>
        <pt x="381" y="209" on="0"/>
        <pt x="385" y="193" on="0"/>
        <pt x="385" y="179" on="1"/>
        <pt x="385" y="146" on="0"/>
        <pt x="367" y="103" on="0"/>
        <pt x="349" y="103" on="1"/>
        <pt x="319" y="103" on="1"/>
        <pt x="319" y="32" on="1"/>
        <pt x="319" y="14" on="0"/>
        <pt x="309" y="3" on="0"/>
        <pt x="269" y="0" on="0"/>
        <pt x="208" y="0" on="1"/>
        <pt x="208" y="103" on="1"/>
        <pt x="54" y="103" on="1"/>
        <pt x="16" y="141" on="0"/>
        <pt x="16" y="209" on="1"/>
        <pt x="16" y="227" on="0"/>
        <pt x="95" y="403" on="0"/>
        <pt x="187" y="571" on="0"/>
        <pt x="210" y="589" on="1"/>
        <pt x="233" y="607" on="0"/>
        <pt x="258" y="607" on="1"/>
        <pt x="296" y="607" on="0"/>
        <pt x="319" y="592" on="1"/>
        <pt x="319" y="206" on="1"/>
      </contour>
      <contour>
        <pt x="197" y="423" on="0"/>
        <pt x="123" y="255" on="0"/>
        <pt x="111" y="206" on="1"/>
        <pt x="208" y="206" on="1"/>
        <pt x="223" y="454" on="1"/>
      </contour>
    </TTGlyph>
    <TTGlyph name="four.dnom" xMin="27" yMin="-7" xMax="360" yMax="421">
      <contour>
        <pt x="360" y="147" on="0"/>
        <pt x="360" y="120" on="1"/>
        <pt x="360" y="94" on="0"/>
        <pt x="340" y="65" on="0"/>
        <pt x="325" y="65" on="1"/>
        <pt x="304" y="65" on="1"/>
        <pt x="304" y="25" on="1"/>
        <pt x="304" y="-7" on="0"/>
        <pt x="246" y="-7" on="1"/>
        <pt x="227" y="-7" on="0"/>
        <pt x="201" y="-1" on="1"/>
        <pt x="201" y="65" on="1"/>
        <pt x="47" y="65" on="1"/>
        <pt x="27" y="86" on="0"/>
        <pt x="27" y="123" on="1"/>
        <pt x="27" y="139" on="0"/>
        <pt x="33" y="158" on="1"/>
        <pt x="49" y="212" on="0"/>
        <pt x="123" y="339" on="0"/>
        <pt x="157" y="376" on="1"/>
        <pt x="180" y="403" on="0"/>
        <pt x="228" y="421" on="0"/>
        <pt x="258" y="421" on="1"/>
        <pt x="280" y="421" on="0"/>
        <pt x="304" y="415" on="1"/>
        <pt x="304" y="170" on="1"/>
        <pt x="351" y="170" on="1"/>
      </contour>
      <contour>
        <pt x="184" y="284" on="0"/>
        <pt x="136" y="201" on="0"/>
        <pt x="126" y="162" on="1"/>
        <pt x="205" y="162" on="1"/>
        <pt x="211" y="301" on="1"/>
      </contour>
    </TTGlyph>
    <TTGlyph name="four.numr" xMin="27" yMin="282" xMax="360" yMax="710">
      <contour>
        <pt x="360" y="436" on="0"/>
        <pt x="360" y="409" on="1"/>
        <pt x="360" y="383" on="0"/>
        <pt x="340" y="354" on="0"/>
        <pt x="325" y="354" on="1"/>
        <pt x="304" y="354" on="1"/>
        <pt x="304" y="314" on="1"/>
        <pt x="304" y="282" on="0"/>
        <pt x="246" y="282" on="1"/>
        <pt x="227" y="282" on="0"/>
        <pt x="201" y="288" on="1"/>
        <pt x="201" y="354" on="1"/>
        <pt x="47" y="354" on="1"/>
        <pt x="27" y="375" on="0"/>
        <pt x="27" y="412" on="1"/>
        <pt x="27" y="428" on="0"/>
        <pt x="33" y="447" on="1"/>
        <pt x="49" y="501" on="0"/>
        <pt x="123" y="628" on="0"/>
        <pt x="157" y="665" on="1"/>
        <pt x="180" y="692" on="0"/>
        <pt x="228" y="710" on="0"/>
        <pt x="258" y="710" on="1"/>
        <pt x="280" y="710" on="0"/>
        <pt x="304" y="704" on="1"/>
        <pt x="304" y="459" on="1"/>
        <pt x="351" y="459" on="1"/>
      </contour>
      <contour>
        <pt x="184" y="573" on="0"/>
        <pt x="136" y="490" on="0"/>
        <pt x="126" y="451" on="1"/>
        <pt x="205" y="451" on="1"/>
        <pt x="211" y="590" on="1"/>
      </contour>
    </TTGlyph>
    <TTGlyph name="foursuperior" xMin="27" yMin="282" xMax="360" yMax="710">
      <contour>
        <pt x="360" y="436" on="0"/>
        <pt x="360" y="409" on="1"/>
        <pt x="360" y="383" on="0"/>
        <pt x="341" y="354" on="0"/>
        <pt x="326" y="354" on="1"/>
        <pt x="304" y="354" on="1"/>
        <pt x="304" y="314" on="1"/>
        <pt x="304" y="282" on="0"/>
        <pt x="246" y="282" on="1"/>
        <pt x="227" y="282" on="0"/>
        <pt x="201" y="288" on="1"/>
        <pt x="201" y="354" on="1"/>
        <pt x="47" y="354" on="1"/>
        <pt x="27" y="375" on="0"/>
        <pt x="27" y="412" on="1"/>
        <pt x="27" y="428" on="0"/>
        <pt x="33" y="447" on="1"/>
        <pt x="50" y="502" on="0"/>
        <pt x="123" y="629" on="0"/>
        <pt x="157" y="665" on="1"/>
        <pt x="180" y="692" on="0"/>
        <pt x="228" y="710" on="0"/>
        <pt x="258" y="710" on="1"/>
        <pt x="280" y="710" on="0"/>
        <pt x="304" y="704" on="1"/>
        <pt x="304" y="459" on="1"/>
        <pt x="351" y="459" on="1"/>
      </contour>
      <contour>
        <pt x="185" y="573" on="0"/>
        <pt x="136" y="489" on="0"/>
        <pt x="126" y="451" on="1"/>
        <pt x="205" y="451" on="1"/>
        <pt x="211" y="590" on="1"/>
      </contour>
    </TTGlyph>
    <TTGlyph name="fraction" xMin="-76" yMin="-10" xMax="303" yMax="710">
      <contour>
        <pt x="30" y="-10" on="0"/>
        <pt x="4" y="-10" on="1"/>
        <pt x="-13" y="-10" on="0"/>
        <pt x="-58" y="10" on="0"/>
        <pt x="-76" y="27" on="1"/>
        <pt x="188" y="683" on="1"/>
        <pt x="196" y="710" on="0"/>
        <pt x="226" y="710" on="1"/>
        <pt x="267" y="710" on="0"/>
        <pt x="303" y="673" on="1"/>
        <pt x="36" y="11" on="1"/>
      </contour>
    </TTGlyph>
    <TTGlyph name="g" xMin="10" yMin="-196" xMax="377" yMax="510">
      <contour>
        <pt x="377" y="477" on="0"/>
        <pt x="377" y="447" on="1"/>
        <pt x="377" y="406" on="0"/>
        <pt x="342" y="406" on="1"/>
        <pt x="333" y="406" on="0"/>
        <pt x="321" y="409" on="1"/>
        <pt x="345" y="372" on="0"/>
        <pt x="345" y="317" on="1"/>
        <pt x="345" y="234" on="0"/>
        <pt x="268" y="154" on="0"/>
        <pt x="183" y="154" on="1"/>
        <pt x="165" y="154" on="0"/>
        <pt x="157" y="155" on="1"/>
        <pt x="143" y="137" on="0"/>
        <pt x="143" y="127" on="1"/>
        <pt x="143" y="119" on="0"/>
        <pt x="164" y="113" on="0"/>
        <pt x="190" y="110" on="1"/>
        <pt x="217" y="108" on="0"/>
        <pt x="230" y="105" on="1"/>
        <pt x="297" y="94" on="0"/>
        <pt x="362" y="38" on="0"/>
        <pt x="362" y="-19" on="1"/>
        <pt x="362" y="-97" on="0"/>
        <pt x="268" y="-196" on="0"/>
        <pt x="172" y="-196" on="1"/>
        <pt x="10" y="-196" on="0"/>
        <pt x="10" y="-84" on="1"/>
        <pt x="10" y="-17" on="0"/>
        <pt x="78" y="29" on="1"/>
        <pt x="24" y="45" on="0"/>
        <pt x="24" y="83" on="1"/>
        <pt x="24" y="127" on="0"/>
        <pt x="87" y="179" on="1"/>
        <pt x="27" y="219" on="0"/>
        <pt x="27" y="324" on="1"/>
        <pt x="27" y="426" on="0"/>
        <pt x="113" y="510" on="0"/>
        <pt x="196" y="510" on="1"/>
        <pt x="221" y="510" on="0"/>
        <pt x="246" y="501" on="1"/>
        <pt x="365" y="501" on="1"/>
      </contour>
      <contour>
        <pt x="212" y="236" on="0"/>
        <pt x="233" y="282" on="0"/>
        <pt x="233" y="347" on="1"/>
        <pt x="233" y="394" on="0"/>
        <pt x="214" y="432" on="0"/>
        <pt x="191" y="432" on="1"/>
        <pt x="145" y="432" on="0"/>
        <pt x="145" y="329" on="1"/>
        <pt x="145" y="276" on="0"/>
        <pt x="163" y="236" on="0"/>
        <pt x="188" y="236" on="1"/>
      </contour>
      <contour>
        <pt x="249" y="-17" on="0"/>
        <pt x="238" y="2" on="0"/>
        <pt x="202" y="14" on="0"/>
        <pt x="164" y="18" on="1"/>
        <pt x="125" y="-14" on="0"/>
        <pt x="125" y="-55" on="1"/>
        <pt x="125" y="-76" on="0"/>
        <pt x="151" y="-95" on="0"/>
        <pt x="184" y="-95" on="1"/>
        <pt x="218" y="-95" on="0"/>
        <pt x="249" y="-57" on="0"/>
        <pt x="249" y="-34" on="1"/>
      </contour>
    </TTGlyph>
    <TTGlyph name="g.ss01" xMin="28" yMin="-200" xMax="337" yMax="513">
      <contour>
        <pt x="337" y="-122" on="0"/>
        <pt x="245" y="-200" on="0"/>
        <pt x="164" y="-200" on="1"/>
        <pt x="104" y="-200" on="0"/>
        <pt x="35" y="-160" on="0"/>
        <pt x="35" y="-131" on="1"/>
        <pt x="35" y="-98" on="0"/>
        <pt x="57" y="-64" on="1"/>
        <pt x="109" y="-96" on="0"/>
        <pt x="166" y="-96" on="1"/>
        <pt x="188" y="-96" on="0"/>
        <pt x="226" y="-65" on="0"/>
        <pt x="226" y="-31" on="1"/>
        <pt x="226" y="23" on="1"/>
        <pt x="204" y="-9" on="0"/>
        <pt x="147" y="-9" on="1"/>
        <pt x="101" y="-9" on="0"/>
        <pt x="50" y="39" on="0"/>
        <pt x="28" y="142" on="0"/>
        <pt x="28" y="231" on="1"/>
        <pt x="28" y="385" on="0"/>
        <pt x="139" y="513" on="0"/>
        <pt x="235" y="513" on="1"/>
        <pt x="290" y="513" on="0"/>
        <pt x="337" y="486" on="1"/>
        <pt x="337" y="-45" on="1"/>
      </contour>
      <contour>
        <pt x="217" y="423" on="0"/>
        <pt x="204" y="423" on="1"/>
        <pt x="178" y="423" on="0"/>
        <pt x="153" y="344" on="0"/>
        <pt x="153" y="248" on="1"/>
        <pt x="153" y="160" on="0"/>
        <pt x="170" y="89" on="0"/>
        <pt x="189" y="89" on="1"/>
        <pt x="229" y="89" on="0"/>
        <pt x="229" y="163" on="1"/>
        <pt x="229" y="416" on="1"/>
      </contour>
    </TTGlyph>
    <TTGlyph name="gbreve" xMin="10" yMin="-196" xMax="377" yMax="717">
      <component glyphName=".ttfautohint" x="10" y="0" flags="0x0"/>
      <component glyphName="g" x="0" y="0" flags="0x1000"/>
      <component glyphName="breve" x="51" y="0" flags="0x1000"/>
    </TTGlyph>
</ttFont>
